{
.appVersion = "3136";
.formatVersion = 3;
DisplayStrings = (
"ישראלאיס"
);
axes = (
{
name = Weight;
tag = wght;
}
);
classes = (
{
automatic = 1;
code = "A Aacute Acircumflex Adieresis Agrave Aring Atilde AE B C Ccedilla D Eth E Eacute Ecircumflex Edieresis Egrave F G H I Iacute Icircumflex Idieresis Igrave J K L M N Ntilde O Oacute Ocircumflex Odieresis Ograve Oslash Otilde OE P Thorn Q R S T U Uacute Ucircumflex Udieresis Ugrave V W X Y Yacute Z";
name = Uppercase;
},
{
code = "alef-hb bet-hb gimel-hb dalet-hb he-hb vav-hb zayin-hb het-hb tet-hb yod-hb finalkaf-hb kaf-hb lamed-hb finalmem-hb mem-hb finalnun-hb nun-hb samekh-hb ayin-hb finalpe-hb pe-hb finaltsadi-hb tsadi-hb qof-hb resh-hb shin-hb tav-hb
";
name = HebrewLetters;
}
);
customParameters = (
{
name = fsType;
value = (
);
},
{
name = "Write lastChange";
value = 0;
},
{
name = "Use Typo Metrics";
value = 1;
},
{
name = "Use Line Breaks";
value = 1;
},
{
name = "Enforce Compatibility Check";
value = 0;
}
);
date = "2017-03-21 06:32:22 +0000";
familyName = Solitreo;
featurePrefixes = (
{
code = "languagesystem DFLT dflt;

languagesystem latn dflt;

languagesystem hebr dflt;
languagesystem hebr IWR;
";
name = Languagesystems;
}
);
features = (
{
automatic = 1;
code = "feature subs;
feature sinf;
feature sups;
feature frac;
feature ordn;
feature case;
";
tag = aalt;
},
{
automatic = 1;
code = "lookup ccmp_Other_1 {
	@CombiningTopAccents = [acutecomb brevecomb caroncomb circumflexcomb commaturnedabovecomb dieresiscomb dotaccentcomb gravecomb hungarumlautcomb macroncomb ringcomb tildecomb];
	@CombiningNonTopAccents = [cedillacomb ogonekcomb slashlongcomb slashshortcomb strokeshortcomb];
	sub [i]' @CombiningTopAccents by [idotless];
	sub [i]' @CombiningNonTopAccents @CombiningTopAccents by [idotless];
	@Markscomb = [brevecomb-cy dieresiscomb dotaccentcomb gravecomb acutecomb hungarumlautcomb circumflexcomb caroncomb brevecomb ringcomb tildecomb macroncomb commaaccentcomb cedillacomb ogonekcomb];

glyphs = (
{
color = 5;
glyphname = A;
kernLeft = A;
kernRight = A;
layers = (
{
anchors = (
{
name = bottom;
pos = (335,0);
},
{
name = top;
pos = (335,700);
}
);
layerId = "FF2DC345-5101-49B6-97F3-57A040F7C387";
shapes = (
{
closed = 1;
nodes = (
(107,-10,o),
(141,67,o),
(200,220,c),
(267,239,o),
(326,254,o),
(394,272,c),
(399,211,o),
(404,148,o),
(409,84,cs),
(413,52,o),
(419,-10,o),
(452,-10,cs),
(473,-10,o),
(484,-4,o),
(484,80,cs),
(484,129,o),
(481,224,o),
(476,293,c),
(535,310,o),
(564,324,o),
(564,337,cs),
(564,354,o),
(549,367,o),
(519,367,cs),
(505,367,o),
(489,362,o),
(470,360,c),
(460,457,o),
(419,704,o),
(375,704,cs),
(340,704,o),
(298,674,o),
(283,638,cs),
(264,590,o),
(152,314,o),
(141,290,c),
(75,269,o),
(42,252,o),
(42,239,cs),
(42,213,o),
(66,193,o),
(100,193,c),
(62,105,o),
(43,58,o),
(43,51,cs),
(43,22,o),
(75,-10,o),
(96,-10,cs)
);
},
{
closed = 1;
nodes = (
(284,440,o),
(322,536,o),
(352,605,c),
(363,548,o),
(375,462,o),
(387,348,c),
(334,339,o),
(284,329,o),
(237,316,c)
);
}
);
width = 608;
}
);
unicode = 65;
userData = {
com.typemytype.robofont.guides = (
{
angle = 0;
isGlobal = 0;
magnetic = 5;
x = 0;
y = 680;
},
{
angle = 90;
isGlobal = 0;
magnetic = 5;
x = 35;
y = 0;
},
{
angle = 90;
isGlobal = 0;
magnetic = 5;
x = 637;
y = 0;
},
{
angle = 90;
isGlobal = 0;
magnetic = 5;
x = 336;
y = 0;
}
);
};
},
{
color = 5;
glyphname = Aogonek;
layers = (
{
anchors = (
{
name = bottom;
pos = (335,0);
},
{
name = top;
pos = (335,700);
}
);
layerId = "FF2DC345-5101-49B6-97F3-57A040F7C387";
shapes = (
{
closed = 1;
nodes = (
(107,-10,o),
(141,67,o),
(200,220,c),
(267,239,o),
(326,254,o),
(394,272,c),
(408,103,o),
(415,74,o),
(420,48,c),
(334,48,o),
(280,-22,o),
(280,-96,cs),
(280,-173,o),
(351,-220,o),
(420,-220,cs),
(441,-220,o),
(468,-210,o),
(468,-181,cs),
(468,-160,o),
(457,-148,o),
(441,-148,cs),
(429,-148,o),
(418,-154,o),
(396,-154,cs),
(361,-154,o),
(339,-126,o),
(339,-81,cs),
(339,-45,o),
(371,0,o),
(416,0,cs),
(430,0,o),
(440,-10,o),
(454,-10,cs),
(473,-10,o),
(484,-4,o),
(484,80,cs),
(484,129,o),
(481,224,o),
(476,293,c),
(535,310,o),
(564,324,o),
(564,337,cs),
(564,354,o),
(549,367,o),
(519,367,cs),
(505,367,o),
(489,362,o),
(470,360,c),
(460,457,o),
(419,704,o),
(375,704,cs),
(340,704,o),
(298,674,o),
(283,638,cs),
(264,590,o),
(152,314,o),
(141,290,c),
(75,269,o),
(42,252,o),
(42,239,cs),
(42,213,o),
(66,193,o),
(100,193,c),
(62,105,o),
(43,58,o),
(43,51,cs),
(43,22,o),
(75,-10,o),
(96,-10,cs)
);
},
{
closed = 1;
nodes = (
(284,440,o),
(322,536,o),
(352,605,c),
(363,548,o),
(375,462,o),
(387,348,c),
(334,339,o),
(284,329,o),
(237,316,c)
);
}
);
width = 608;
}
);
unicode = 260;
},
{
color = 5;
glyphname = AE;
kernLeft = AE;
kernRight = E;
layers = (
{
anchors = (
{
name = bottom;
pos = (468,0);
},
{
name = top;
pos = (468,700);
}
);
layerId = "FF2DC345-5101-49B6-97F3-57A040F7C387";
shapes = (
{
closed = 1;
nodes = (
(87,-6,o),
(138,124,o),
(193,259,c),
(214,261,o),
(368,285,o),
(398,289,c),
(367,190,o),
(352,122,o),
(352,86,cs),
(352,38,o),
(406,-4,o),
(467,-4,cs),
(604,-4,o),
(791,60,o),
(791,108,cs),
(791,122,o),
(786,129,o),
(777,129,cs),
(718,129,o),
(570,80,o),
(471,80,cs),
(452,80,o),
(443,91,o),
(443,113,cs),
(443,125,o),
(460,188,o),
(494,302,c),
(704,328,o),
(744,337,o),
(744,357,cs),
(744,378,o),
(718,388,o),
(665,388,cs),
(636,388,o),
(586,384,o),
(516,377,c),
(543,470,o),
(556,578,o),
(554,612,c),
(757,612,o),
(832,624,o),
(832,647,cs),
(832,668,o),
(788,686,o),
(535,686,cs),
(462,686,o),
(292,681,o),
(258,627,cs),
(196,529,o),
(19,59,o),
(18,46,cs),
(17,21,o),
(35,-6,o),
(66,-6,cs)
);
},
{
closed = 1;
nodes = (
(289,489,o),
(328,573,o),
(342,588,cs),
(351,599,o),
(393,606,o),
(470,610,c),
(468,551,o),
(452,469,o),
(421,366,c),
(342,356,o),
(276,346,o),
(225,335,c)
);
}
);
width = 831;
}
);
unicode = 198;
userData = {
com.typemytype.robofont.guides = (
{
angle = 0;
isGlobal = 0;
magnetic = 5;
x = 0;
y = 505;
},
{
angle = 90;
isGlobal = 0;
magnetic = 5;
x = 431;
y = 0;
}
);
};
},
{
color = 5;
glyphname = B;
kernLeft = I;
layers = (
{
anchors = (
{
name = bottom;
pos = (335,0);
},
{
name = top;
pos = (335,700);
}
);
hints = (
{
horizontal = 1;
place = (0, 0);
type = Tag;
}
);
layerId = "FF2DC345-5101-49B6-97F3-57A040F7C387";
shapes = (
{
closed = 1;
nodes = (
(325,-3,o),
(575,91,o),
(575,234,cs),
(575,299,o),
(493,352,o),
(373,359,c),
(502.333,399,o),
(571,467,o),
(571,547,cs),
(571,643,o),
(466,695,o),
(279,695,cs),
(218,695,o),
(134,681,o),
(134,653,cs),
(134,634,o),
(160,594,o),
(198,594,c),
(196,418,o),
(98,189,o),
(98,138,cs),
(98,115,o),
(118.333,85.333,o),
(137,76,c),
(76,76,o),
(45,120,o),
(23,120,cs),
(14,120,o),
(5,111,o),
(5,99,cs),
(5,43,o),
(90,-3,o),
(158,-3,cs)
);
},
{
closed = 1;
nodes = (
(165.667,89.333,o),
(192.333,176.333,o),
(233,337,c),
(246.333,318.333,o),
(262,309,o),
(280,309,cs),
(372,309,o),
(488,278,o),
(488,238,cs),
(488,165,o),
(317,81,o),
(153,76,c)
);
},
{
closed = 1;
nodes = (
(267.333,469,o),
(279,523,o),
(279,542.5,cs),
(279,561,o),
(269.667,580,o),
(251,600,c),
(285,607,o),
(325,612,o),
(361,612,cs),
(426,612,o),
(481,591,o),
(481,542,cs),
(481,447,o),
(297,414,o),
(244,377,c)
);
}
);
width = 637;
}
);
unicode = 66;
userData = {
com.typemytype.robofont.guides = (
{
angle = 0;
isGlobal = 0;
magnetic = 5;
x = 0;
y = 271;
},
{
angle = 0;
isGlobal = 0;
magnetic = 5;
x = 0;
y = 437;
},
{
angle = 0;
isGlobal = 0;
magnetic = 5;
x = 0;
y = 521;
},
{
angle = 0;
isGlobal = 0;
magnetic = 5;
x = 0;
y = 198;
},
{
angle = 0;
isGlobal = 0;
magnetic = 5;
x = 0;
y = 9;
},
{
angle = 90;
isGlobal = 0;
magnetic = 5;
x = 355;
y = 0;
},
{
angle = 90;
isGlobal = 0;
magnetic = 5;
x = 583;
y = 0;
},
{
angle = 90;
isGlobal = 0;
magnetic = 5;
x = 94;
y = 0;
}
);
};
},
{
color = 5;
glyphname = C;
kernLeft = O;
kernRight = C;
layers = (
{
anchors = (
{
name = bottom;
pos = (334,0);
},
{
name = top;
pos = (444,700);
}
);
layerId = "FF2DC345-5101-49B6-97F3-57A040F7C387";
shapes = (
{
closed = 1;
nodes = (
(424,-3,o),
(539,117,o),
(539,162,cs),
(539,173,o),
(534,177,o),
(524,177,cs),
(501,177,o),
(398,90,o),
(261,90,cs),
(200,90,o),
(158,123,o),
(158,196,cs),
(158,347,o),
(359,600,o),
(477,600,cs),
(508,600,o),
(527,585,o),
(540,585,cs),
(548,585,o),
(551,591,o),
(551,599,cs),
(551,635,o),
(508,694,o),
(470,694,cs),
(287,694,o),
(65,388,o),
(65,191,cs),
(65,94,o),
(166,-3,o),
(259,-3,cs)
);
}
);
width = 599;
}
);
unicode = 67;
userData = {
com.typemytype.robofont.guides = (
{
angle = 0;
isGlobal = 0;
magnetic = 5;
x = 0;
y = 434;
},
{
angle = 0;
isGlobal = 0;
magnetic = 5;
x = 0;
y = 266;
},
{
angle = 0;
isGlobal = 0;
magnetic = 5;
x = 0;
y = 710;
},
{
angle = 0;
isGlobal = 0;
magnetic = 5;
x = 0;
y = "-10";
},
{
angle = 90;
isGlobal = 0;
magnetic = 5;
x = 599;
y = 0;
},
{
angle = 90;
isGlobal = 0;
magnetic = 5;
x = 209;
y = 0;
},
{
angle = 90;
isGlobal = 0;
magnetic = 5;
x = 149;
y = 0;
},
{
angle = 90;
isGlobal = 0;
magnetic = 5;
x = 332;
y = 0;
}
);
};
},
{
color = 5;
glyphname = Ccedilla;
kernLeft = O;
kernRight = C;
layers = (
{
hints = (
{
horizontal = 1;
place = (0, 0);
type = Tag;
}
);
layerId = "FF2DC345-5101-49B6-97F3-57A040F7C387";
shapes = (
{
closed = 1;
nodes = (
(235.667,-188,o),
(335.667,-148.667,o),
(337,-90,cs),
(337,-60.667,o),
(284.333,-33,o),
(240,-33,c),
(249.333,-16.333,o),
(258,1.667,o),
(266,21,c),
(429,27,o),
(541,143,o),
(541,185,cs),
(541,195,o),
(536,201,o),
(525,201,cs),
(500,201,o),
(392,114,o),
(274,114,cs),
(212,114,o),
(159,138,o),
(159,211,cs),
(159,373,o),
(358,624,o),
(477,624,cs),
(511,624,o),
(521,609,o),
(537,609,cs),
(545,609,o),
(551,615,o),
(551,625,cs),
(551,661,o),
(507,718,o),
(471,718,cs),
(282,718,o),
(66,404,o),
(66,215,cs),
(66,119,o),
(129.333,61.333,o),
(204,32,c),
(187,-11,o),
(176,-31,o),
(176,-44,cs),
(176,-53,o),
(179,-61,o),
(199,-61,cs),
(231,-61,o),
(248,-88,o),
(248,-102,cs),
(248,-128,o),
(105,-129,o),
(105,-162,cs),
(105,-177,o),
(123.667,-188,o),
(149,-188,cs)
);
}
);
width = 603;
}
);
unicode = 199;
userData = {
com.typemytype.robofont.guides = (
{
angle = 0;
isGlobal = 0;
magnetic = 5;
x = 0;
y = "-174";
},
{
angle = 0;
isGlobal = 0;
magnetic = 5;
x = 0;
y = "-220";
},
{
angle = 0;
isGlobal = 0;
magnetic = 5;
x = 0;
y = "-96";
},
{
angle = 0;
isGlobal = 0;
magnetic = 5;
x = 0;
y = "-50";
},
{
angle = 0;
isGlobal = 0;
magnetic = 5;
x = 0;
y = "-135";
},
{
angle = 90;
isGlobal = 0;
magnetic = 5;
x = 331;
y = 0;
},
{
angle = 90;
isGlobal = 0;
magnetic = 5;
x = 342;
y = 0;
}
);
};
},
{
color = 5;
glyphname = D;
kernLeft = I;
kernRight = D;
layers = (
{
anchors = (
{
name = bottom;
pos = (345,0);
},
{
name = center;
pos = (345,350);
},
{
name = top;
pos = (344,700);
}
);
hints = (
{
horizontal = 1;
place = (0, 0);
type = Tag;
}
);
layerId = "FF2DC345-5101-49B6-97F3-57A040F7C387";
shapes = (
{
closed = 1;
nodes = (
(294,-6,o),
(612,206,o),
(612,337,cs),
(612,529,o),
(343,701,o),
(151,701,cs),
(138,701,o),
(131,694,o),
(131,684,cs),
(131,663,o),
(153,628,o),
(201,608,c),
(188.361,441.16,o),
(80,228.248,o),
(80,92.5,cs),
(80,47.833,o),
(122.667,-6,o),
(148,-6,cs)
);
},
{
closed = 1;
nodes = (
(173,177,o),
(279,467,o),
(279,550,cs),
(279,564,o),
(277,575,o),
(274,587,c),
(404.667,544.333,o),
(520,430.667,o),
(520,348,cs),
(520,270,o),
(301,101,o),
(167,84,c)
);
}
);
width = 645;
}
);
unicode = 68;
userData = {
com.typemytype.robofont.guides = (
{
angle = 0;
isGlobal = 0;
magnetic = 5;
x = 0;
y = 425;
},
{
angle = 0;
isGlobal = 0;
magnetic = 5;
x = 0;
y = 276;
},
{
angle = 0;
isGlobal = 0;
magnetic = 5;
x = 0;
y = 9;
},
{
angle = 90;
isGlobal = 0;
magnetic = 5;
x = 320;
y = 0;
},
{
angle = 90;
isGlobal = 0;
magnetic = 5;
x = 603;
y = 0;
},
{
angle = 90;
isGlobal = 0;
magnetic = 5;
x = 94;
y = 0;
}
);
};
},
{
color = 5;
glyphname = Eth;
kernLeft = I;
kernRight = D;
layers = (
{
hints = (
{
horizontal = 1;
place = (0, 0);
type = Tag;
}
);
layerId = "FF2DC345-5101-49B6-97F3-57A040F7C387";
shapes = (
{
closed = 1;
nodes = (
(308,-4,o),
(626,209,o),
(626,338,cs),
(626,529,o),
(356,703,o),
(165,703,cs),
(152,703,o),
(145,695,o),
(145,684,cs),
(145,663,o),
(168,630,o),
(215,609,c),
(211.667,565.667,o),
(192.667,481.667,o),
(158,357,c),
(123,352,o),
(14,344,o),
(14,308,cs),
(14,285,o),
(58,271,o),
(73.5,271,cs),
(81,271,o),
(101.667,272.333,o),
(135,275,c),
(107.667,173,o),
(94,112,o),
(94,91.5,cs),
(94,51,o),
(136.667,-4,o),
(162,-4,cs)
);
},
{
closed = 1;
nodes = (
(189,138.667,o),
(199.333,187,o),
(229,287,c),
(267,293,o),
(351,312,o),
(351,330,cs),
(351,366.681,o),
(285.179,369.629,o),
(251,367,c),
(279,464.333,o),
(293,527,o),
(293,555,cs),
(293,566,o),
(291.333,576.667,o),
(288,588,c),
(418.667,544,o),
(534,434,o),
(534,349,cs),
(534,256,o),
(285,100,o),
(181,86,c)
);
}
);
width = 619;
}
);
unicode = 208;
userData = {
com.typemytype.robofont.guides = (
{
angle = 0;
isGlobal = 0;
magnetic = 5;
x = 0;
y = 350;
}
);
};
},
{
color = 5;
glyphname = E;
kernLeft = I;
kernRight = E;
layers = (
{
anchors = (
{
name = bottom;
pos = (279,14);
},
{
name = top;
pos = (373,700);
},
{
name = topleft;
pos = (160,700);
}
);
layerId = "FF2DC345-5101-49B6-97F3-57A040F7C387";
shapes = (
{
closed = 1;
nodes = (
(315,-5,o),
(502,59,o),
(502,107,cs),
(502,121,o),
(497,128,o),
(487,128,cs),
(458,128,o),
(350,79,o),
(181,79,cs),
(165,79,o),
(154,90,o),
(154,106,cs),
(154,130,o),
(172,199,o),
(208,313,c),
(329,313,o),
(480,330,o),
(480,382,cs),
(480,395,o),
(468,400,o),
(448,400,cs),
(415,399,o),
(352,383,o),
(287,383,cs),
(268,383,o),
(249,384,o),
(230,387,c),
(255,478,o),
(267,547,o),
(267,595,c),
(299,600,o),
(350,609,o),
(385,612,cs),
(592,627,o),
(605,645,o),
(605,661,cs),
(605,680,o),
(538,690,o),
(404,690,cs),
(270,690,o),
(182,683,o),
(182,630,cs),
(182,480,o),
(63,173,o),
(63,90,cs),
(63,35,o),
(117,-5,o),
(178,-5,cs)
);
}
);
width = 585;
}
);
unicode = 69;
userData = {
com.typemytype.robofont.guides = (
{
angle = 0;
isGlobal = 0;
magnetic = 5;
x = 0;
y = 334;
},
{
angle = 0;
isGlobal = 0;
magnetic = 5;
x = 0;
y = 9;
},
{
angle = 0;
isGlobal = 0;
magnetic = 5;
x = 0;
y = 376;
},
{
angle = 0;
isGlobal = 0;
magnetic = 5;
x = 0;
y = 691;
},
{
angle = 0;
isGlobal = 0;
magnetic = 5;
x = 0;
y = 649;
},
{
angle = 90;
isGlobal = 0;
magnetic = 5;
x = 664;
y = 0;
},
{
angle = 90;
isGlobal = 0;
magnetic = 5;
x = 94;
y = 0;
},
{
angle = 90;
isGlobal = 0;
magnetic = 5;
x = 511;
y = 0;
}
);
};
},
{
color = 5;
glyphname = Eogonek;
layers = (
{
anchors = (
{
name = bottom;
pos = (279,14);
},
{
name = top;
pos = (373,700);
},
{
name = topleft;
pos = (160,700);
}
);
layerId = "FF2DC345-5101-49B6-97F3-57A040F7C387";
shapes = (
{
closed = 1;
nodes = (
(225,-5,o),
(300,13,o),
(349,24,c),
(329,5,o),
(312,-18,o),
(312,-68,cs),
(312,-123,o),
(351,-171,o),
(424,-171,cs),
(473,-171,o),
(493,-161,o),
(493,-134,cs),
(493,-111,o),
(481,-104,o),
(468,-104,cs),
(454,-104,o),
(445,-112,o),
(432,-112,cs),
(386,-112,o),
(362,-87,o),
(362,-31,cs),
(362,7,o),
(404,33,o),
(432,45,cs),
(466,60,o),
(502,88,o),
(502,107,cs),
(502,121,o),
(497,128,o),
(487,128,cs),
(458,128,o),
(350,79,o),
(181,79,cs),
(165,79,o),
(154,90,o),
(154,106,cs),
(154,130,o),
(172,199,o),
(208,313,c),
(329,313,o),
(480,330,o),
(480,382,cs),
(480,395,o),
(468,400,o),
(448,400,cs),
(415,399,o),
(352,383,o),
(287,383,cs),
(268,383,o),
(249,384,o),
(230,387,c),
(255,478,o),
(267,547,o),
(267,595,c),
(299,600,o),
(350,609,o),
(385,612,cs),
(592,627,o),
(605,645,o),
(605,661,cs),
(605,680,o),
(538,690,o),
(404,690,cs),
(270,690,o),
(182,683,o),
(182,630,cs),
(182,480,o),
(63,173,o),
(63,90,cs),
(63,35,o),
(117,-5,o),
(178,-5,cs)
);
}
);
width = 585;
}
);
unicode = 280;
},
{
color = 5;
glyphname = F;
kernLeft = I;
layers = (
{
anchors = (
{
name = bottom;
pos = (292,0);
},
{
name = top;
pos = (292,700);
}
);
hints = (
{
horizontal = 1;
place = (0, 0);
type = Tag;
}
);
layerId = "FF2DC345-5101-49B6-97F3-57A040F7C387";
shapes = (
{
closed = 1;
nodes = (
(128,-4,o),
(174,187,o),
(195,293,c),
(261,290,o),
(473,310,o),
(473,366,cs),
(473,377,o),
(460,382,o),
(435,382,cs),
(375,382,o),
(311,368,o),
(214,373,c),
(240,482,o),
(254,550,o),
(252,598,c),
(562,626,o),
(589,641,o),
(589,655,cs),
(589,667,o),
(570,693,o),
(375,693,cs),
(221,693,o),
(173,678,o),
(173,630,cs),
(173,455,o),
(56,205,o),
(56,71,cs),
(56,47,o),
(90,-4,o),
(106,-4,cs)
);
}
);
width = 523;
}
);
unicode = 70;
userData = {
com.typemytype.robofont.guides = (
{
angle = 0;
isGlobal = 0;
magnetic = 5;
x = 0;
y = 320;
},
{
angle = 0;
isGlobal = 0;
magnetic = 5;
x = 0;
y = 691;
},
{
angle = 0;
isGlobal = 0;
magnetic = 5;
x = 0;
y = 649;
},
{
angle = 0;
isGlobal = 0;
magnetic = 5;
x = 0;
y = 362;
},
{
angle = 0;
isGlobal = 0;
magnetic = 5;
x = 0;
y = 9;
},
{
angle = 90;
isGlobal = 0;
magnetic = 5;
x = 761;
y = 0;
},
{
angle = 90;
isGlobal = 0;
magnetic = 5;
x = 94;
y = 0;
},
{
angle = 90;
isGlobal = 0;
magnetic = 5;
x = 487;
y = 0;
},
{
angle = 90;
isGlobal = 0;
magnetic = 5;
x = 139;
y = 0;
}
);
};
},
{
color = 5;
glyphname = G;
kernLeft = O;
kernRight = G;
layers = (
{
anchors = (
{
name = bottom;
pos = (292,0);
},
{
name = top;
pos = (416,700);
}
);
hints = (
{
horizontal = 1;
place = (0, 0);
type = Tag;
}
);
layerId = "FF2DC345-5101-49B6-97F3-57A040F7C387";
shapes = (
{
closed = 1;
nodes = (
(439,-109,o),
(530,178,o),
(530,232,cs),
(530,286,o),
(498,333,o),
(449,333,cs),
(316,333,o),
(298,309,o),
(298,298,cs),
(298,281,o),
(327,256,o),
(363,256,cs),
(388,256,o),
(413,260,o),
(446,271,c),
(446,268,l),
(373,159,o),
(277,83,o),
(214,83,cs),
(173,83,o),
(137,122,o),
(137,170,cs),
(137,341,o),
(319,604,o),
(461,604,cs),
(497,604,o),
(515,589,o),
(524,589,cs),
(532,589,o),
(535,595,o),
(535,604,cs),
(535,633,o),
(496,697,o),
(453,697,cs),
(271,697,o),
(46,378,o),
(46,171,cs),
(46,84,o),
(141,-3,o),
(219,-3,cs),
(297,-3,o),
(385,66,o),
(450,177,c),
(453,177,l),
(427,96,o),
(379,-16,o),
(379,-80,cs),
(379,-99,o),
(388,-109,o),
(405,-109,cs)
);
}
);
width = 611;
}
);
unicode = 71;
userData = {
com.typemytype.robofont.guides = (
{
angle = 0;
isGlobal = 0;
magnetic = 5;
x = 0;
y = "-10";
},
{
angle = 0;
isGlobal = 0;
magnetic = 5;
x = 0;
y = 260;
},
{
angle = 0;
isGlobal = 0;
magnetic = 5;
x = 0;
y = 440;
},
{
angle = 90;
isGlobal = 0;
magnetic = 5;
x = 334;
y = 0;
},
{
angle = 90;
isGlobal = 0;
magnetic = 5;
x = 133;
y = 0;
},
{
angle = 90;
isGlobal = 0;
magnetic = 5;
x = 604;
y = 0;
},
{
angle = 90;
isGlobal = 0;
magnetic = 5;
x = 67;
y = 0;
}
);
};
},
{
color = 5;
glyphname = H;
kernLeft = I;
kernRight = I;
layers = (
{
anchors = (
{
name = bottom;
pos = (357,0);
},
{
name = center;
pos = (357,350);
},
{
name = top;
pos = (357,700);
},
{
name = topleft;
pos = (170,700);
}
);
layerId = "FF2DC345-5101-49B6-97F3-57A040F7C387";
shapes = (
{
closed = 1;
nodes = (
(141,-3,o),
(159,113,o),
(205,280,c),
(283,297.333,o),
(370.667,312.667,o),
(468,326,c),
(428,171.333,o),
(408,86,o),
(408,69,cs),
(408,36,o),
(440,-3,o),
(455,-3,cs),
(473,-3,o),
(476,26,o),
(561,340,c),
(602.333,348.667,o),
(623,360,o),
(623,373.5,cs),
(623,387,o),
(607.667,396.333,o),
(577,401,c),
(607,514.333,o),
(622,582,o),
(622,604.5,cs),
(622,649,o),
(582,700,o),
(559,700,cs),
(546,700,o),
(539,690,o),
(539,670,cs),
(539,631,o),
(522,541.667,o),
(488,403,c),
(403.333,397.667,o),
(317,386,o),
(229,368,c),
(261.667,496.667,o),
(278,574,o),
(278,599.5,cs),
(278,651,o),
(237,700,o),
(219.5,700,cs),
(202,700,o),
(197,693,o),
(197,670,cs),
(197,628,o),
(174.667,519.667,o),
(130,345,c),
(95.333,334.333,o),
(78,325,o),
(78,316,cs),
(78,295,o),
(92.667,276.667,o),
(110,270,c),
(80.667,155.333,o),
(66,90,o),
(66,74,cs),
(66,42,o),
(104,-3,o),
(120,-3,cs)
);
}
);
width = 670;
}
);
unicode = 72;
userData = {
com.typemytype.robofont.guides = (
{
angle = 0;
isGlobal = 0;
magnetic = 5;
x = 0;
y = 350;
},
{
angle = 0;
isGlobal = 0;
magnetic = 5;
x = 0;
y = 9;
},
{
angle = 0;
isGlobal = 0;
magnetic = 5;
x = 0;
y = 691;
},
{
angle = 90;
isGlobal = 0;
magnetic = 5;
x = 94;
y = 0;
},
{
angle = 90;
isGlobal = 0;
magnetic = 5;
x = 139;
y = 0;
},
{
angle = 90;
isGlobal = 0;
magnetic = 5;
x = 543;
y = 0;
},
{
angle = 90;
isGlobal = 0;
magnetic = 5;
x = 588;
y = 0;
}
);
};
},
{
color = 5;
glyphname = Hbar;
layers = (
{
anchors = (
{
name = bottom;
pos = (357,0);
},
{
name = center;
pos = (357,350);
},
{
name = top;
pos = (357,700);
},
{
name = topleft;
pos = (170,700);
}
);
layerId = "FF2DC345-5101-49B6-97F3-57A040F7C387";
shapes = (
{
closed = 1;
nodes = (
(141,-3,o),
(159,113,o),
(205,280,c),
(283,297,o),
(371,313,o),
(468,326,c),
(428,171,o),
(408,86,o),
(408,69,cs),
(408,36,o),
(440,-3,o),
(455,-3,cs),
(473,-3,o),
(476,26,o),
(561,340,c),
(602,349,o),
(623,360,o),
(623,374,cs),
(623,387,o),
(608,396,o),
(577,401,c),
(601,494,l),
(610,496,o),
(669,511,o),
(669,524,cs),
(669,542,o),
(645,549,o),
(614,552,c),
(619,577,o),
(622,595,o),
(622,605,cs),
(622,649,o),
(582,700,o),
(559,700,cs),
(546,700,o),
(539,690,o),
(539,670,cs),
(539,648,o),
(533,608,o),
(522,553,c),
(473,550,o),
(362,535,o),
(265,517,c),
(274,559,o),
(278,586,o),
(278,600,cs),
(278,651,o),
(237,700,o),
(220,700,cs),
(202,700,o),
(197,693,o),
(197,670,cs),
(197,642,o),
(187,584,o),
(167,496,c),
(144,490,o),
(58,466,o),
(58,441,cs),
(58,422,o),
(71,410,o),
(90,410,cs),
(98,410,o),
(119,412,o),
(148,416,c),
(142,394,o),
(136,370,o),
(130,345,c),
(95,334,o),
(78,325,o),
(78,316,cs),
(78,295,o),
(93,277,o),
(110,270,c),
(81,155,o),
(66,90,o),
(66,74,cs),
(66,42,o),
(104,-3,o),
(120,-3,cs)
);
},
{
closed = 1;
nodes = (
(235,390,o),
(240,410,o),
(244,429,c),
(325,441,o),
(424,457,o),
(505,473,c),
(500,451,o),
(494,428,o),
(488,403,c),
(403,398,o),
(317,386,o),
(229,368,c)
);
}
);
width = 670;
}
);
unicode = 294;
},
{
color = 5;
glyphname = I;
kernLeft = I;
kernRight = I;
layers = (
{
anchors = (
{
name = bottom;
pos = (137,0);
},
{
name = top;
pos = (224,700);
},
{
name = topleft;
pos = (150,700);
}
);
layerId = "FF2DC345-5101-49B6-97F3-57A040F7C387";
shapes = (
{
closed = 1;
nodes = (
(122,-1,o),
(133,4,o),
(147,58,cs),
(190,222,o),
(273,561,o),
(273,600.5,cs),
(273,647.833,o),
(230.833,698,o),
(211.5,698,cs),
(192.167,698,o),
(188,691,o),
(188,668,cs),
(188,566,o),
(68,127,o),
(68,67,cs),
(68,40,o),
(103,-1,o),
(116,-1,cs)
);
}
);
width = 310;
}
);
unicode = 73;
userData = {
com.typemytype.robofont.guides = (
{
angle = 90;
isGlobal = 0;
magnetic = 5;
x = 85;
y = 0;
},
{
angle = 90;
isGlobal = 0;
magnetic = 5;
x = 148;
y = 0;
}
);
};
},
{
color = 5;
glyphname = Iogonek;
layers = (
{
anchors = (
{
name = bottom;
pos = (137,0);
},
{
name = top;
pos = (224,700);
},
{
name = topleft;
pos = (150,700);
}
);
hints = (
{
horizontal = 1;
origin = (0,32);
type = Tag;
},
{
horizontal = 1;
origin = (0,2);
type = Tag;
}
);
layerId = "FF2DC345-5101-49B6-97F3-57A040F7C387";
shapes = (
{
closed = 1;
nodes = (
(82,0,o),
(133,4,o),
(147,58,cs),
(190,222,o),
(273,561,o),
(273,601,cs),
(273,648,o),
(231,698,o),
(212,698,cs),
(192,698,o),
(188,691,o),
(188,668,cs),
(188,567,o),
(70,136,o),
(68,69,c),
(12,57,o),
(-67,9,o),
(-67,-76,cs),
(-67,-163,o),
(-16,-220,o),
(73,-220,cs),
(111,-220,o),
(134,-214,o),
(134,-181,cs),
(134,-160,o),
(119,-151,o),
(105,-151,cs),
(91,-151,o),
(82,-157,o),
(67,-157,cs),
(24,-157,o),
(-1,-121,o),
(-1,-76,cs),
(-1,-30,o),
(24,0,o),
(76,0,cs)
);
}
);
width = 310;
}
);
unicode = 302;
},
{
color = 5;
glyphname = J;
kernLeft = J;
kernRight = U;
layers = (
{
anchors = (
{
name = bottom;
pos = (317,0);
},
{
name = top;
pos = (316,700);
}
);
hints = (
{
horizontal = 1;
place = (0, 0);
type = Tag;
}
);
layerId = "FF2DC345-5101-49B6-97F3-57A040F7C387";
shapes = (
{
closed = 1;
nodes = (
(246,-7,o),
(299,17,o),
(333,134,cs),
(430,468,o),
(497,645,o),
(497,670,cs),
(497,696,o),
(473,704,o),
(452,704,cs),
(385,704,o),
(145,650,o),
(145,600,cs),
(145,583,o),
(157,575,o),
(182,575,cs),
(213,575,o),
(332,609,o),
(401,620,c),
(339,485,o),
(303.058,289.965,o),
(245.5,144.5,cs),
(227.167,98.167,o),
(209,75,o),
(185,75,cs),
(111,75,o),
(50,174,o),
(26,174,cs),
(14,174,o),
(8,164,o),
(8,145,cs),
(8,92,o),
(106,-7,o),
(201.5,-7,cs)
);
}
);
width = 468;
}
);
unicode = 74;
userData = {
com.typemytype.robofont.guides = (
{
angle = 0;
isGlobal = 0;
magnetic = 5;
x = 0;
y = "-10";
},
{
angle = 0;
isGlobal = 0;
magnetic = 5;
x = 0;
y = 133;
},
{
angle = 0;
isGlobal = 0;
magnetic = 5;
x = 0;
y = 677;
},
{
angle = 90;
isGlobal = 0;
magnetic = 5;
x = 303;
y = 0;
},
{
angle = 90;
isGlobal = 0;
magnetic = 5;
x = 60;
y = 0;
},
{
angle = 90;
isGlobal = 0;
magnetic = 5;
x = 91;
y = 0;
}
);
};
},
{
color = 5;
glyphname = K;
kernLeft = I;
kernRight = K;
layers = (
{
anchors = (
{
name = bottom;
pos = (314,0);
},
{
name = top;
pos = (301,700);
}
);
layerId = "FF2DC345-5101-49B6-97F3-57A040F7C387";
shapes = (
{
closed = 1;
nodes = (
(118,0,o),
(124,35,o),
(146,106,cs),
(164,166,o),
(183,214,o),
(204,251,c),
(235,109,o),
(382,0,o),
(499,0,cs),
(525,0,o),
(538,9,o),
(538,26,cs),
(538,52,o),
(488,74,o),
(438,98,cs),
(336,147,o),
(272,230,o),
(272,320,c),
(355,438,o),
(584,628,o),
(584,656,cs),
(584,672,o),
(556,692,o),
(529,692,cs),
(505,692,o),
(376,587,o),
(209,359,c),
(243.667,490.333,o),
(261,569,o),
(261,596,cs),
(261,649,o),
(226,698,o),
(206.5,698,cs),
(187,698,o),
(184,690,o),
(184,666,cs),
(184,535,o),
(54,156,o),
(54,72.5,cs),
(54,39,o),
(80,0,o),
(104,0,cs)
);
}
);
width = 591;
}
);
unicode = 75;
userData = {
com.typemytype.robofont.guides = (
{
angle = 0;
isGlobal = 0;
magnetic = 5;
x = 0;
y = 365;
},
{
angle = 90;
isGlobal = 0;
magnetic = 5;
x = 547;
y = 0;
},
{
angle = 90;
isGlobal = 0;
magnetic = 5;
x = 94;
y = 0;
},
{
angle = 90;
isGlobal = 0;
magnetic = 5;
x = 139;
y = 0;
}
);
};
},
{
color = 5;
glyphname = L;
kernLeft = I;
kernRight = L;
layers = (
{
anchors = (
{
name = bottom;
pos = (248,0);
},
{
name = center;
pos = (281,350);
},
{
name = top;
pos = (173,700);
},
{
name = topright;
pos = (355,682);
}
);
layerId = "FF2DC345-5101-49B6-97F3-57A040F7C387";
shapes = (
{
closed = 1;
nodes = (
(322,-3,o),
(492,57,o),
(492,113,cs),
(492,125,o),
(488,130,o),
(477,130,cs),
(440,130,o),
(329,81,o),
(178,81,cs),
(161,81,o),
(152,90,o),
(152,108,cs),
(152,154,o),
(281,524,o),
(281,627,cs),
(281,664,o),
(242,705,o),
(222.5,705,cs),
(203,705,o),
(199,696,o),
(199,675,cs),
(199,539,o),
(62,178,o),
(62,91.5,cs),
(62,40,o),
(117,-3,o),
(181,-3,cs)
);
}
);
width = 546;
}
);
unicode = 76;
},
{
color = 4;
glyphname = Lslash;
layers = (
{
anchors = (
{
name = bottom;
pos = (248,0);
},
{
name = center;
pos = (281,350);
},
{
name = top;
pos = (173,700);
},
{
name = topright;
pos = (355,682);
}
);
layerId = "FF2DC345-5101-49B6-97F3-57A040F7C387";
shapes = (
{
closed = 1;
nodes = (
(322,-3,o),
(492,57,o),
(492,113,cs),
(492,125,o),
(488,130,o),
(477,130,cs),
(440,130,o),
(329,81,o),
(178,81,cs),
(161,81,o),
(152,90,o),
(152,108,cs),
(152,134,o),
(192,259,o),
(227,384,c),
(319,422,o),
(414,469,o),
(414,477,cs),
(414,494,o),
(399,507,o),
(369,507,cs),
(355,507,o),
(309,497,o),
(254,482,c),
(270,544,o),
(281,597,o),
(281,627,cs),
(281,664,o),
(242,705,o),
(223,705,cs),
(203,705,o),
(199,696,o),
(199,675,cs),
(199,624,o),
(180,541,o),
(156,453,c),
(79,428,o),
(12,399,o),
(12,379,cs),
(12,353,o),
(36,333,o),
(70,333,cs),
(82,333,o),
(101,338,o),
(125,345,c),
(93,234,o),
(62,132,o),
(62,92,cs),
(62,40,o),
(117,-3,o),
(181,-3,cs)
);
}
);
width = 546;
}
);
unicode = 321;
},
{
color = 5;
glyphname = M;
kernLeft = I;
kernRight = I;
layers = (
{
anchors = (
{
name = bottom;
pos = (397,0);
},
{
name = top;
pos = (457,700);
}
);
hints = (
{
horizontal = 1;
place = (0, 0);
type = Tag;
}
);
layerId = "FF2DC345-5101-49B6-97F3-57A040F7C387";
shapes = (
{
closed = 1;
nodes = (
(115,0,o),
(132,56,o),
(152,129,cs),
(175,210,o),
(215,343,o),
(238,485,c),
(278.667,355.667,o),
(325,208,o),
(382,208,cs),
(442,208,o),
(560.333,374.667,o),
(683,528,c),
(629.667,382.667,o),
(574,142,o),
(574,88.5,cs),
(574,38,o),
(593,0,o),
(613.5,0,cs),
(622,0,o),
(633,19,o),
(642,58,cs),
(683,240,o),
(783,553,o),
(783,629,cs),
(783,653,o),
(749,687,o),
(725,687,cs),
(681,687,o),
(549.252,487.083,o),
(399,310,c),
(340.333,435.333,o),
(288.333,575,o),
(283,623,cs),
(280.333,651,o),
(223,698,o),
(206.5,698,cs),
(190,698,o),
(185,691,o),
(185,668,cs),
(185,509,o),
(56,158,o),
(56,76,cs),
(56,44,o),
(88,0,o),
(104,0,cs)
);
}
);
width = 789;
}
);
unicode = 77;
userData = {
com.typemytype.robofont.guides = (
{
angle = 0;
isGlobal = 0;
magnetic = 5;
x = 0;
y = 168;
},
{
angle = 0;
isGlobal = 0;
magnetic = 5;
x = 0;
y = 9;
},
{
angle = 0;
isGlobal = 0;
magnetic = 5;
x = 0;
y = 691;
},
{
angle = 90;
isGlobal = 0;
magnetic = 5;
x = 126;
y = 0;
},
{
angle = 90;
isGlobal = 0;
magnetic = 5;
x = 636;
y = 0;
}
);
};
},
{
color = 5;
glyphname = N;
kernLeft = I;
kernRight = I;
layers = (
{
anchors = (
{
name = bottom;
pos = (280,0);
},
{
name = top;
pos = (417,700);
}
);
layerId = "FF2DC345-5101-49B6-97F3-57A040F7C387";
shapes = (
{
closed = 1;
nodes = (
(135,-3,o),
(165,221,o),
(239,486,c),
(361,203,o),
(404,-3,o),
(471,-3,cs),
(571,-3,o),
(645,543,o),
(645,632,cs),
(645,663,o),
(607.167,703,o),
(582.5,703,cs),
(570.167,703,o),
(562,689,o),
(562,660,cs),
(562,587,o),
(529,299,o),
(465,130,c),
(436.333,192.667,o),
(368.333,363.333,o),
(261,642,cs),
(249,671.333,o),
(216.667,701,o),
(202,701,cs),
(190.667,701,o),
(185,690,o),
(185,669,cs),
(185,562,o),
(53,125,o),
(53,68,cs),
(53,36,o),
(76,-3,o),
(99,-3,cs)
);
}
);
width = 677;
}
);
unicode = 78;
userData = {
com.typemytype.robofont.guides = (
{
angle = 0;
isGlobal = 0;
magnetic = 5;
x = 0;
y = 9;
},
{
angle = 0;
isGlobal = 0;
magnetic = 5;
x = 0;
y = 691;
},
{
angle = 90;
isGlobal = 0;
magnetic = 5;
x = 540;
y = 0;
},
{
angle = 90;
isGlobal = 0;
magnetic = 5;
x = 125;
y = 0;
}
);
};
},
{
color = 5;
glyphname = Eng;
layers = (
{
layerId = "FF2DC345-5101-49B6-97F3-57A040F7C387";
shapes = (
{
closed = 1;
nodes = (
(135,-3,o),
(165,221,o),
(239,486,c),
(324,290,o),
(423,32,o),
(423,0,cs),
(423,-36,o),
(396,-81,o),
(348,-81,cs),
(327,-81,o),
(310,-68,o),
(289,-68,cs),
(269,-68,o),
(255,-86,o),
(255,-109,cs),
(255,-132,o),
(272,-154,o),
(325,-154,cs),
(453,-154,o),
(507,-35,o),
(553,130,cs),
(595,280,o),
(645,559,o),
(645,632,cs),
(645,663,o),
(607.167,703,o),
(582.5,703,cs),
(570.167,703,o),
(562,689,o),
(562,660,cs),
(562,587,o),
(529,299,o),
(465,130,c),
(436.333,192.667,o),
(368.333,363.333,o),
(261,642,cs),
(249,671.333,o),
(216.667,701,o),
(202,701,cs),
(190.667,701,o),
(185,690,o),
(185,669,cs),
(185,562,o),
(53,125,o),
(53,68,cs),
(53,36,o),
(76,-3,o),
(99,-3,cs)
);
}
);
width = 677;
}
);
unicode = 330;
},
{
color = 5;
glyphname = O;
kernLeft = O;
kernRight = O;
layers = (
{
anchors = (
{
name = bottom;
pos = (339,0);
},
{
name = center;
pos = (339,350);
},
{
name = ogonek;
pos = (272,68);
},
{
name = top;
pos = (419,700);
},
{
name = topleft;
pos = (270,700);
},
{
name = topright;
pos = (537,700);
}
);
layerId = "FF2DC345-5101-49B6-97F3-57A040F7C387";
shapes = (
{
closed = 1;
nodes = (
(409,-3,o),
(592,263,o),
(592,453,cs),
(592,581,o),
(508,702,o),
(396,702,cs),
(247,702,o),
(54,434,o),
(54,194,cs),
(54,105,o),
(131,-3,o),
(219,-3,cs)
);
},
{
closed = 1;
nodes = (
(182,76,o),
(145,127,o),
(145,200,cs),
(145,357,o),
(299,617,o),
(401,617,cs),
(454,617,o),
(500,547,o),
(500,444,cs),
(500,296,o),
(335,76,o),
(225,76,cs)
);
}
);
width = 613;
}
);
unicode = 79;
userData = {
com.typemytype.robofont.guides = (
{
angle = 0;
isGlobal = 0;
magnetic = 5;
x = 0;
y = "-10";
},
{
angle = 0;
isGlobal = 0;
magnetic = 5;
x = 0;
y = 710;
},
{
angle = 0;
isGlobal = 0;
magnetic = 5;
x = 0;
y = 335;
},
{
angle = 0;
isGlobal = 0;
magnetic = 5;
x = 0;
y = 434;
},
{
angle = 0;
isGlobal = 0;
magnetic = 5;
x = 0;
y = 266;
},
{
angle = 90;
isGlobal = 0;
magnetic = 5;
x = 496;
y = 0;
}
);
};
},
{
color = 4;
glyphname = Oslash;
kernLeft = O;
kernRight = O;
layers = (
{
anchors = (
{
name = bottom;
pos = (339,0);
},
{
name = top;
pos = (339,700);
}
);
layerId = "FF2DC345-5101-49B6-97F3-57A040F7C387";
shapes = (
{
closed = 1;
nodes = (
(187,-3,o),
(151.667,14,o),
(119,48,c),
(92,16,o),
(74,-5,o),
(62,-5,cs),
(48,-5,o),
(36,7,o),
(36,21,cs),
(36,37,o),
(53,60,o),
(81,99,c),
(63,131.667,o),
(54,163,o),
(54,194,cs),
(54,410,o),
(227,702,o),
(396,702,cs),
(447,702,o),
(489,681.333,o),
(527,640,c),
(562.333,676.667,o),
(587,695,o),
(600,695,cs),
(616,695,o),
(624,687,o),
(624,670.5,cs),
(624,654,o),
(609.667,630.333,o),
(566,582,c),
(586,543,o),
(597,500,o),
(597,456,cs),
(597,242,o),
(397,-3,o),
(225,-3,cs)
);
},
{
closed = 1;
nodes = (
(469,575,l),
(449,603,o),
(428,617,o),
(401,617,cs),
(305,617,o),
(145,367,o),
(145,200,cs),
(145,191,o),
(145,185,o),
(146,181,c)
);
},
{
closed = 1;
nodes = (
(343,76,o),
(505,301,o),
(505,438,cs),
(505,461,o),
(502.667,483,o),
(498,505,c),
(387,378,o),
(278,247,o),
(171,112,c),
(187.667,88,o),
(207,76,o),
(230,76,cs)
);
}
);
width = 613;
}
);
unicode = 216;
userData = {
com.typemytype.robofont.guides = (
{
angle = 0;
isGlobal = 0;
magnetic = 5;
x = 0;
y = 145;
},
{
angle = 90;
isGlobal = 0;
magnetic = 5;
x = 351;
y = 0;
},
{
angle = 90;
isGlobal = 0;
magnetic = 5;
x = 679;
y = 0;
},
{
angle = 90;
isGlobal = 0;
magnetic = 5;
x = 85;
y = 0;
},
{
angle = 90;
isGlobal = 0;
magnetic = 5;
x = 20;
y = 0;
}
);
};
},
{
color = 5;
glyphname = OE;
kernLeft = O;
kernRight = E;
layers = (
{
anchors = (
{
name = bottom;
pos = (460,0);
},
{
name = top;
pos = (460,700);
}
);
hints = (
{
horizontal = 1;
place = (0, 0);
type = Tag;
}
);
layerId = "FF2DC345-5101-49B6-97F3-57A040F7C387";
shapes = (
{
closed = 1;
nodes = (
(673,-5,o),
(858,59,o),
(858,107,cs),
(858,121,o),
(853,128,o),
(844,128,cs),
(810,128,o),
(707,79,o),
(538,79,cs),
(519,79,o),
(510,90,o),
(510,111,cs),
(510,142,o),
(545.667,250.333,o),
(565,313,c),
(626,313,o),
(837,319,o),
(837,382,cs),
(837,393,o),
(822,397,o),
(799,397,cs),
(758,397,o),
(691,385,o),
(638,385,cs),
(623,385,o),
(603,385,o),
(587,387,c),
(611.667,478.333,o),
(624,546.667,o),
(624,595,c),
(771,619,o),
(895,629,o),
(918,634,cs),
(947,639,o),
(961,648,o),
(961,661,cs),
(961,680,o),
(896,690,o),
(765.5,690,cs),
(560,690,o),
(538,671,o),
(538,623,c),
(499,676,o),
(451,702,o),
(396,702,cs),
(223,702,o),
(54,408,o),
(54,194,cs),
(54,105,o),
(131,-3,o),
(219,-3,cs),
(285.667,-3,o),
(355,32,o),
(419,89,c),
(419,32,o),
(473,-5,o),
(534,-5,cs)
);
},
{
closed = 1;
nodes = (
(182,76,o),
(145,127,o),
(145,200,cs),
(145,364,o),
(296,617,o),
(401,617,cs),
(454,617,o),
(500,549,o),
(500,438,cs),
(500,309,o),
(342,76,o),
(225,76,cs)
);
}
);
width = 940;
}
);
unicode = 338;
userData = {
com.typemytype.robofont.guides = (
{
angle = 90;
isGlobal = 0;
magnetic = 5;
x = 842;
y = 0;
},
{
angle = 90;
isGlobal = 0;
magnetic = 5;
x = 66;
y = 0;
},
{
angle = 90;
isGlobal = 0;
magnetic = 5;
x = 439;
y = 0;
},
{
angle = 90;
isGlobal = 0;
magnetic = 5;
x = 502;
y = 0;
}
);
};
},
{
color = 5;
glyphname = P;
kernLeft = I;
layers = (
{
anchors = (
{
name = bottom;
pos = (321,0);
},
{
name = top;
pos = (321,700);
}
);
hints = (
{
horizontal = 1;
place = (0, 0);
type = Tag;
}
);
layerId = "FF2DC345-5101-49B6-97F3-57A040F7C387";
shapes = (
{
closed = 1;
nodes = (
(104,-5,o),
(133.333,77.333,o),
(182,242,c),
(408.667,286,o),
(559,389,o),
(559,533,cs),
(559,638,o),
(468,710,o),
(340,710,cs),
(257,710,o),
(142,672,o),
(142,639,cs),
(142,627,o),
(150,613.667,o),
(166,599,c),
(163,433,o),
(43,126,o),
(43,62.5,cs),
(43,32,o),
(76,-5,o),
(95,-5,cs)
);
},
{
closed = 1;
nodes = (
(236.667,440.667,o),
(253,520,o),
(253,557,cs),
(253,570,o),
(249.667,583.333,o),
(243,598,c),
(289,619,o),
(318,628,o),
(362,628,cs),
(419,628,o),
(471,586,o),
(471,527,cs),
(471,444,o),
(364,362.667,o),
(204,320,c)
);
}
);
width = 543;
}
);
unicode = 80;
userData = {
com.typemytype.robofont.guides = (
{
angle = 0;
isGlobal = 0;
magnetic = 5;
x = 0;
y = 493;
},
{
angle = 0;
isGlobal = 0;
magnetic = 5;
x = 0;
y = 403;
},
{
angle = 0;
isGlobal = 0;
magnetic = 5;
x = 0;
y = 218;
},
{
angle = 0;
isGlobal = 0;
magnetic = 5;
x = 0;
y = 310;
},
{
angle = 0;
isGlobal = 0;
magnetic = 5;
x = 0;
y = 9;
},
{
angle = 0;
isGlobal = 0;
magnetic = 5;
x = 0;
y = 691;
},
{
angle = 90;
isGlobal = 0;
magnetic = 5;
x = 345;
y = 0;
},
{
angle = 90;
isGlobal = 0;
magnetic = 5;
x = 94;
y = 0;
},
{
angle = 90;
isGlobal = 0;
magnetic = 5;
x = 139;
y = 0;
}
);
};
},
{
color = 5;
glyphname = Thorn;
kernLeft = I;
layers = (
{
anchors = (
{
name = bottom;
pos = (234,0);
},
{
name = top;
pos = (314,700);
}
);
hints = (
{
horizontal = 1;
place = (0, 0);
type = Tag;
}
);
layerId = "FF2DC345-5101-49B6-97F3-57A040F7C387";
shapes = (
{
closed = 1;
nodes = (
(115,-5,o),
(136,69.333,o),
(162,164,c),
(309,164,o),
(471,233,o),
(471,366,cs),
(471,442,o),
(381,528,o),
(301,528,cs),
(285,528,o),
(266.333,525.333,o),
(245,520,c),
(249,542.667,o),
(251,560,o),
(251,572,cs),
(251,623,o),
(205,661,o),
(183.5,661,cs),
(162,661,o),
(158,653,o),
(158,630,cs),
(158,441,o),
(51,116,o),
(51,61,cs),
(51,33,o),
(78,-5,o),
(98,-5,cs)
);
},
{
closed = 1;
nodes = (
(226,422,l),
(249,432,o),
(273,438,o),
(296,438,cs),
(346,438,o),
(387,407,o),
(387,365,cs),
(387,285,o),
(270,243,o),
(182,243,c)
);
}
);
width = 503;
}
);
unicode = 222;
userData = {
com.typemytype.robofont.guides = (
{
angle = 0;
isGlobal = 0;
magnetic = 5;
x = 0;
y = 119;
},
{
angle = 0;
isGlobal = 0;
magnetic = 5;
x = 0;
y = 601;
},
{
angle = 0;
isGlobal = 0;
magnetic = 5;
x = 0;
y = 570;
},
{
angle = 0;
isGlobal = 0;
magnetic = 5;
x = 0;
y = 350;
}
);
};
},
{
color = 5;
glyphname = Q;
kernLeft = O;
kernRight = O;
layers = (
{
anchors = (
{
name = bottom;
pos = (339,0);
},
{
name = top;
pos = (409,700);
}
);
hints = (
{
horizontal = 1;
place = (0, 0);
type = Tag;
}
);
layerId = "FF2DC345-5101-49B6-97F3-57A040F7C387";
shapes = (
{
closed = 1;
nodes = (
(496.667,-159,o),
(505,-151.333,o),
(505,-136,cs),
(505,-105.257,o),
(466.939,-27.688,o),
(429,78,c),
(533,170,o),
(607,324.167,o),
(607,451.5,cs),
(607,578.833,o),
(508,699,o),
(396,699,cs),
(215,699,o),
(57,395,o),
(57,194,cs),
(57,95,o),
(151.667,0,o),
(237,0,cs),
(279.667,0,o),
(321.333,10.667,o),
(362,32,c),
(410.667,-95.333,o),
(450,-159,o),
(480,-159,cs)
);
},
{
closed = 1;
nodes = (
(195,76,o),
(145,134,o),
(145,201,cs),
(145,310,o),
(198,437,o),
(270,525,c),
(265.333,505.667,o),
(263,483,o),
(263,457,cs),
(263,374.333,o),
(286.667,259,o),
(334,111,c),
(304,89,o),
(278,76,o),
(254,76,cs)
);
},
{
closed = 1;
nodes = (
(362.667,289,o),
(345,402.333,o),
(345,511,cs),
(345,554.333,o),
(352.667,586.667,o),
(368,608,c),
(380.667,613.333,o),
(392.333,616,o),
(403,616,cs),
(457.667,616,o),
(516,543.667,o),
(516,449,cs),
(516,354.333,o),
(466,251,o),
(398,171,c)
);
}
);
width = 641;
}
);
unicode = 81;
userData = {
com.typemytype.robofont.guides = (
{
angle = 0;
isGlobal = 0;
magnetic = 5;
x = 0;
y = 710;
},
{
angle = 0;
isGlobal = 0;
magnetic = 5;
x = 0;
y = "-10";
},
{
angle = 0;
isGlobal = 0;
magnetic = 5;
x = 0;
y = "-56";
},
{
angle = 90;
isGlobal = 0;
magnetic = 5;
x = 82;
y = 0;
},
{
angle = 90;
isGlobal = 0;
magnetic = 5;
x = 750;
y = 0;
},
{
angle = 90;
isGlobal = 0;
magnetic = 5;
x = 580;
y = 0;
}
);
};
},
{
color = 5;
glyphname = R;
kernLeft = I;
kernRight = R;
layers = (
{
anchors = (
{
name = bottom;
pos = (262,0);
},
{
name = top;
pos = (387,700);
}
);
layerId = "FF2DC345-5101-49B6-97F3-57A040F7C387";
shapes = (
{
closed = 1;
nodes = (
(118,-4,o),
(163,175,o),
(194,279,c),
(227.333,181.667,o),
(421,-3,o),
(501,-3,cs),
(523,-3,o),
(534,5,o),
(534,21,cs),
(534,40,o),
(520,54,o),
(407,147.5,cs),
(294,241,o),
(289,269,o),
(289,284,cs),
(289,298,o),
(316,302,o),
(460,389,cs),
(514,422,o),
(554,485,o),
(554,550,cs),
(554,646,o),
(460,701,o),
(350.5,701,cs),
(240,701,o),
(132,659,o),
(132,629,cs),
(132,612,o),
(147.667,584.667,o),
(165,574,c),
(149.918,383.585,o),
(47,127,o),
(47,62.5,cs),
(47,33,o),
(80,-4,o),
(93,-4,cs)
);
},
{
closed = 1;
nodes = (
(237,432,o),
(251,504,o),
(251,547,cs),
(251,559,o),
(247.667,572.333,o),
(241,587,c),
(284.333,603.667,o),
(322,612,o),
(355,612,cs),
(427,612,o),
(463,591,o),
(463,550,cs),
(463,438,o),
(292,395,o),
(209,332,c)
);
}
);
width = 584;
}
);
unicode = 82;
userData = {
com.typemytype.robofont.guides = (
{
angle = 0;
isGlobal = 0;
magnetic = 5;
x = 0;
y = 691;
},
{
angle = 0;
isGlobal = 0;
magnetic = 5;
x = 0;
y = 9;
},
{
angle = 90;
isGlobal = 0;
magnetic = 5;
x = 616;
y = 0;
},
{
angle = 90;
isGlobal = 0;
magnetic = 5;
x = 574;
y = 0;
},
{
angle = 90;
isGlobal = 0;
magnetic = 5;
x = 94;
y = 0;
},
{
angle = 90;
isGlobal = 0;
magnetic = 5;
x = 139;
y = 0;
}
);
};
},
{
color = 5;
glyphname = S;
kernLeft = S;
kernRight = S;
layers = (
{
anchors = (
{
name = bottom;
pos = (222,0);
},
{
name = top;
pos = (382,700);
}
);
layerId = "FF2DC345-5101-49B6-97F3-57A040F7C387";
shapes = (
{
closed = 1;
nodes = (
(352,1,o),
(468,85,o),
(468,194,cs),
(468,327,o),
(233,457,o),
(233,509,cs),
(233,536,o),
(271,557,o),
(348,586,cs),
(421,615,o),
(508,616,o),
(508,640,cs),
(508,668,o),
(478,699,o),
(439,699,cs),
(318,699,o),
(147,609,o),
(147,490,cs),
(147,412,o),
(378,273,o),
(378,193,cs),
(378,137,o),
(292,79,o),
(199,79,cs),
(104,79,o),
(57,174,o),
(23,174,cs),
(11,174,o),
(5,164,o),
(5,144,cs),
(5,85,o),
(97,1,o),
(224.5,1,cs)
);
}
);
width = 531;
}
);
unicode = 83;
userData = {
com.typemytype.robofont.guides = (
{
angle = 0;
isGlobal = 0;
magnetic = 5;
x = 0;
y = 355;
},
{
angle = 90;
isGlobal = 0;
magnetic = 5;
x = 306;
y = 0;
}
);
};
},
{
color = 5;
glyphname = Scedilla;
layers = (
{
layerId = "FF2DC345-5101-49B6-97F3-57A040F7C387";
shapes = (
{
closed = 1;
nodes = (
(310,-220,o),
(343,-181,o),
(343,-132,cs),
(343,-83,o),
(311,-48,o),
(266,-48,cs),
(253,-48,o),
(237,-51,o),
(229,-56,c),
(248,0,l),
(362,13,o),
(468,95,o),
(468,194,cs),
(468,327,o),
(233,457,o),
(233,509,cs),
(233,536,o),
(271,557,o),
(348,586,cs),
(421,615,o),
(508,616,o),
(508,640,cs),
(508,668,o),
(478,699,o),
(439,699,cs),
(318,699,o),
(147,609,o),
(147,490,cs),
(147,412,o),
(378,273,o),
(378,193,cs),
(378,137,o),
(292,79,o),
(199,79,cs),
(104,79,o),
(57,174,o),
(23,174,cs),
(11,174,o),
(5,164,o),
(5,144,cs),
(5,89,o),
(85,12,o),
(200,2,c),
(183,-33,ls),
(178,-44,o),
(170,-65,o),
(170,-75,cs),
(170,-88,o),
(187,-108,o),
(199,-108,cs),
(214,-108,o),
(223,-98,o),
(248,-98,cs),
(270,-98,o),
(288,-111,o),
(288,-133,cs),
(288,-156,o),
(270,-172,o),
(248,-172,cs),
(217,-172,o),
(210,-150,o),
(193,-150,cs),
(177,-150,o),
(160,-157,o),
(160,-176,cs),
(160,-200,o),
(176,-220,o),
(248,-220,cs)
);
}
);
width = 531;
}
);
unicode = 350;
},
{
color = 5;
glyphname = Germandbls;
layers = (
{
layerId = "FF2DC345-5101-49B6-97F3-57A040F7C387";
shapes = (
{
closed = 1;
nodes = (
(122,0,o),
(151,20,o),
(151,71,cs),
(151,136,o),
(143,335,o),
(143,490,cs),
(143,596,o),
(185,612,o),
(361,612,cs),
(426,612,o),
(481,591,o),
(481,542,cs),
(481,471,o),
(361,432,o),
(291,395,cs),
(267,383,o),
(244,371,o),
(243,353,cs),
(242,330,o),
(258,309,o),
(290,309,cs),
(382,309,o),
(488,278,o),
(488,198,cs),
(488,125,o),
(467,76,o),
(287,76,cs),
(261,76,o),
(248,58,o),
(248,42,cs),
(248,20,o),
(269,-3,o),
(308,-3,cs),
(475,-3,o),
(575,51,o),
(575,194,cs),
(575,289,o),
(493,352,o),
(373,359,c),
(502.333,399,o),
(571,467,o),
(571,547,cs),
(571,643,o),
(466,695,o),
(279,695,cs),
(158,695,o),
(69,662,o),
(69,490,cs),
(69,184,o),
(45,122,o),
(45,68,cs),
(45,27,o),
(60,0,o),
(94,0,cs)
);
}
);
width = 637;
}
);
unicode = 7838;
},
{
color = 5;
glyphname = T;
kernLeft = T;
kernRight = T;
layers = (
{
anchors = (
{
name = bottom;
pos = (170,0);
},
{
name = center;
pos = (290,350);
},
{
name = top;
pos = (290,700);
}
);
hints = (
{
horizontal = 1;
place = (0, 0);
type = Tag;
}
);
layerId = "FF2DC345-5101-49B6-97F3-57A040F7C387";
shapes = (
{
closed = 1;
nodes = (
(226,-1,o),
(234.667,16.667,o),
(244,52,cs),
(250,71,o),
(349,496,o),
(367,613,c),
(443.646,611.581,o),
(519,603,o),
(572,604,cs),
(594,604,o),
(605,610,o),
(605,623,cs),
(605,678,o),
(430,694,o),
(373,694,cs),
(73,694,o),
(63,683,o),
(63,666,cs),
(63,639,o),
(92,604,o),
(113,604,cs),
(158,604,o),
(219,611,o),
(284,612,c),
(266,417,o),
(167,153,o),
(167,67,cs),
(167,36,o),
(199,-1,o),
(219,-1,cs)
);
}
);
width = 535;
}
);
unicode = 84;
userData = {
com.typemytype.robofont.guides = (
{
angle = 0;
isGlobal = 0;
magnetic = 5;
x = 0;
y = 495;
},
{
angle = 0;
isGlobal = 0;
magnetic = 5;
x = 0;
y = 9;
},
{
angle = 0;
isGlobal = 0;
magnetic = 5;
x = 0;
y = 691;
},
{
angle = 0;
isGlobal = 0;
magnetic = 5;
x = 0;
y = 649;
},
{
angle = 90;
isGlobal = 0;
magnetic = 5;
x = 279;
y = 0;
},
{
angle = 90;
isGlobal = 0;
magnetic = 5;
x = 324;
y = 0;
},
{
angle = 90;
isGlobal = 0;
magnetic = 5;
x = 59;
y = 0;
},
{
angle = 90;
isGlobal = 0;
magnetic = 5;
x = 544;
y = 0;
}
);
};
},
{
color = 5;
glyphname = U;
kernLeft = U;
kernRight = U;
layers = (
{
anchors = (
{
name = bottom;
pos = (271,0);
},
{
name = ogonek;
pos = (301,62);
},
{
name = top;
pos = (361,700);
},
{
name = topright;
pos = (581,700);
}
);
layerId = "FF2DC345-5101-49B6-97F3-57A040F7C387";
shapes = (
{
closed = 1;
nodes = (
(462,-9,o),
(569,331,o),
(569,576,cs),
(569,648,o),
(516.667,699,o),
(486,699,cs),
(474,699,o),
(468,692,o),
(468,678,cs),
(468,641,o),
(477,610,o),
(477,542,cs),
(477,372,o),
(380,76,o),
(248,76,cs),
(204,76,o),
(173,127,o),
(173,202.5,cs),
(173,298,o),
(254,543,o),
(254,610.5,cs),
(254,658,o),
(211,699,o),
(191.5,699,cs),
(172,699,o),
(169,692,o),
(169,669,cs),
(169,543,o),
(85,345.916,o),
(85,192,cs),
(85,86.667,o),
(157,-9,o),
(241,-9,cs)
);
}
);
width = 598;
}
);
unicode = 85;
userData = {
com.typemytype.robofont.guides = (
{
angle = 0;
isGlobal = 0;
magnetic = 5;
x = 0;
y = 267;
},
{
angle = 90;
isGlobal = 0;
magnetic = 5;
x = 333;
y = 0;
},
{
angle = 90;
isGlobal = 0;
magnetic = 5;
x = 535;
y = 0;
},
{
angle = 90;
isGlobal = 0;
magnetic = 5;
x = 580;
y = 0;
},
{
angle = 90;
isGlobal = 0;
magnetic = 5;
x = 84;
y = 0;
},
{
angle = 90;
isGlobal = 0;
magnetic = 5;
x = 129;
y = 0;
}
);
};
},
{
color = 5;
glyphname = Uogonek;
layers = (
{
layerId = "FF2DC345-5101-49B6-97F3-57A040F7C387";
shapes = (
{
closed = 1;
nodes = (
(281,-227,o),
(301,-217,o),
(301,-191,cs),
(301,-177,o),
(291,-158,o),
(278,-158,cs),
(270,-158,o),
(262,-161,o),
(254,-162,cs),
(211,-169,o),
(177,-128,o),
(177,-96,cs),
(177,-46,o),
(212,-9,o),
(246,-9,cs),
(474,-9,o),
(569,351,o),
(569,576,cs),
(569,648,o),
(517,699,o),
(486,699,cs),
(474,699,o),
(468,692,o),
(468,678,cs),
(468,641,o),
(477,610,o),
(477,542,cs),
(477,372,o),
(380,76,o),
(248,76,cs),
(204,76,o),
(173,127,o),
(173,203,cs),
(173,298,o),
(254,543,o),
(254,611,cs),
(254,658,o),
(211,699,o),
(192,699,cs),
(172,699,o),
(169,692,o),
(169,669,cs),
(169,543,o),
(85,346,o),
(85,192,cs),
(85,113,o),
(125,40,o),
(181,8,c),
(141,-10,o),
(120,-44,o),
(120,-96,cs),
(120,-170,o),
(171,-227,o),
(260,-227,cs)
);
}
);
width = 598;
}
);
unicode = 370;
},
{
color = 5;
glyphname = V;
layers = (
{
anchors = (
{
name = bottom;
pos = (327,0);
},
{
name = top;
pos = (327,700);
}
);
hints = (
{
horizontal = 1;
place = (0, 0);
type = Tag;
}
);
layerId = "FF2DC345-5101-49B6-97F3-57A040F7C387";
shapes = (
{
closed = 1;
nodes = (
(257,-7,o),
(278,10,o),
(296,54,cs),
(417,343,o),
(593,623,o),
(593,658.5,cs),
(593,680,o),
(566,698,o),
(545,698,cs),
(524,698,o),
(430,599,o),
(247,127,c),
(227,203,o),
(174,602,o),
(164,622,cs),
(143,665,o),
(114,698,o),
(86,698,cs),
(75,698,o),
(69,688,o),
(69,667,cs),
(69,591,o),
(151,146.333,o),
(187,57,cs),
(200.333,23.667,o),
(227,-7,o),
(243,-7,cs)
);
}
);
width = 532;
}
);
unicode = 86;
userData = {
com.typemytype.robofont.guides = (
{
angle = 0;
isGlobal = 0;
magnetic = 5;
x = 0;
y = 24;
}
);
};
},
{
color = 5;
glyphname = W;
kernLeft = W;
kernRight = W;
layers = (
{
anchors = (
{
name = bottom;
pos = (400,0);
},
{
name = top;
pos = (400,700);
}
);
layerId = "FF2DC345-5101-49B6-97F3-57A040F7C387";
shapes = (
{
closed = 1;
nodes = (
(188,-1,o),
(344,238,o),
(372,277,c),
(379,171,o),
(396,0,o),
(505,0,cs),
(626,0,o),
(735,184,o),
(735,372,cs),
(735,560,o),
(654,699,o),
(498,699,cs),
(466,699,o),
(450,689.333,o),
(450,670,cs),
(450,647.333,o),
(485.833,607,o),
(530.5,607,cs),
(608,607,o),
(646,474,o),
(646,384,cs),
(646,237.333,o),
(581.667,93,o),
(507,93,cs),
(473.667,93,o),
(454.667,168.333,o),
(448,243,cs),
(439.333,343,o),
(423.667,393,o),
(401,393,cs),
(357,393,o),
(235.333,252.333,o),
(154,115,c),
(159.333,187,o),
(229,597,o),
(229,624.5,cs),
(229,654,o),
(177,698,o),
(148,698,cs),
(133,698,o),
(126,686,o),
(126,661,cs),
(126,454,o),
(72,222,o),
(72,90.5,cs),
(72,37,o),
(108.667,-1,o),
(130,-1,cs)
);
}
);
width = 782;
}
);
unicode = 87;
userData = {
com.typemytype.robofont.guides = (
{
angle = 0;
isGlobal = 0;
magnetic = 5;
x = 0;
y = 545;
},
{
angle = 0;
isGlobal = 0;
magnetic = 5;
x = 0;
y = 670;
},
{
angle = 0;
isGlobal = 0;
magnetic = 5;
x = 0;
y = 24;
}
);
};
},
{
color = 5;
glyphname = X;
layers = (
{
anchors = (
{
name = bottom;
pos = (307,0);
},
{
name = top;
pos = (327,700);
}
);
hints = (
{
horizontal = 1;
place = (0, 0);
type = Tag;
}
);
layerId = "FF2DC345-5101-49B6-97F3-57A040F7C387";
shapes = (
{
closed = 1;
nodes = (
(519,-1,o),
(532,11,o),
(532,32,cs),
(532,75,o),
(438.932,190.111,o),
(358,322,c),
(478,476.667,o),
(550.333,566,o),
(575,590,cs),
(602.744,617.744,o),
(626,621,o),
(626,642.5,cs),
(626,656,o),
(590,695,o),
(574,695,cs),
(555,695,o),
(530.5,678.333,o),
(499.5,645,cs),
(468.5,611.667,o),
(406,530,o),
(312,400,c),
(252,506,o),
(222,590,o),
(222,651,cs),
(222,676,o),
(175,699,o),
(136,699,cs),
(127,699,o),
(122,690,o),
(122,672,cs),
(122,603,o),
(167,488,o),
(257,326,c),
(172.333,215.333,o),
(103,130.667,o),
(49,72,cs),
(29.995,52.995,o),
(25,47,o),
(25,34,cs),
(25,20,o),
(55,0,o),
(72,0,cs),
(110,0,o),
(150,55,o),
(173.5,82.5,cs),
(186.17,97.583,o),
(266.333,203,o),
(301,249,c),
(344.333,177.667,o),
(385.167,118.167,o),
(423.5,70.5,cs),
(461.833,22.833,o),
(489,-1,o),
(506,-1,cs)
);
}
);
width = 624;
}
);
unicode = 88;
userData = {
com.typemytype.robofont.guides = (
{
angle = 0;
isGlobal = 0;
magnetic = 5;
x = 0;
y = 350;
},
{
angle = 90;
isGlobal = 0;
magnetic = 5;
x = 28;
y = 0;
},
{
angle = 90;
isGlobal = 0;
magnetic = 5;
x = 580;
y = 0;
}
);
};
},
{
color = 5;
glyphname = Y;
kernLeft = Y;
kernRight = Y;
layers = (
{
anchors = (
{
name = bottom;
pos = (323,0);
},
{
name = top;
pos = (323,700);
},
{
name = topleft;
pos = (20,700);
}
);
layerId = "FF2DC345-5101-49B6-97F3-57A040F7C387";
shapes = (
{
closed = 1;
nodes = (
(231,-11,o),
(255,12,o),
(282,64,cs),
(361,215,o),
(470,398,o),
(569,561,cs),
(594,603,o),
(607,629,o),
(607,649,cs),
(607,671,o),
(589,696,o),
(560,696,cs),
(506,696,o),
(373,353,o),
(324,353,cs),
(277,353,o),
(207,467,o),
(181,576,cs),
(157,676,o),
(149,696,o),
(132,696,cs),
(106,696,o),
(92,669,o),
(92,645,cs),
(92,494,o),
(169,309,o),
(302,275,c),
(293.668,259.724,o),
(235,143,o),
(218,110,cs),
(199.333,72,o),
(190,44,o),
(190,25,cs),
(190,1,o),
(197,-11,o),
(212,-11,cs)
);
}
);
width = 575;
}
);
unicode = 89;
userData = {
com.typemytype.robofont.guides = (
{
angle = 90;
isGlobal = 0;
magnetic = 5;
x = 310;
y = 0;
}
);
};
},
{
color = 5;
glyphname = Z;
kernLeft = Z;
kernRight = Z;
layers = (
{
anchors = (
{
name = bottom;
pos = (301,0);
},
{
name = center;
pos = (301,350);
},
{
name = top;
pos = (371,700);
}
);
layerId = "FF2DC345-5101-49B6-97F3-57A040F7C387";
shapes = (
{
closed = 1;
nodes = (
(385,0,o),
(537,73,o),
(537,96,cs),
(537,112,o),
(525,120,o),
(502,120,cs),
(471,120,o),
(268,87,o),
(183,87,cs),
(167,87,o),
(157,97,o),
(157,113,cs),
(157,142,o),
(295.046,245.687,o),
(419.5,355.5,cs),
(498.833,425.5,o),
(562,504.333,o),
(562,547,cs),
(562,586,o),
(530,622,o),
(503,641,cs),
(464,669,o),
(360,690,o),
(271,690,cs),
(235,690,o),
(124,682,o),
(124,653,cs),
(124,627.667,o),
(159,588,o),
(188,588,cs),
(204,588,o),
(271,603,o),
(337,603,cs),
(409,603,o),
(479,588,o),
(479,559,cs),
(479,530.333,o),
(429.333,475,o),
(330,393,cs),
(268,341,o),
(59,183,o),
(59,103.5,cs),
(59,59,o),
(109,0,o),
(160,0,cs)
);
}
);
width = 620;
}
);
unicode = 90;
userData = {
com.typemytype.robofont.guides = (
{
angle = 0;
isGlobal = 0;
magnetic = 5;
x = 0;
y = 51;
},
{
angle = 0;
isGlobal = 0;
magnetic = 5;
x = 0;
y = 9;
},
{
angle = 0;
isGlobal = 0;
magnetic = 5;
x = 0;
y = 691;
},
{
angle = 0;
isGlobal = 0;
magnetic = 5;
x = 0;
y = 649;
},
{
angle = 90;
isGlobal = 0;
magnetic = 5;
x = 189;
y = 0;
},
{
angle = 90;
isGlobal = 0;
magnetic = 5;
x = 815;
y = 0;
},
{
angle = 90;
isGlobal = 0;
magnetic = 5;
x = 732;
y = 0;
},
{
angle = 90;
isGlobal = 0;
magnetic = 5;
x = "-431";
y = 0;
},
{
angle = 90;
isGlobal = 0;
magnetic = 5;
x = 74;
y = 0;
},
{
angle = 90;
isGlobal = 0;
magnetic = 5;
x = 541;
y = 0;
}
);
};
},
{
color = 5;
glyphname = a;
kernLeft = a;
kernRight = a;
layers = (
{
anchors = (
{
name = bottom;
pos = (236,0);
},
{
name = top;
pos = (310,490);
}
);
hints = (
{
horizontal = 1;
place = (0, 0);
type = Tag;
},
{
horizontal = 1;
place = (0, 0);
type = Tag;
}
);
layerId = "FF2DC345-5101-49B6-97F3-57A040F7C387";
shapes = (
{
closed = 1;
nodes = (
(193,-5,o),
(247.667,32.667,o),
(307,108,c),
(308,75,o),
(317,-5,o),
(350,-5,cs),
(359,-5,o),
(366,4,o),
(368,20,cs),
(384,136,o),
(405,213,o),
(405,263,cs),
(405,270,o),
(401,279,o),
(393,289,c),
(411,316,o),
(418,341,o),
(418,366,cs),
(418,391,o),
(404,417,o),
(380,445.5,cs),
(354.667,475.833,o),
(327,491,o),
(297,491,cs),
(186,491,o),
(7,264,o),
(7,116,cs),
(7,60,o),
(81,-5,o),
(142,-5,cs)
);
},
{
closed = 1;
nodes = (
(113,78,o),
(91,93,o),
(91,116,cs),
(91,203,o),
(224,408,o),
(306,408,cs),
(331,408,o),
(343,377,o),
(343,315,c),
(334,312,o),
(328,306,o),
(326,296,cs),
(295.333,174.667,o),
(201,78,o),
(138,78,cs)
);
}
);
width = 469;
}
);
unicode = 97;
},
{
color = 5;
glyphname = aogonek;
layers = (
{
anchors = (
{
name = bottom;
pos = (236,0);
},
{
name = top;
pos = (310,490);
}
);
hints = (
{
horizontal = 1;
origin = (0,23);
type = Tag;
},
{
horizontal = 1;
origin = (0,29);
type = Tag;
},
{
horizontal = 1;
place = (0, 0);
type = Tag;
},
{
horizontal = 1;
place = (0, 0);
type = Tag;
}
);
layerId = "FF2DC345-5101-49B6-97F3-57A040F7C387";
shapes = (
{
closed = 1;
nodes = (
(193,-5,o),
(248,33,o),
(307,108,c),
(308,91,o),
(310,60,o),
(318,35,c),
(265,21,o),
(183,-34,o),
(183,-126,cs),
(183,-183,o),
(224,-220,o),
(323,-220,cs),
(354,-220,o),
(374,-210,o),
(374,-183,cs),
(374,-160,o),
(357,-151,o),
(348,-151,cs),
(339,-151,o),
(326,-161,o),
(317,-161,cs),
(264,-161,o),
(246,-141,o),
(246,-116,cs),
(246,-60,o),
(284,-8,o),
(341,-8,cs),
(356,-8,o),
(366,3,o),
(368,20,cs),
(384,136,o),
(405,213,o),
(405,263,cs),
(405,270,o),
(401,279,o),
(393,289,c),
(411,316,o),
(418,341,o),
(418,366,cs),
(418,391,o),
(404,417,o),
(380,446,cs),
(355,476,o),
(327,491,o),
(297,491,cs),
(186,491,o),
(7,264,o),
(7,116,cs),
(7,60,o),
(81,-5,o),
(142,-5,cs)
);
},
{
closed = 1;
nodes = (
(91,203,o),
(224,408,o),
(306,408,cs),
(331,408,o),
(343,377,o),
(343,315,c),
(334,312,o),
(328,306,o),
(326,296,cs),
(295,175,o),
(201,78,o),
(138,78,cs),
(113,78,o),
(91,93,o),
(91,116,cs)
);
}
);
width = 469;
}
);
unicode = 261;
},
{
color = 5;
glyphname = ae;
kernLeft = a;
kernRight = e;
layers = (
{
anchors = (
{
name = bottom;
pos = (316,0);
},
{
name = top;
pos = (448,520);
}
);
hints = (
{
horizontal = 1;
place = (0, 0);
type = Tag;
},
{
horizontal = 1;
place = (0, 0);
type = Tag;
},
{
horizontal = 1;
place = (0, 0);
type = Tag;
}
);
layerId = "FF2DC345-5101-49B6-97F3-57A040F7C387";
shapes = (
{
closed = 1;
nodes = (
(216,-5,o),
(266,39,o),
(327,122,c),
(341,49,o),
(407,-5,o),
(492,-5,cs),
(571,-5,o),
(677,47,o),
(677,85,cs),
(677,98,o),
(668,105,o),
(651,105,cs),
(635,105,o),
(567,70,o),
(491.5,70,cs),
(423,70,o),
(399,97,o),
(399,149,cs),
(399,168,o),
(404,194,o),
(413,221,c),
(458,211,o),
(503,205,o),
(544,205,cs),
(625,205,o),
(732,244,o),
(732,325.5,cs),
(732,397,o),
(655,491,o),
(575,491,cs),
(526,491,o),
(476.333,463.333,o),
(427,408,c),
(405.667,454.667,o),
(361,491,o),
(314,491,cs),
(179,491,o),
(29,248,o),
(29,118,cs),
(29,59,o),
(100,-5,o),
(157.5,-5,cs)
);
},
{
closed = 1;
nodes = (
(132,78,o),
(111,93,o),
(111,116,cs),
(111,204,o),
(236,408,o),
(322,408,cs),
(350,408,o),
(366,379,o),
(368,325,c),
(314,180,o),
(223,78,o),
(153,78,cs)
);
},
{
closed = 1;
nodes = (
(496,269,o),
(465,272,o),
(437,278,c),
(474.333,354,o),
(534,412,o),
(575,412,cs),
(616,412,o),
(655,366,o),
(655,329.5,cs),
(655,293,o),
(596,269,o),
(529,269,cs)
);
}
);
width = 743;
}
);
unicode = 230;
userData = {
com.typemytype.robofont.guides = (
{
angle = 0;
isGlobal = 0;
magnetic = 5;
x = 0;
y = "-10";
},
{
angle = 0;
isGlobal = 0;
magnetic = 5;
x = 0;
y = 530;
},
{
angle = 90;
isGlobal = 0;
magnetic = 5;
x = 473;
y = 0;
},
{
angle = 90;
isGlobal = 0;
magnetic = 5;
x = "-379";
y = 0;
},
{
angle = 90;
isGlobal = 0;
magnetic = 5;
x = 453;
y = 0;
}
);
};
},
{
color = 5;
glyphname = b;
kernLeft = h;
kernRight = b;
layers = (
{
anchors = (
{
name = bottom;
pos = (298,0);
},
{
name = top;
pos = (298,750);
}
);
hints = (
{
horizontal = 1;
place = (0, 0);
type = Tag;
},
{
horizontal = 1;
place = (0, 0);
type = Tag;
}
);
layerId = "FF2DC345-5101-49B6-97F3-57A040F7C387";
shapes = (
{
closed = 1;
nodes = (
(81,-5,o),
(91,17,o),
(107,63,c),
(151,17,o),
(198,-5,o),
(245,-5,cs),
(391,-6,o),
(505,211,o),
(506,337,cs),
(507,410,o),
(466,494,o),
(394,494,cs),
(329,494,o),
(257,440,o),
(178,333,c),
(214,485,o),
(232,602,o),
(232,684,cs),
(232,721,o),
(191,771,o),
(170,771,cs),
(155,771,o),
(148,761,o),
(148,741,cs),
(148,478,o),
(22,90,o),
(22,57,cs),
(22,32,o),
(55,-5,o),
(74,-5,cs)
);
},
{
closed = 1;
nodes = (
(198,72,o),
(165,92,o),
(134,132,c),
(203,281,o),
(310,406,o),
(387,406,cs),
(411,406,o),
(423,386,o),
(423,347,cs),
(423,216,o),
(320,72,o),
(233,72,cs)
);
}
);
width = 525;
}
);
unicode = 98;
userData = {
com.typemytype.robofont.guides = (
{
angle = 0;
isGlobal = 0;
magnetic = 5;
x = 0;
y = 530;
},
{
angle = 0;
isGlobal = 0;
magnetic = 5;
x = 0;
y = "-10";
},
{
angle = 0;
isGlobal = 0;
magnetic = 5;
x = 0;
y = 710;
},
{
angle = 0;
isGlobal = 0;
magnetic = 5;
x = 0;
y = 288;
},
{
angle = 0;
isGlobal = 0;
magnetic = 5;
x = 0;
y = 232;
},
{
angle = 0;
isGlobal = 0;
magnetic = 5;
x = 0;
y = 451;
},
{
angle = 0;
isGlobal = 0;
magnetic = 5;
x = 0;
y = 69;
},
{
angle = 90;
isGlobal = 0;
magnetic = 5;
x = 121;
y = 0;
},
{
angle = 90;
isGlobal = 0;
magnetic = 5;
x = 79;
y = 0;
}
);
};
},
{
color = 5;
glyphname = c;
kernLeft = o;
kernRight = c;
layers = (
{
anchors = (
{
name = bottom;
pos = (276,0);
},
{
name = top;
pos = (279,520);
}
);
hints = (
{
horizontal = 1;
place = (0, 0);
type = Tag;
},
{
horizontal = 1;
place = (0, 0);
type = Tag;
}
);
layerId = "FF2DC345-5101-49B6-97F3-57A040F7C387";
shapes = (
{
closed = 1;
nodes = (
(270.5,-5,o),
(390,62.333,o),
(390,101,cs),
(390,113.667,o),
(384,120,o),
(371,120,cs),
(345,120,o),
(300,78,o),
(203.5,78,cs),
(146,78,o),
(121,103.667,o),
(121,145,cs),
(121,239.667,o),
(247,406,o),
(319,406,cs),
(354,406,o),
(374,370,o),
(395,370,cs),
(406,370,o),
(415,375,o),
(415,389,cs),
(415,426.333,o),
(366.667,491,o),
(312,491,cs),
(178,491,o),
(32,278,o),
(32,148.5,cs),
(32,65.167,o),
(114.5,-5,o),
(192.5,-5,cs)
);
}
);
width = 445;
}
);
unicode = 99;
userData = {
com.typemytype.robofont.guides = (
{
angle = 0;
isGlobal = 0;
magnetic = 5;
x = 0;
y = "-10";
},
{
angle = 0;
isGlobal = 0;
magnetic = 5;
x = 0;
y = 295;
},
{
angle = 0;
isGlobal = 0;
magnetic = 5;
x = 0;
y = 225;
},
{
angle = 90;
isGlobal = 0;
magnetic = 5;
x = 445;
y = 0;
},
{
angle = 90;
isGlobal = 0;
magnetic = 5;
x = 484;
y = 0;
},
{
angle = 90;
isGlobal = 0;
magnetic = 5;
x = 137;
y = 0;
},
{
angle = 90;
isGlobal = 0;
magnetic = 5;
x = 270;
y = 0;
}
);
};
},
{
color = 5;
glyphname = ccedilla;
kernLeft = o;
kernRight = c;
layers = (
{
hints = (
{
horizontal = 1;
place = (0, 0);
type = Tag;
},
{
horizontal = 1;
place = (0, 0);
type = Tag;
}
);
layerId = "FF2DC345-5101-49B6-97F3-57A040F7C387";
shapes = (
{
closed = 1;
nodes = (
(171.667,-208,o),
(272,-169,o),
(272,-110,cs),
(272,-82,o),
(224,-53,o),
(176,-53,c),
(184.667,-39,o),
(192.667,-23,o),
(200,-5,c),
(277.333,-1,o),
(390,64,o),
(390,101,cs),
(390,114,o),
(384,120,o),
(371,120,cs),
(351,120,o),
(288,78,o),
(203.5,78,cs),
(146,78,o),
(121,104,o),
(121,145,cs),
(121,240,o),
(243,406,o),
(319,406,cs),
(354,406,o),
(374,370,o),
(396,370,cs),
(406,370,o),
(415,377,o),
(415,389,cs),
(415,426,o),
(367,491,o),
(312,491,cs),
(180,491,o),
(32,282,o),
(32,143,cs),
(32,86,o),
(78.333,31,o),
(137,7,c),
(134,-1,o),
(99,-72,o),
(99,-86,cs),
(99,-104,o),
(187,-111,o),
(187,-123,cs),
(187,-131,o),
(157,-147,o),
(116,-155,cs),
(58,-167,o),
(40,-169,o),
(40,-184,cs),
(40,-197,o),
(58.333,-208,o),
(85,-208,cs)
);
}
);
width = 447;
}
);
unicode = 231;
},
{
color = 5;
glyphname = d;
kernLeft = d;
kernRight = d;
layers = (
{
anchors = (
{
name = bottom;
pos = (298,0);
},
{
name = center;
pos = (233,614);
},
{
name = top;
pos = (268,750);
},
{
name = topright;
pos = (556,720);
}
);
hints = (
{
horizontal = 1;
place = (0, 0);
type = Tag;
},
{
horizontal = 1;
place = (0, 0);
type = Tag;
}
);
layerId = "FF2DC345-5101-49B6-97F3-57A040F7C387";
shapes = (
{
closed = 1;
nodes = (
(181.667,-5,o),
(238.667,28.333,o),
(304,95,c),
(301,77,o),
(297,61,o),
(297,52,cs),
(297,33,o),
(304,22,o),
(314,13,cs),
(325,1,o),
(335,-5,o),
(344,-5,cs),
(382,-5,o),
(522,629,o),
(522,686,cs),
(522,720.667,o),
(480.333,771,o),
(459,771,cs),
(444.333,771,o),
(438,761,o),
(437,741,cs),
(434,659,o),
(415,547.333,o),
(381,406,c),
(362.333,462.667,o),
(329.333,491,o),
(282,491,cs),
(142,491,o),
(18,256,o),
(18,118,cs),
(18,60.667,o),
(74.333,-5,o),
(133,-5,cs)
);
},
{
closed = 1;
nodes = (
(120,75,o),
(100,91,o),
(100,115,cs),
(100,244.1,o),
(202,408,o),
(286,408,cs),
(321,408,o),
(349,356,o),
(349,273,c),
(314,168,o),
(196,75,o),
(144,75,cs)
);
}
);
width = 499;
}
);
unicode = 100;
userData = {
com.typemytype.robofont.guides = (
{
angle = 0;
isGlobal = 0;
magnetic = 5;
x = 0;
y = 650;
},
{
angle = 0;
isGlobal = 0;
magnetic = 5;
x = 0;
y = 530;
},
{
angle = 90;
isGlobal = 0;
magnetic = 5;
x = 438;
y = 0;
},
{
angle = 90;
isGlobal = 0;
magnetic = 5;
x = 499;
y = 0;
}
);
};
},
{
color = 5;
glyphname = eth;
layers = (
{
hints = (
{
horizontal = 1;
place = (0, 0);
type = Tag;
}
);
layerId = "FF2DC345-5101-49B6-97F3-57A040F7C387";
shapes = (
{
closed = 1;
nodes = (
(320,-5,o),
(424,217,o),
(424,376,cs),
(424,438,o),
(411,499,o),
(384,556,c),
(440.667,582.667,o),
(469,602,o),
(469,615,cs),
(469,626,o),
(461,631,o),
(446,631,cs),
(435,631,o),
(409.333,621,o),
(358,601,c),
(317.333,662.333,o),
(272,693,o),
(223,693,cs),
(187,693,o),
(146,660,o),
(146,630.5,cs),
(146,616,o),
(152,608,o),
(164,608,cs),
(179,608,o),
(201,623,o),
(214,623,cs),
(235,623,o),
(257,605.667,o),
(281,571,c),
(233,554,o),
(174,536,o),
(174,509,cs),
(174,497,o),
(185,491,o),
(206,491,cs),
(221,491,o),
(253,502,o),
(307,523,c),
(321,489,o),
(329.333,452,o),
(332,412,c),
(307.333,435.333,o),
(282,447,o),
(257,447,cs),
(136,447,o),
(31,313,o),
(31,157,cs),
(31,61,o),
(87,-5,o),
(155,-5,cs)
);
},
{
closed = 1;
nodes = (
(138,66,o),
(119,108,o),
(119,149,cs),
(119,281,o),
(201,382,o),
(274,382,cs),
(293,382,o),
(313,369.667,o),
(333,345,c),
(323.667,214.333,o),
(234,66,o),
(162,66,cs)
);
}
);
width = 452;
}
);
unicode = 240;
userData = {
com.typemytype.robofont.guides = (
{
angle = 0;
isGlobal = 0;
magnetic = 5;
x = 0;
y = 512;
},
{
angle = 90;
isGlobal = 0;
magnetic = 5;
x = 214;
y = 0;
},
{
angle = 90;
isGlobal = 0;
magnetic = 5;
x = 484;
y = 0;
}
);
};
},
{
color = 5;
glyphname = dcroat;
layers = (
{
anchors = (
{
name = bottom;
pos = (298,0);
},
{
name = top;
pos = (288,750);
},
{
name = topright;
pos = (555,720);
}
);
hints = (
{
horizontal = 1;
place = (0, 0);
type = Tag;
},
{
horizontal = 1;
place = (0, 0);
type = Tag;
}
);
layerId = "FF2DC345-5101-49B6-97F3-57A040F7C387";
shapes = (
{
closed = 1;
nodes = (
(182,-5,o),
(239,28,o),
(304,95,c),
(301,77,o),
(297,61,o),
(297,52,cs),
(297,33,o),
(304,22,o),
(314,13,cs),
(325,1,o),
(335,-5,o),
(344,-5,cs),
(373,-5,o),
(461,362,o),
(501,562,c),
(548,566,o),
(563,575,o),
(563,590,cs),
(563,604,o),
(550,613,o),
(512,618,c),
(518,652,o),
(522,677,o),
(522,686,cs),
(522,721,o),
(480,771,o),
(459,771,cs),
(444,771,o),
(438,761,o),
(437,741,cs),
(436,707,o),
(432,667,o),
(425,622,c),
(424,622,ls),
(315,622,o),
(286,612,o),
(286,591,cs),
(286,569,o),
(313,560,o),
(414,560,c),
(406,513,o),
(394,462,o),
(381,406,c),
(362,463,o),
(329,491,o),
(282,491,cs),
(142,491,o),
(18,256,o),
(18,118,cs),
(18,61,o),
(74,-5,o),
(133,-5,cs)
);
},
{
closed = 1;
nodes = (
(100,244,o),
(202,408,o),
(286,408,cs),
(321,408,o),
(349,356,o),
(349,273,c),
(314,168,o),
(196,75,o),
(144,75,cs),
(120,75,o),
(100,91,o),
(100,115,cs)
);
}
);
width = 553;
}
);
unicode = 273;
},
{
color = 5;
glyphname = e;
kernLeft = o;
kernRight = e;
layers = (
{
anchors = (
{
name = bottom;
pos = (280,0);
},
{
name = top;
pos = (291,490);
}
);
hints = (
{
horizontal = 1;
place = (0, 0);
type = Tag;
}
);
layerId = "FF2DC345-5101-49B6-97F3-57A040F7C387";
shapes = (
{
closed = 1;
nodes = (
(272.333,-5,o),
(375,49,o),
(375,85,cs),
(375,98,o),
(366,105,o),
(349,105,cs),
(336,105,o),
(263,70,o),
(189.5,70,cs),
(124,70,o),
(97,97,o),
(97,142.5,cs),
(97,166,o),
(101.667,191.667,o),
(111,221,c),
(150,210,o),
(189,205,o),
(233,205,cs),
(314,205,o),
(430,238,o),
(430,325.5,cs),
(430,396.833,o),
(352.667,491,o),
(274,491,cs),
(142,491,o),
(19,291,o),
(19,159,cs),
(19,64.333,o),
(91,-5,o),
(195,-5,cs)
);
},
{
closed = 1;
nodes = (
(191,269,o),
(160.667,272,o),
(134,278,c),
(171.333,354,o),
(229.667,412,o),
(279,412,cs),
(311,412,o),
(352,365,o),
(352,329,cs),
(352,293,o),
(293,269,o),
(225,269,cs)
);
}
);
width = 450;
}
);
unicode = 101;
userData = {
com.typemytype.robofont.guides = (
{
angle = 0;
isGlobal = 0;
magnetic = 5;
x = 0;
y = "-10";
},
{
angle = 90;
isGlobal = 0;
magnetic = 5;
x = 275;
y = 0;
},
{
angle = 90;
isGlobal = 0;
magnetic = 5;
x = 496;
y = 0;
},
{
angle = 90;
isGlobal = 0;
magnetic = 5;
x = 61;
y = 0;
},
{
angle = 90;
isGlobal = 0;
magnetic = 5;
x = 122;
y = 0;
},
{
angle = 90;
isGlobal = 0;
magnetic = 5;
x = 430;
y = 0;
}
);
};
},
{
color = 5;
glyphname = eogonek;
layers = (
{
anchors = (
{
name = bottom;
pos = (280,0);
},
{
name = top;
pos = (291,490);
}
);
hints = (
{
horizontal = 1;
origin = (1,20);
type = Tag;
},
{
horizontal = 1;
origin = (1,32);
type = Tag;
},
{
horizontal = 1;
place = (0, 0);
type = Tag;
}
);
layerId = "FF2DC345-5101-49B6-97F3-57A040F7C387";
shapes = (
{
closed = 1;
nodes = (
(191,269,o),
(161,272,o),
(134,278,c),
(171,354,o),
(230,412,o),
(279,412,cs),
(311,412,o),
(352,365,o),
(352,329,cs),
(352,293,o),
(293,269,o),
(225,269,cs)
);
},
{
closed = 1;
nodes = (
(19,65,o),
(89,-4,o),
(192,-5,c),
(169,-30,o),
(154,-60,o),
(154,-92,cs),
(154,-176,o),
(205,-220,o),
(294,-220,cs),
(325,-220,o),
(348,-210,o),
(348,-180,cs),
(348,-158,o),
(335,-151,o),
(322,-151,cs),
(307,-151,o),
(303,-161,o),
(280,-161,cs),
(245,-161,o),
(217,-134,o),
(217,-92,cs),
(217,-36,o),
(254,4,o),
(298,21,cs),
(343,38,o),
(375,61,o),
(375,85,cs),
(375,98,o),
(366,105,o),
(349,105,cs),
(336,105,o),
(263,70,o),
(190,70,cs),
(124,70,o),
(97,97,o),
(97,143,cs),
(97,166,o),
(102,192,o),
(111,221,c),
(150,210,o),
(189,205,o),
(233,205,cs),
(314,205,o),
(430,238,o),
(430,326,cs),
(430,397,o),
(353,491,o),
(274,491,cs),
(142,491,o),
(19,291,o),
(19,159,cs)
);
}
);
width = 450;
}
);
unicode = 281;
},
{
color = 5;
glyphname = f;
kernLeft = f;
kernRight = f;
layers = (
{
anchors = (
{
name = bottom;
pos = (192,0);
},
{
name = top;
pos = (192,718);
}
);
hints = (
{
horizontal = 1;
place = (0, 0);
type = Tag;
}
);
layerId = "FF2DC345-5101-49B6-97F3-57A040F7C387";
shapes = (
{
closed = 1;
nodes = (
(110,-7,o),
(118.667,2.667,o),
(128,22,cs),
(145.333,58.667,o),
(177.667,173,o),
(225,365,c),
(368,385,o),
(387,402,o),
(387,420,cs),
(387,438,o),
(361,448,o),
(324,448,cs),
(301,448,o),
(273,447,o),
(244,443,c),
(286,660,o),
(320,686,o),
(346,686,cs),
(367,686,o),
(386,666,o),
(394,632,cs),
(404,596,o),
(417,578,o),
(433,578,cs),
(453,578,o),
(462,600,o),
(462,626,cs),
(462,697,o),
(419,764,o),
(347,764,cs),
(250,764,o),
(197,691,o),
(156,430,c),
(71,414,o),
(31,401,o),
(31,381,cs),
(31,365,o),
(52,337,o),
(80,337,cs),
(94,337,o),
(112,341,o),
(138,347,c),
(103,189,o),
(60,65,o),
(60,44,cs),
(60,26,o),
(85,-7,o),
(103,-7,cs)
);
}
);
width = 376;
}
);
unicode = 102;
userData = {
com.typemytype.robofont.guides = (
{
angle = 0;
isGlobal = 0;
magnetic = 5;
x = 0;
y = 345;
},
{
angle = 0;
isGlobal = 0;
magnetic = 5;
x = 0;
y = 9;
},
{
angle = 0;
isGlobal = 0;
magnetic = 5;
x = 0;
y = 740;
},
{
angle = 90;
isGlobal = 0;
magnetic = 5;
x = 297;
y = 0;
},
{
angle = 90;
isGlobal = 0;
magnetic = 5;
x = 371;
y = 0;
}
);
};
},
{
color = 5;
glyphname = g;
kernLeft = g;
kernRight = u;
layers = (
{
anchors = (
{
name = bottom;
pos = (299,-225);
},
{
name = top;
pos = (327,490);
}
);
hints = (
{
horizontal = 1;
place = (0, 0);
type = Tag;
},
{
horizontal = 1;
place = (0, 0);
type = Tag;
},
{
horizontal = 1;
place = (0, 0);
type = Tag;
}
);
layerId = "FF2DC345-5101-49B6-97F3-57A040F7C387";
shapes = (
{
closed = 1;
nodes = (
(245,-267,o),
(281,-203,o),
(334,-1.5,cs),
(379,169,o),
(427,238.333,o),
(427,265,cs),
(427,275,o),
(423,286.667,o),
(415,298,c),
(416,302,o),
(417,308,o),
(417,316,cs),
(417,396,o),
(381,491,o),
(301,491,cs),
(166,491,o),
(24,238,o),
(24,126.5,cs),
(24,56.5,o),
(79.667,-5,o),
(145,-5,cs),
(177.667,-5,o),
(220,14.333,o),
(272,53,c),
(254,-11,o),
(229,-199,o),
(143,-199,cs),
(79,-199,o),
(39,-104,o),
(14.5,-104,cs),
(1,-104,o),
(-15,-130.667,o),
(-15,-152,cs),
(-15,-202.667,o),
(58.333,-267,o),
(153,-267,cs)
);
},
{
closed = 1;
nodes = (
(121,78,o),
(105,93,o),
(105,116,cs),
(105,219,o),
(228.332,408,o),
(306,408,cs),
(352,408,o),
(347,312,o),
(358,276,c),
(320.667,170.667,o),
(211,78,o),
(144,78,cs)
);
}
);
width = 475;
}
);
unicode = 103;
userData = {
com.typemytype.robofont.guides = (
{
angle = 0;
isGlobal = 0;
magnetic = 5;
x = 0;
y = 530;
},
{
angle = 0;
isGlobal = 0;
magnetic = 5;
x = 0;
y = "-220";
},
{
angle = 0;
isGlobal = 0;
magnetic = 5;
x = 0;
y = 288;
},
{
angle = 0;
isGlobal = 0;
magnetic = 5;
x = 0;
y = 232;
},
{
angle = 90;
isGlobal = 0;
magnetic = 5;
x = 56;
y = 0;
},
{
angle = 90;
isGlobal = 0;
magnetic = 5;
x = 270;
y = 0;
}
);
};
},
{
color = 5;
glyphname = h;
kernLeft = h;
kernRight = n;
layers = (
{
anchors = (
{
name = bottom;
pos = (275,0);
},
{
name = center;
pos = (201,597);
},
{
name = top;
pos = (426,675);
}
);
layerId = "FF2DC345-5101-49B6-97F3-57A040F7C387";
shapes = (
{
closed = 1;
nodes = (
(115,-5,o),
(299,377,o),
(376,377,cs),
(395,377,o),
(409,363,o),
(409,335,cs),
(409,249,o),
(332,88,o),
(332,25,cs),
(332,5,o),
(339,-5,o),
(354,-5,cs),
(424,-5,o),
(496,294,o),
(496,356,cs),
(496,416,o),
(435.667,491,o),
(401,491,cs),
(369,491,o),
(308,481,o),
(121,149,c),
(118,149,l),
(187.333,357,o),
(235,596,o),
(235,683,cs),
(235,720,o),
(198.333,771,o),
(173,771,cs),
(157,771,o),
(149,758,o),
(149,732,cs),
(149,588,o),
(71,257,o),
(34,114,cs),
(27,87,o),
(23,71,o),
(23,57,cs),
(23,32,o),
(59,-5,o),
(75,-5,cs)
);
}
);
width = 536;
}
);
unicode = 104;
userData = {
com.typemytype.robofont.guides = (
{
angle = 0;
isGlobal = 0;
magnetic = 5;
x = 0;
y = 9;
},
{
angle = 0;
isGlobal = 0;
magnetic = 5;
x = 0;
y = 301;
},
{
angle = 0;
isGlobal = 0;
magnetic = 5;
x = 0;
y = 414;
},
{
angle = 0;
isGlobal = 0;
magnetic = 5;
x = 0;
y = 710;
},
{
angle = 90;
isGlobal = 0;
magnetic = 5;
x = 79;
y = 0;
},
{
angle = 90;
isGlobal = 0;
magnetic = 5;
x = 291;
y = 0;
}
);
};
},
{
color = 4;
glyphname = hbar;
layers = (
{
anchors = (
{
name = bottom;
pos = (275,0);
},
{
name = top;
pos = (426,675);
}
);
layerId = "FF2DC345-5101-49B6-97F3-57A040F7C387";
shapes = (
{
closed = 1;
nodes = (
(115,-5,o),
(299,377,o),
(376,377,cs),
(395,377,o),
(409,363,o),
(409,335,cs),
(409,249,o),
(332,88,o),
(332,25,cs),
(332,5,o),
(339,-5,o),
(354,-5,cs),
(424,-5,o),
(496,294,o),
(496,356,cs),
(496,416,o),
(436,491,o),
(401,491,cs),
(369,491,o),
(308,481,o),
(121,149,c),
(118,149,l),
(167,295,o),
(205,456,o),
(223,569,c),
(313,570,o),
(340,579,o),
(340,599,cs),
(340,619,o),
(316,629,o),
(231,631,c),
(234,651,o),
(235,669,o),
(235,683,cs),
(235,720,o),
(198,771,o),
(173,771,cs),
(157,771,o),
(149,758,o),
(149,732,cs),
(149,704,o),
(146,669,o),
(141,630,c),
(81,626,o),
(63,616,o),
(63,600,cs),
(63,583,o),
(79,574,o),
(133,571,c),
(108,413,o),
(60,216,o),
(34,114,cs),
(27,87,o),
(23,71,o),
(23,57,cs),
(23,32,o),
(59,-5,o),
(75,-5,cs)
);
}
);
width = 536;
}
);
unicode = 295;
},
{
color = 5;
glyphname = i;
kernLeft = i;
kernRight = i;
layers = (
{
anchors = (
{
name = bottom;
pos = (121,0);
},
{
name = top;
pos = (122,722);
}
);
hints = (
{
horizontal = 1;
place = (0, 0);
type = Tag;
}
);
layerId = "FF2DC345-5101-49B6-97F3-57A040F7C387";
shapes = (
{
closed = 1;
nodes = (
(79,-4,o),
(93.667,12.667,o),
(105,46,cs),
(160.722,218.231,o),
(207,367,o),
(207,423,cs),
(207,452,o),
(179,491,o),
(154,491,cs),
(144,491,o),
(134.333,474.667,o),
(125,442,cs),
(97.996,341.699,o),
(28,50,o),
(28,33.5,cs),
(28,14,o),
(43,-4,o),
(62,-4,cs)
);
},
{
closed = 1;
nodes = (
(255,555,o),
(270,568,o),
(270,581,cs),
(270,617,o),
(229,689,o),
(207.5,689,cs),
(186,689,o),
(159,660,o),
(159,633,cs),
(159,606,o),
(210,555,o),
(242,555,cs)
);
}
);
width = 238;
}
);
unicode = 105;
userData = {
com.typemytype.robofont.guides = (
{
angle = 0;
isGlobal = 0;
magnetic = 5;
x = 0;
y = 510;
},
{
angle = 0;
isGlobal = 0;
magnetic = 5;
x = 0;
y = 22;
},
{
angle = 0;
isGlobal = 0;
magnetic = 5;
x = 0;
y = 627;
},
{
angle = 90;
isGlobal = 0;
magnetic = 5;
x = 79;
y = 0;
},
{
angle = 90;
isGlobal = 0;
magnetic = 5;
x = 121;
y = 0;
},
{
angle = 90;
isGlobal = 0;
magnetic = 5;
x = 70;
y = 0;
},
{
angle = 90;
isGlobal = 0;
magnetic = 5;
x = 131;
y = 0;
}
);
};
},
{
color = 5;
glyphname = idotless;
kernLeft = i;
kernRight = i;
layers = (
{
anchors = (
{
name = bottom;
pos = (121,0);
},
{
name = ogonek;
pos = (169,48);
},
{
name = top;
pos = (179,490);
}
);
hints = (
{
horizontal = 1;
place = (0, 0);
type = Tag;
}
);
layerId = "FF2DC345-5101-49B6-97F3-57A040F7C387";
shapes = (
{
closed = 1;
nodes = (
(79,-4,o),
(95,13,o),
(105,46,cs),
(157,219,o),
(207,367,o),
(207,423,cs),
(207,452,o),
(179,491,o),
(154,491,cs),
(144,491,o),
(134,475,o),
(125,442,cs),
(99,342,o),
(28,50,o),
(28,33.5,cs),
(28,14,o),
(43,-4,o),
(62,-4,cs)
);
}
);
width = 238;
}
);
unicode = 305;
},
{
color = 5;
glyphname = iogonek;
layers = (
{
hints = (
{
horizontal = 1;
place = (0, 0);
type = Tag;
}
);
layerId = "FF2DC345-5101-49B6-97F3-57A040F7C387";
shapes = (
{
closed = 1;
nodes = (
(71,-255,o),
(94,-249,o),
(94,-216,cs),
(94,-195,o),
(79,-186,o),
(65,-186,cs),
(51,-186,o),
(42,-192,o),
(27,-192,cs),
(-16,-192,o),
(-41,-156,o),
(-41,-111,cs),
(-41,-65,o),
(-16,-35,o),
(36,-35,cs),
(72,-35,o),
(91,-8,o),
(105,46,cs),
(157,219,o),
(207,367,o),
(207,423,cs),
(207,452,o),
(179,491,o),
(154,491,cs),
(144,491,o),
(134,475,o),
(125,442,cs),
(99,342,o),
(33,50,o),
(33,34,c),
(-23,22,o),
(-107,-26,o),
(-107,-111,cs),
(-107,-198,o),
(-56,-255,o),
(33,-255,cs)
);
},
{
closed = 1;
nodes = (
(217,530,o),
(243,557,o),
(243,589,cs),
(243,621,o),
(217,648,o),
(184,648,cs),
(152,648,o),
(126,621,o),
(126,589,cs),
(126,557,o),
(152,530,o),
(184,530,cs)
);
}
);
width = 238;
}
);
unicode = 303;
},
{
color = 5;
glyphname = j;
kernRight = i;
layers = (
{
anchors = (
{
name = top;
pos = (131,722);
}
);
layerId = "FF2DC345-5101-49B6-97F3-57A040F7C387";
shapes = (
{
closed = 1;
nodes = (
(0,-265,o),
(51.333,-212.667,o),
(80,-108,cs),
(132.099,93.6,o),
(213,369,o),
(213,423,cs),
(213,456,o),
(182.667,491,o),
(160,491,cs),
(150.667,491,o),
(141,474.667,o),
(131,442,cs),
(76.25,238.97,o),
(50.724,88.76,o),
(6,-71.5,cs),
(-16,-150,o),
(-42,-196,o),
(-75,-196,cs),
(-131,-196,o),
(-159,-103,o),
(-191,-103,cs),
(-203,-103,o),
(-221,-133,o),
(-221,-151,cs),
(-221,-191,o),
(-144,-265,o),
(-76,-265,cs)
);
},
{
closed = 1;
nodes = (
(268,555,o),
(283,567,o),
(283,581,cs),
(283,617,o),
(245,689,o),
(221,689,cs),
(197,689,o),
(172,661,o),
(172,633,cs),
(172,605,o),
(224,555,o),
(256,555,cs)
);
}
);
width = 254;
}
);
unicode = 106;
userData = {
com.typemytype.robofont.guides = (
{
angle = 0;
isGlobal = 0;
magnetic = 5;
x = 0;
y = 740;
},
{
angle = 0;
isGlobal = 0;
magnetic = 5;
x = 0;
y = "-190";
},
{
angle = 90;
isGlobal = 0;
magnetic = 5;
x = "-46";
y = 0;
}
);
};
},
{
color = 5;
glyphname = jdotless;
layers = (
{
anchors = (
{
name = top;
pos = (191,522);
}
);
layerId = "FF2DC345-5101-49B6-97F3-57A040F7C387";
shapes = (
{
closed = 1;
nodes = (
(0,-265,o),
(51.333,-212.667,o),
(80,-108,cs),
(132.099,93.6,o),
(213,369,o),
(213,423,cs),
(213,456,o),
(182.667,491,o),
(160,491,cs),
(150.667,491,o),
(141,474.667,o),
(131,442,cs),
(76.25,238.97,o),
(50.724,88.76,o),
(6,-71.5,cs),
(-16,-150,o),
(-42,-196,o),
(-75,-196,cs),
(-131,-196,o),
(-159,-103,o),
(-191,-103,cs),
(-203,-103,o),
(-221,-133,o),
(-221,-151,cs),
(-221,-191,o),
(-144,-265,o),
(-76,-265,cs)
);
}
);
width = 254;
}
);
unicode = 567;
},
{
color = 5;
glyphname = k;
kernLeft = h;
kernRight = k;
layers = (
{
anchors = (
{
name = bottom;
pos = (259,0);
},
{
name = top;
pos = (259,750);
}
);
hints = (
{
horizontal = 1;
place = (0, 0);
type = Tag;
}
);
layerId = "FF2DC345-5101-49B6-97F3-57A040F7C387";
shapes = (
{
closed = 1;
nodes = (
(90,-5,o),
(106,6,o),
(126,30,cs),
(145,54,o),
(180,97,o),
(224,158,c),
(267,14,o),
(376,-5,o),
(394,-5,cs),
(420,-5,o),
(433,3,o),
(433,20,cs),
(433,44,o),
(353,71,o),
(318,122,cs),
(302,144,o),
(296,167,o),
(296,193,cs),
(296,290,o),
(473,411,o),
(473,443,cs),
(473,458,o),
(444,491,o),
(418,491,cs),
(380,491,o),
(195,238,o),
(120,131,c),
(187,323,o),
(242,565,o),
(242,684,cs),
(242,721,o),
(203,771,o),
(183,771,cs),
(163,771,o),
(159,764,o),
(159,743,cs),
(159,576,o),
(105,338,o),
(62,187,cs),
(40,111,o),
(29,77,o),
(29,58,cs),
(29,37,o),
(60,-5,o),
(80,-5,cs)
);
}
);
width = 469;
}
);
unicode = 107;
userData = {
com.typemytype.robofont.guides = (
{
angle = 0;
isGlobal = 0;
magnetic = 5;
x = 0;
y = 520;
},
{
angle = 0;
isGlobal = 0;
magnetic = 5;
x = 0;
y = 710;
},
{
angle = 0;
isGlobal = 0;
magnetic = 5;
x = 0;
y = 260;
},
{
angle = 90;
isGlobal = 0;
magnetic = 5;
x = 460;
y = 0;
},
{
angle = 90;
isGlobal = 0;
magnetic = 5;
x = 430;
y = 0;
}
);
};
},
{
color = 5;
glyphname = l;
kernLeft = l;
kernRight = l;
layers = (
{
anchors = (
{
name = bottom;
pos = (62,0);
},
{
name = center;
pos = (122,375);
},
{
name = top;
pos = (162,750);
},
{
name = topright;
pos = (253,710);
}
);
layerId = "FF2DC345-5101-49B6-97F3-57A040F7C387";
shapes = (
{
closed = 1;
nodes = (
(103,-5,o),
(228,412,o),
(228,687,cs),
(228,723,o),
(183,771,o),
(166,771,cs),
(149,771,o),
(145,764,o),
(145,745,cs),
(145,480,o),
(29,69,o),
(29,51,cs),
(29,35,o),
(61,-5,o),
(80,-5,cs)
);
}
);
width = 245;
}
);
unicode = 108;
userData = {
com.typemytype.robofont.guides = (
{
angle = 0;
isGlobal = 0;
magnetic = 5;
x = 0;
y = 9;
},
{
angle = 0;
isGlobal = 0;
magnetic = 5;
x = 0;
y = 710;
}
);
};
},
{
color = 4;
glyphname = lslash;
layers = (
{
layerId = "FF2DC345-5101-49B6-97F3-57A040F7C387";
shapes = (
{
closed = 1;
nodes = (
(157,-15,o),
(185,92,o),
(209,189,cs),
(224,246,o),
(237,305,o),
(249,363,c),
(347,398,o),
(384,414,o),
(384,433,cs),
(384,445,o),
(374,449,o),
(358,449,cs),
(346,449,o),
(308,442,o),
(261,431,c),
(277,526,o),
(287,613,o),
(287,677,cs),
(287,716,o),
(240,761,o),
(223,761,cs),
(207,761,o),
(203,753,o),
(203,735,cs),
(203,628,o),
(188,513,o),
(169,408,c),
(101,388,o),
(41,366,o),
(41,350,cs),
(41,334,o),
(71,311,o),
(95,311,cs),
(104,311,o),
(127,319,o),
(153,328,c),
(122,179,o),
(87,65,o),
(87,45,cs),
(87,24,o),
(120,-15,o),
(139,-15,cs)
);
}
);
width = 384;
}
);
unicode = 322;
},
{
color = 5;
glyphname = m;
kernLeft = n;
kernRight = n;
layers = (
{
anchors = (
{
name = bottom;
pos = (445,0);
},
{
name = top;
pos = (495,520);
}
);
hints = (
{
horizontal = 1;
place = (0, 0);
type = Tag;
},
{
horizontal = 1;
place = (0, 0);
type = Tag;
}
);
layerId = "FF2DC345-5101-49B6-97F3-57A040F7C387";
shapes = (
{
closed = 1;
nodes = (
(85,-5,o),
(97,7,o),
(114,32,cs),
(235,207,o),
(323,392,o),
(371,392,cs),
(386,392,o),
(400,370,o),
(400,342,cs),
(400,169,o),
(330,87,o),
(330,43,cs),
(330,22,o),
(355,-4,o),
(373,-4,cs),
(424,-4,o),
(564,392,o),
(654,392,cs),
(668,392,o),
(674,371,o),
(674,337,cs),
(673,208,o),
(606,95,o),
(606,26,cs),
(606,5,o),
(610,-5,o),
(626,-5,cs),
(693,-5,o),
(755,267,o),
(755,356,cs),
(755,426,o),
(718,491,o),
(678,491,cs),
(615,491,o),
(545,412,o),
(467,262,c),
(464,262,l),
(473,297,o),
(476,329,o),
(476,359,cs),
(476,423,o),
(423,491,o),
(385,491,cs),
(320,491,o),
(244,389,o),
(118,136,c),
(115,136,l),
(159,271,o),
(181,367,o),
(181,426,cs),
(181,457,o),
(146,495,o),
(117,495,cs),
(104,495,o),
(96,483,o),
(96,442,cs),
(96,249,o),
(22,111,o),
(22,52,cs),
(22,36,o),
(58,-5,o),
(75,-5,cs)
);
}
);
width = 796;
}
);
unicode = 109;
},
{
color = 5;
glyphname = n;
kernLeft = n;
kernRight = n;
layers = (
{
anchors = (
{
name = bottom;
pos = (196,0);
},
{
name = top;
pos = (315,490);
}
);
hints = (
{
horizontal = 1;
place = (0, 0);
type = Tag;
},
{
horizontal = 1;
place = (0, 0);
type = Tag;
}
);
layerId = "FF2DC345-5101-49B6-97F3-57A040F7C387";
shapes = (
{
closed = 1;
nodes = (
(85,-5,o),
(98,5,o),
(115,32,cs),
(330,375,o),
(351,393,o),
(381,393,cs),
(401,393,o),
(409,356,o),
(409,332,cs),
(409,239,o),
(329,89,o),
(329,25,cs),
(329,5,o),
(336,-5,o),
(351,-5,cs),
(421,-5,o),
(492,280,o),
(492,363,cs),
(492,424,o),
(436,491,o),
(385,491,cs),
(356,491,o),
(307,471,o),
(132,169,c),
(129,169,l),
(158,260,o),
(184,385,o),
(184,422,cs),
(184,458,o),
(147,495,o),
(118,495,cs),
(106,495,o),
(97,471,o),
(97,422,cs),
(97,245,o),
(23,75,o),
(23,57,cs),
(23,34,o),
(56,-5,o),
(76,-5,cs)
);
}
);
width = 533;
}
);
unicode = 110;
userData = {
com.typemytype.robofont.guides = (
{
angle = 0;
isGlobal = 0;
magnetic = 5;
x = 0;
y = 530;
},
{
angle = 0;
isGlobal = 0;
magnetic = 5;
x = 0;
y = 301;
},
{
angle = 0;
isGlobal = 0;
magnetic = 5;
x = 0;
y = 650;
},
{
angle = 0;
isGlobal = 0;
magnetic = 5;
x = 0;
y = 407;
},
{
angle = 0;
isGlobal = 0;
magnetic = 5;
x = 0;
y = 451;
},
{
angle = 90;
isGlobal = 0;
magnetic = 5;
x = 291;
y = 0;
},
{
angle = 90;
isGlobal = 0;
magnetic = 5;
x = 131;
y = 0;
}
);
};
},
{
color = 5;
glyphname = eng;
layers = (
{
hints = (
{
horizontal = 1;
place = (0, 0);
type = Tag;
},
{
horizontal = 1;
place = (0, 0);
type = Tag;
}
);
layerId = "FF2DC345-5101-49B6-97F3-57A040F7C387";
shapes = (
{
closed = 1;
nodes = (
(85,-5,o),
(98,5,o),
(115,32,cs),
(330,375,o),
(351,393,o),
(381,393,cs),
(401,393,o),
(409,356,o),
(409,332,cs),
(409,209,o),
(305,-75,o),
(225,-89,cs),
(154,-101,o),
(114,-114,o),
(114,-130,cs),
(114,-151,o),
(131,-160,o),
(206,-160,cs),
(356,-160,o),
(492,170,o),
(492,363,cs),
(492,424,o),
(436,491,o),
(385,491,cs),
(356,491,o),
(307,471,o),
(132,169,c),
(129,169,l),
(158,260,o),
(184,385,o),
(184,422,cs),
(184,458,o),
(147,495,o),
(118,495,cs),
(106,495,o),
(97,471,o),
(97,422,cs),
(97,245,o),
(23,75,o),
(23,57,cs),
(23,34,o),
(56,-5,o),
(76,-5,cs)
);
}
);
width = 533;
}
);
unicode = 331;
},
{
color = 5;
glyphname = o;
kernLeft = o;
kernRight = o;
layers = (
{
anchors = (
{
name = bottom;
pos = (87,0);
},
{
name = center;
pos = (227,260);
},
{
name = ogonek;
pos = (236,10);
},
{
name = top;
pos = (309,490);
},
{
name = topright;
pos = (394,490);
}
);
hints = (
{
horizontal = 1;
place = (0, 0);
type = Tag;
}
);
layerId = "FF2DC345-5101-49B6-97F3-57A040F7C387";
shapes = (
{
closed = 1;
nodes = (
(287.736,-5,o),
(417,147.445,o),
(417,317.5,cs),
(417,414.167,o),
(356.833,491,o),
(277.5,491,cs),
(141,491,o),
(36,292,o),
(36,161.5,cs),
(36,64.833,o),
(87,-5,o),
(155,-5,cs)
);
},
{
closed = 1;
nodes = (
(137,63,o),
(121,111,o),
(121,154,cs),
(121,249,o),
(210,428,o),
(290,428,cs),
(310,428,o),
(333,366,o),
(333,321,cs),
(333,221,o),
(243,63,o),
(160,63,cs)
);
}
);
width = 453;
}
);
unicode = 111;
userData = {
com.typemytype.robofont.guides = (
{
angle = 0;
isGlobal = 0;
magnetic = 5;
x = 0;
y = 302;
},
{
angle = 0;
isGlobal = 0;
magnetic = 5;
x = 0;
y = 218;
},
{
angle = 0;
isGlobal = 0;
magnetic = 5;
x = 0;
y = 411;
},
{
angle = 0;
isGlobal = 0;
magnetic = 5;
x = 0;
y = 109;
},
{
angle = 90;
isGlobal = 0;
magnetic = 5;
x = 278;
y = 0;
},
{
angle = 90;
isGlobal = 0;
magnetic = 5;
x = 56;
y = 0;
},
{
angle = 90;
isGlobal = 0;
magnetic = 5;
x = 500;
y = 0;
}
);
};
},
{
color = 4;
glyphname = oslash;
kernLeft = o;
kernRight = o;
layers = (
{
anchors = (
{
name = top;
pos = (287,520);
}
);
hints = (
{
horizontal = 1;
place = (418.438, 0);
type = Tag;
}
);
layerId = "FF2DC345-5101-49B6-97F3-57A040F7C387";
shapes = (
{
closed = 1;
nodes = (
(51,-5,o),
(66,6.333,o),
(88,29,c),
(112.667,6.333,o),
(138.333,-5,o),
(165,-5,cs),
(306.333,-5,o),
(444,167,o),
(444,323,cs),
(444,352,o),
(438.333,378.333,o),
(427,403,c),
(463,445,o),
(475,463,o),
(475,473,cs),
(475,486.333,o),
(467,493,o),
(451,493,cs),
(435,493,o),
(414,481,o),
(388,457,c),
(364,479.667,o),
(336,491,o),
(304,491,cs),
(164,491,o),
(36,305,o),
(36,157,cs),
(36,127,o),
(43,98.667,o),
(57,72,c),
(32.333,40.667,o),
(20,21,o),
(20,14,cs),
(20,1,o),
(27,-5,o),
(40,-5,cs)
);
},
{
closed = 1;
nodes = (
(158,57,o),
(144,66,o),
(135,78,c),
(182,129,o),
(259.333,216,o),
(370,340,c),
(370,230,o),
(269,57,o),
(171,57,cs)
);
},
{
closed = 1;
nodes = (
(115,258,o),
(215,429,o),
(307,429,cs),
(322,429,o),
(331,419,o),
(341,407,c),
(329,394.333,o),
(190,227,o),
(115,141,c)
);
}
);
width = 457;
}
);
unicode = 248;
userData = {
com.typemytype.robofont.guides = (
{
angle = 0;
isGlobal = 0;
magnetic = 5;
x = 0;
y = 259;
},
{
angle = 90;
isGlobal = 0;
magnetic = 5;
x = 370;
y = 0;
},
{
angle = 90;
isGlobal = 0;
magnetic = 5;
x = 80;
y = 0;
},
{
angle = 90;
isGlobal = 0;
magnetic = 5;
x = 584;
y = 0;
},
{
angle = 90;
isGlobal = 0;
magnetic = 5;
x = 141;
y = 0;
},
{
angle = 90;
isGlobal = 0;
magnetic = 5;
x = 20;
y = 0;
}
);
};
},
{
color = 5;
glyphname = oe;
kernLeft = o;
kernRight = e;
layers = (
{
anchors = (
{
name = bottom;
pos = (309,0);
},
{
name = top;
pos = (429,520);
}
);
hints = (
{
horizontal = 1;
place = (0, 0);
type = Tag;
},
{
horizontal = 1;
place = (0, 0);
type = Tag;
},
{
horizontal = 1;
place = (0, 0);
type = Tag;
},
{
horizontal = 1;
place = (0, 0);
type = Tag;
}
);
layerId = "FF2DC345-5101-49B6-97F3-57A040F7C387";
shapes = (
{
closed = 1;
nodes = (
(218,-5,o),
(274.667,24.667,o),
(326,84,c),
(352.667,29.333,o),
(410,-5,o),
(485,-5,cs),
(560,-5,o),
(663,49,o),
(663,85,cs),
(663,98,o),
(654,105,o),
(637,105,cs),
(613,105,o),
(564,70,o),
(469,70,cs),
(413,70,o),
(385,95,o),
(385,145,cs),
(385,170,o),
(390.333,194.667,o),
(401,220,c),
(441,210,o),
(483,205,o),
(523,205,cs),
(607,205,o),
(718,241,o),
(718,325.5,cs),
(718,396.833,o),
(641,491,o),
(561,491,cs),
(507,491,o),
(453.667,458.333,o),
(401,393,c),
(378.333,450.333,o),
(333.333,491,o),
(276,491,cs),
(142,491,o),
(36,293,o),
(36,161.5,cs),
(36,65,o),
(87,-5,o),
(155,-5,cs)
);
},
{
closed = 1;
nodes = (
(141,70,o),
(122,97,o),
(122,153,cs),
(122,248,o),
(186,401,o),
(290,430,c),
(318,411.333,o),
(333,366,o),
(333,321,cs),
(333,213,o),
(253,80,o),
(160,64,c)
);
},
{
closed = 1;
nodes = (
(476,269,o),
(446.333,272,o),
(423,278,c),
(460.333,354,o),
(517.667,412,o),
(567,412,cs),
(599,412,o),
(640,365,o),
(640,329,cs),
(640,293,o),
(582,269,o),
(511,269,cs)
);
}
);
width = 754;
}
);
unicode = 339;
userData = {
com.typemytype.robofont.guides = (
{
angle = 90;
isGlobal = 0;
magnetic = 5;
x = 51;
y = 0;
},
{
angle = 90;
isGlobal = 0;
magnetic = 5;
x = 495;
y = 0;
}
);
};
},
{
color = 5;
glyphname = p;
kernLeft = n;
kernRight = b;
layers = (
{
anchors = (
{
name = bottom;
pos = (299,0);
},
{
name = top;
pos = (299,520);
}
);
hints = (
{
horizontal = 1;
place = (0, 0);
type = Tag;
},
{
horizontal = 1;
place = (0, 0);
type = Tag;
}
);
layerId = "FF2DC345-5101-49B6-97F3-57A040F7C387";
shapes = (
{
closed = 1;
nodes = (
(16,-262,o),
(26,-242,o),
(39,-194,cs),
(56,-132,o),
(64,-90,o),
(86,2,c),
(98,-1,o),
(111,-3,o),
(124,-3,cs),
(266,-3,o),
(466,178,o),
(465,326,cs),
(465,389,o),
(424,494,o),
(358,494,cs),
(297,494,o),
(236,455,o),
(177,378,c),
(180,391,o),
(181,402,o),
(181,413,cs),
(181,456,o),
(136,498,o),
(112,498,cs),
(97,498,o),
(90,488,o),
(90,468,cs),
(90,378,o),
(58,203,o),
(-6,-56,cs),
(-27,-142,o),
(-38,-189,o),
(-38,-202,cs),
(-38,-223,o),
(-10,-262,o),
(3,-262,cs)
);
},
{
closed = 1;
nodes = (
(122,147,ls),
(158,292,o),
(286,408,o),
(338,408,cs),
(364,408,o),
(377,380,o),
(377,325,cs),
(377,211,o),
(240,75,o),
(104,75,c)
);
}
);
width = 478;
}
);
unicode = 112;
userData = {
com.typemytype.robofont.guides = (
{
angle = 0;
isGlobal = 0;
magnetic = 5;
x = 0;
y = 530;
},
{
angle = 0;
isGlobal = 0;
magnetic = 5;
x = 0;
y = "-10";
},
{
angle = 0;
isGlobal = 0;
magnetic = 5;
x = 0;
y = 422;
},
{
angle = 0;
isGlobal = 0;
magnetic = 5;
x = 0;
y = "-190";
},
{
angle = 90;
isGlobal = 0;
magnetic = 5;
x = 419;
y = 0;
},
{
angle = 90;
isGlobal = 0;
magnetic = 5;
x = "-609";
y = 0;
},
{
angle = 90;
isGlobal = 0;
magnetic = 5;
x = 79;
y = 0;
},
{
angle = 90;
isGlobal = 0;
magnetic = 5;
x = 122;
y = 0;
},
{
angle = 90;
isGlobal = 0;
magnetic = 5;
x = 291;
y = 0;
}
);
};
},
{
color = 5;
glyphname = thorn;
kernLeft = h;
kernRight = b;
layers = (
{
anchors = (
{
name = bottom;
pos = (249,0);
},
{
name = top;
pos = (319,520);
}
);
hints = (
{
horizontal = 1;
place = (0, 0);
type = Tag;
}
);
layerId = "FF2DC345-5101-49B6-97F3-57A040F7C387";
shapes = (
{
closed = 1;
nodes = (
(51.5,-220,o),
(82.333,-116.667,o),
(135,90,c),
(153,76,o),
(179,68,o),
(209,68,cs),
(321,68,o),
(500,172,o),
(500,302,cs),
(500,386,o),
(404.5,483,o),
(334.5,483,cs),
(299.5,483,o),
(260.667,473.333,o),
(218,454,c),
(236,547.333,o),
(245,606.167,o),
(245,630.5,cs),
(245,679.167,o),
(205,726,o),
(185,726,cs),
(165,726,o),
(161,717,o),
(161,696,cs),
(161,478,o),
(-9,-99,o),
(-9,-157,cs),
(-9,-185,o),
(25,-220,o),
(42.5,-220,cs)
);
},
{
closed = 1;
nodes = (
(177,142,o),
(165,145,o),
(150,152,c),
(173.333,242.667,o),
(189.333,309.667,o),
(198,353,c),
(249,384,o),
(290,398,o),
(324,398,cs),
(377,398,o),
(420,357,o),
(420,302,cs),
(420,223,o),
(292,142,o),
(193,142,cs)
);
}
);
width = 526;
}
);
unicode = 254;
userData = {
com.typemytype.robofont.guides = (
{
angle = 0;
isGlobal = 0;
magnetic = 5;
x = 0;
y = 710;
}
);
};
},
{
color = 5;
glyphname = q;
kernLeft = d;
kernRight = u;
layers = (
{
anchors = (
{
name = bottom;
pos = (299,0);
},
{
name = top;
pos = (299,520);
}
);
hints = (
{
horizontal = 1;
place = (0, 0);
type = Tag;
},
{
horizontal = 1;
place = (0, 0);
type = Tag;
}
);
layerId = "FF2DC345-5101-49B6-97F3-57A040F7C387";
shapes = (
{
closed = 1;
nodes = (
(235,-265,o),
(286,-227,o),
(334,-194,cs),
(380,-164,o),
(424,-141,o),
(424,-125,cs),
(424,-112,o),
(409,-98,o),
(396,-98,cs),
(369,-98,o),
(332,-114,o),
(283,-147,c),
(352,49,o),
(431,224,o),
(431,269,cs),
(431,287,o),
(397,314,o),
(373,314,cs),
(362,314,o),
(354,308,o),
(352,299,cs),
(319,170,o),
(205,78,o),
(132,78,cs),
(111,78,o),
(94,95,o),
(94,116,cs),
(94,204,o),
(235,411,o),
(327,411,cs),
(359,411,o),
(389,366,o),
(412,366,cs),
(422,366,o),
(430,375,o),
(430,389,cs),
(430,420,o),
(377,491,o),
(310,491,cs),
(183,491,o),
(16,248,o),
(16,123,cs),
(16,65,o),
(82,-5,o),
(129,-5,cs),
(176,-5,o),
(233,23,o),
(278,67,c),
(260,18,o),
(185,-166,o),
(185,-210,cs),
(185,-226,o),
(207,-265,o),
(223,-265,cs)
);
}
);
width = 474;
}
);
unicode = 113;
userData = {
com.typemytype.robofont.guides = (
{
angle = 0;
isGlobal = 0;
magnetic = 5;
x = 0;
y = 530;
},
{
angle = 0;
isGlobal = 0;
magnetic = 5;
x = 0;
y = "-10";
},
{
angle = 0;
isGlobal = 0;
magnetic = 5;
x = 0;
y = "-190";
}
);
};
},
{
color = 5;
glyphname = r;
kernLeft = n;
kernRight = r;
layers = (
{
anchors = (
{
name = bottom;
pos = (122,0);
},
{
name = top;
pos = (207,520);
}
);
hints = (
{
horizontal = 1;
place = (0, 0);
type = Tag;
}
);
layerId = "FF2DC345-5101-49B6-97F3-57A040F7C387";
shapes = (
{
closed = 1;
nodes = (
(85,-7,o),
(100,6,o),
(108,33,cs),
(188,303,o),
(238,379,o),
(330,421,cs),
(363,436,o),
(376,450,o),
(376,466,cs),
(376,482,o),
(360,490,o),
(327,490,cs),
(275,490,o),
(220,446,o),
(162,358,c),
(164,371,o),
(165,387,o),
(165,403,cs),
(165,445,o),
(142,491,o),
(110,491,cs),
(95,491,o),
(88,474,o),
(88,454,cs),
(88,429,o),
(91,394,o),
(91,369,cs),
(91,193,o),
(33,110,o),
(33,48,cs),
(33,28,o),
(47,-7,o),
(71,-7,cs)
);
}
);
width = 331;
}
);
unicode = 114;
userData = {
com.typemytype.robofont.guides = (
{
angle = 0;
isGlobal = 0;
magnetic = 5;
x = 0;
y = 462;
}
);
};
},
{
color = 5;
glyphname = s;
kernLeft = s;
kernRight = s;
layers = (
{
anchors = (
{
name = bottom;
pos = (185,0);
},
{
name = top;
pos = (283,520);
}
);
hints = (
{
horizontal = 1;
place = (0, 0);
type = Tag;
},
{
horizontal = 1;
place = (0, 0);
type = Tag;
}
);
layerId = "FF2DC345-5101-49B6-97F3-57A040F7C387";
shapes = (
{
closed = 1;
nodes = (
(286,-5,o),
(371,57,o),
(371,110,cs),
(371,162,o),
(326,211,o),
(279,240,cs),
(218,277,o),
(187,304,o),
(187,319,cs),
(187,360,o),
(282,406,o),
(314,406,cs),
(348,406,o),
(373,371,o),
(395,371,cs),
(406,371,o),
(411,377,o),
(411,388,cs),
(411,425,o),
(362,491,o),
(317,491,cs),
(244,491,o),
(95,394,o),
(95,323,cs),
(95,283,o),
(142,242,o),
(188,215,cs),
(234,188,o),
(280,152,o),
(280,122,cs),
(280,89,o),
(241,72,o),
(170,72,cs),
(82,72,o),
(56,124,o),
(27,124,cs),
(13,124,o),
(6,109,o),
(6,96,cs),
(6,55,o),
(93,-5,o),
(190,-5,cs)
);
}
);
width = 426;
}
);
unicode = 115;
userData = {
com.typemytype.robofont.guides = (
{
angle = 0;
isGlobal = 0;
magnetic = 5;
x = 0;
y = 265;
},
{
angle = 0;
isGlobal = 0;
magnetic = 5;
x = 0;
y = 139;
},
{
angle = 90;
isGlobal = 0;
magnetic = 5;
x = 250;
y = 0;
}
);
};
},
{
color = 5;
glyphname = scedilla;
layers = (
{
hints = (
{
horizontal = 1;
place = (0, 0);
type = Tag;
},
{
horizontal = 1;
place = (0, 0);
type = Tag;
}
);
layerId = "FF2DC345-5101-49B6-97F3-57A040F7C387";
shapes = (
{
closed = 1;
nodes = (
(6,60,o),
(75,8,o),
(158,-3,c),
(143,-33,ls),
(137,-44,o),
(130,-65,o),
(130,-75,cs),
(130,-88,o),
(147,-108,o),
(159,-108,cs),
(174,-108,o),
(183,-98,o),
(208,-98,cs),
(230,-98,o),
(248,-111,o),
(248,-133,cs),
(248,-156,o),
(230,-172,o),
(208,-172,cs),
(177,-172,o),
(170,-150,o),
(153,-150,cs),
(137,-150,o),
(120,-157,o),
(120,-176,cs),
(120,-200,o),
(136,-220,o),
(208,-220,cs),
(270,-220,o),
(303,-181,o),
(303,-132,cs),
(303,-83,o),
(271,-48,o),
(226,-48,cs),
(213,-48,o),
(197,-51,o),
(189,-56,c),
(207,-4,l),
(296,2,o),
(371,60,o),
(371,110,cs),
(371,162,o),
(326,211,o),
(279,240,cs),
(218,277,o),
(187,304,o),
(187,319,cs),
(187,360,o),
(282,406,o),
(314,406,cs),
(348,406,o),
(373,371,o),
(395,371,cs),
(406,371,o),
(411,377,o),
(411,388,cs),
(411,425,o),
(362,491,o),
(317,491,cs),
(244,491,o),
(95,394,o),
(95,323,cs),
(95,283,o),
(142,242,o),
(188,215,cs),
(234,188,o),
(280,152,o),
(280,122,cs),
(280,89,o),
(241,72,o),
(170,72,cs),
(82,72,o),
(56,124,o),
(27,124,cs),
(13,124,o),
(6,109,o),
(6,96,cs)
);
}
);
width = 426;
}
);
unicode = 351;
},
{
color = 5;
glyphname = germandbls;
kernLeft = h;
layers = (
{
anchors = (
{
name = bottom;
pos = (295,0);
},
{
name = top;
pos = (295,520);
}
);
hints = (
{
horizontal = 1;
place = (0, 0);
type = Tag;
}
);
layerId = "FF2DC345-5101-49B6-97F3-57A040F7C387";
shapes = (
{
closed = 1;
nodes = (
(119,-5,o),
(169,154,o),
(234,472,cs),
(252,564,o),
(292,607,o),
(345,607,cs),
(390,607,o),
(437,561,o),
(437,502,cs),
(437,425,o),
(301,401,o),
(301,352,cs),
(301,284,o),
(437,260,o),
(437,168,cs),
(437,109,o),
(362,70,o),
(321,70,cs),
(304,70,o),
(278,74,o),
(261,74,cs),
(244,74,o),
(233,66,o),
(233,52,cs),
(233,21,o),
(268,-3,o),
(325,-3,cs),
(429,-3,o),
(521,65,o),
(521,165,cs),
(521,278,o),
(396,323,o),
(396,348,cs),
(396,371,o),
(521,401,o),
(521,508,cs),
(521,593,o),
(443,690,o),
(356,690,cs),
(241,690,o),
(171,616,o),
(150,497,cs),
(132,400,o),
(47,66,o),
(47,49,cs),
(47,27,o),
(67,-5,o),
(92,-5,cs)
);
}
);
width = 585;
}
);
unicode = 223;
userData = {
com.typemytype.robofont.guides = (
{
angle = 0;
isGlobal = 0;
magnetic = 5;
x = 0;
y = 527;
},
{
angle = 0;
isGlobal = 0;
magnetic = 5;
x = 0;
y = 601;
},
{
angle = 90;
isGlobal = 0;
magnetic = 5;
x = 267;
y = 0;
},
{
angle = 90;
isGlobal = 0;
magnetic = 5;
x = 499;
y = 0;
}
);
};
},
{
color = 5;
glyphname = t;
kernLeft = t;
kernRight = t;
layers = (
{
anchors = (
{
name = bottom;
pos = (145,0);
},
{
name = center;
pos = (192,260);
},
{
name = top;
pos = (196,520);
},
{
name = topright;
pos = (333,728);
}
);
hints = (
{
horizontal = 1;
place = (0, 0);
type = Tag;
}
);
layerId = "FF2DC345-5101-49B6-97F3-57A040F7C387";
shapes = (
{
closed = 1;
nodes = (
(233,-5,o),
(336,61,o),
(336,100,cs),
(336,113,o),
(330,119,o),
(318,119,cs),
(304,119,o),
(220,76,o),
(165,76,cs),
(150,76,o),
(143,82,o),
(143,95,cs),
(143,110,o),
(214,346,o),
(228,399,c),
(375,424,o),
(397,445,o),
(397,455,cs),
(397,472,o),
(377,482,o),
(337,482,cs),
(314,482,o),
(284,479,o),
(246,476,c),
(256,517,o),
(263,546,o),
(263,568,cs),
(262,618,o),
(211,641,o),
(196,641,cs),
(183,641,o),
(176,631,o),
(176,611,cs),
(176,568,o),
(170,519,o),
(158,464,c),
(71,449,o),
(28,434,o),
(28,418,cs),
(28,398,o),
(54,370,o),
(75,370,cs),
(86,370,o),
(107,374,o),
(138,381,c),
(97,233,o),
(56,134,o),
(56,76,cs),
(56,39,o),
(104,-5,o),
(169,-5,cs)
);
}
);
width = 387;
}
);
unicode = 116;
userData = {
com.typemytype.robofont.guides = (
{
angle = 0;
isGlobal = 0;
magnetic = 5;
x = 0;
y = 175;
},
{
angle = 90;
isGlobal = 0;
magnetic = 5;
x = 342;
y = 0;
},
{
angle = 90;
isGlobal = 0;
magnetic = 5;
x = 35;
y = 0;
}
);
};
},
{
color = 5;
glyphname = u;
kernLeft = u;
kernRight = u;
layers = (
{
anchors = (
{
name = bottom;
pos = (293,0);
},
{
name = ogonek;
pos = (313,67);
},
{
name = top;
pos = (288,490);
},
{
name = topright;
pos = (456,490);
}
);
hints = (
{
horizontal = 1;
place = (0, 0);
type = Tag;
},
{
horizontal = 1;
place = (71, 0);
type = Tag;
}
);
layerId = "FF2DC345-5101-49B6-97F3-57A040F7C387";
shapes = (
{
closed = 1;
nodes = (
(183,-5,o),
(253,60,o),
(309,151,c),
(298,114,o),
(285,66,o),
(285,44,cs),
(285,17,o),
(294,-5,o),
(317,-5,cs),
(332,-5,o),
(343,9,o),
(351,37,cs),
(367,92,o),
(463,396,o),
(463,415,cs),
(463,447,o),
(429,491,o),
(411,491,cs),
(393,491,o),
(390,484,o),
(385,463,cs),
(357,362,o),
(296,231,o),
(226,142,cs),
(191,97,o),
(160,75,o),
(135,75,cs),
(116,75,o),
(101,91,o),
(101,112,cs),
(101,187,o),
(146,299,o),
(182,373,cs),
(200,410,o),
(209,431,o),
(209,437,cs),
(209,465,o),
(188,491,o),
(164,491,cs),
(112,491,o),
(16,238,o),
(16,111,cs),
(16,58,o),
(65,-5,o),
(129,-5,cs)
);
}
);
width = 481;
}
);
unicode = 117;
userData = {
com.typemytype.robofont.guides = (
{
angle = 0;
isGlobal = 0;
magnetic = 5;
x = 0;
y = "-10";
},
{
angle = 90;
isGlobal = 0;
magnetic = 5;
x = 432;
y = 0;
},
{
angle = 90;
isGlobal = 0;
magnetic = 5;
x = 126;
y = 0;
},
{
angle = 90;
isGlobal = 0;
magnetic = 5;
x = 65;
y = 0;
}
);
};
},
{
color = 5;
glyphname = uogonek;
layers = (
{
anchors = (
{
name = bottom;
pos = (293,0);
},
{
name = ogonek;
pos = (313,67);
},
{
name = top;
pos = (308,490);
},
{
name = topright;
pos = (456,490);
}
);
hints = (
{
horizontal = 1;
origin = (0,23);
type = Tag;
},
{
horizontal = 1;
origin = (0,29);
type = Tag;
},
{
horizontal = 1;
place = (0, 0);
type = Tag;
},
{
horizontal = 1;
place = (71, 0);
type = Tag;
}
);
layerId = "FF2DC345-5101-49B6-97F3-57A040F7C387";
shapes = (
{
closed = 1;
nodes = (
(183,-5,o),
(253,60,o),
(309,151,c),
(298,114,o),
(285,66,o),
(285,34,c),
(214,9,o),
(182,-57,o),
(182,-107,cs),
(182,-185,o),
(233,-222,o),
(322,-222,cs),
(353,-222,o),
(363,-212,o),
(363,-176,cs),
(363,-162,o),
(352,-153,o),
(334,-153,cs),
(321,-153,o),
(310,-163,o),
(296,-163,cs),
(253,-163,o),
(240,-133,o),
(240,-107,cs),
(240,-82,o),
(248,-25,o),
(305,-5,cs),
(327,3,o),
(346,19,o),
(351,37,cs),
(366,92,o),
(463,396,o),
(463,415,cs),
(463,447,o),
(429,491,o),
(411,491,cs),
(393,491,o),
(390,484,o),
(385,463,cs),
(357,362,o),
(296,231,o),
(226,142,cs),
(191,97,o),
(160,75,o),
(135,75,cs),
(116,75,o),
(101,91,o),
(101,112,cs),
(101,187,o),
(146,299,o),
(182,373,cs),
(200,410,o),
(209,431,o),
(209,437,cs),
(209,465,o),
(188,491,o),
(164,491,cs),
(112,491,o),
(16,238,o),
(16,111,cs),
(16,58,o),
(65,-5,o),
(129,-5,cs)
);
}
);
width = 481;
}
);
unicode = 371;
},
{
color = 5;
glyphname = v;
layers = (
{
anchors = (
{
name = bottom;
pos = (277,0);
},
{
name = top;
pos = (277,520);
}
);
hints = (
{
horizontal = 1;
place = (0, 0);
type = Tag;
}
);
layerId = "FF2DC345-5101-49B6-97F3-57A040F7C387";
shapes = (
{
closed = 1;
nodes = (
(211,-7,o),
(229,12,o),
(250,49,cs),
(290,123,o),
(425,415,o),
(425,451,cs),
(425,471,o),
(399,491,o),
(376,491,cs),
(362,491,o),
(346,460,o),
(333,426,cs),
(291,318,o),
(245,203,o),
(198,103,c),
(153,215,o),
(155,347,o),
(142,426,cs),
(135,466,o),
(94,491,o),
(65,491,cs),
(53,491,o),
(47,481,o),
(47,461,cs),
(47,374,o),
(100,137,o),
(136,53,cs),
(148,24,o),
(179,-7,o),
(196,-7,cs)
);
}
);
width = 422;
}
);
unicode = 118;
userData = {
com.typemytype.robofont.guides = (
{
angle = 90;
isGlobal = 0;
magnetic = 5;
x = 267;
y = 0;
}
);
};
},
{
color = 5;
glyphname = w;
kernLeft = w;
kernRight = w;
layers = (
{
anchors = (
{
name = bottom;
pos = (331,0);
},
{
name = top;
pos = (391,510);
}
);
hints = (
{
horizontal = 1;
place = (499, 0);
type = Tag;
}
);
layerId = "FF2DC345-5101-49B6-97F3-57A040F7C387";
shapes = (
{
closed = 1;
nodes = (
(175,-7,o),
(203,25,o),
(238,89,cs),
(273,153,o),
(314,248,o),
(360,373,c),
(353,265,o),
(353,84,o),
(377,32,cs),
(388,6,o),
(406,-7,o),
(429,-7,cs),
(476,-7,o),
(577,136,o),
(629,280,cs),
(660,358,o),
(675,414,o),
(675,448,cs),
(675,475,o),
(651,499,o),
(626,499,cs),
(596,499,o),
(582,394,o),
(555,302,cs),
(534,233,o),
(490,144,o),
(433,84,c),
(426,107,o),
(426,145,o),
(426,197,cs),
(426,260,o),
(433,322,o),
(433,385,cs),
(433,450,o),
(401,495,o),
(357,495,cs),
(322,495,o),
(288,388,o),
(241,266,cs),
(213,195,o),
(185,135,o),
(158,88,c),
(133,226,o),
(143,347,o),
(134,423,cs),
(130,455,o),
(101,497,o),
(72,497,cs),
(55,497,o),
(47,483,o),
(47,456,cs),
(47,371,o),
(71,111,o),
(100,40,cs),
(112,12,o),
(135,-7,o),
(154,-7,cs)
);
}
);
width = 673;
}
);
unicode = 119;
userData = {
com.typemytype.robofont.guides = (
{
angle = 90;
isGlobal = 0;
magnetic = 5;
x = 45;
y = 0;
},
{
angle = 90;
isGlobal = 0;
magnetic = 5;
x = 737;
y = 0;
}
);
};
},
{
color = 5;
glyphname = x;
layers = (
{
anchors = (
{
name = bottom;
pos = (210,0);
},
{
name = top;
pos = (270,520);
}
);
hints = (
{
horizontal = 1;
place = (15, 0);
type = Tag;
}
);
layerId = "FF2DC345-5101-49B6-97F3-57A040F7C387";
shapes = (
{
closed = 1;
nodes = (
(59,-5,o),
(112,49,o),
(199,156,c),
(265,49,o),
(313,-5,o),
(343,-5,cs),
(355,-5,o),
(367,2,o),
(367,16,cs),
(367,27,o),
(362,37,o),
(351,54,cs),
(338,77,o),
(301,128,o),
(250,217,c),
(328,314,o),
(372,374,o),
(413,408,cs),
(433,424,o),
(442,432,o),
(442,448,cs),
(442,463,o),
(411,491,o),
(386,491,cs),
(373,491,o),
(354,476,o),
(328,447,cs),
(301,418,o),
(261,367,o),
(207,294,c),
(168,370,o),
(148,422,o),
(148,450,cs),
(148,474,o),
(97,491,o),
(75,491,cs),
(55,491,o),
(47,488,o),
(47,475,cs),
(47,459,o),
(51,435,o),
(79,379,cs),
(102,332,o),
(126,282,o),
(157,227,c),
(125,186,o),
(77,134,o),
(12,69,cs),
(-3,54,o),
(-10,46,o),
(-10,38,cs),
(-10,23,o),
(19,-5,o),
(40,-5,cs)
);
}
);
width = 427;
}
);
unicode = 120;
userData = {
com.typemytype.robofont.guides = (
{
angle = 90;
isGlobal = 0;
magnetic = 5;
x = 255;
y = 0;
}
);
};
},
{
color = 5;
glyphname = y;
kernLeft = y;
kernRight = y;
layers = (
{
anchors = (
{
name = bottom;
pos = (276,0);
},
{
name = top;
pos = (313,510);
}
);
hints = (
{
horizontal = 1;
place = (-173, 0);
type = Tag;
}
);
layerId = "FF2DC345-5101-49B6-97F3-57A040F7C387";
shapes = (
{
closed = 1;
nodes = (
(209,-265,o),
(258,-217,o),
(292,-122,cs),
(350,39,o),
(475,373,o),
(475,415,cs),
(475,454,o),
(443,491,o),
(422,491,cs),
(411,491,o),
(405,487,o),
(402,480,cs),
(377,403,o),
(352,340,o),
(329,291,cs),
(273,174,o),
(199,75,o),
(151,75,cs),
(132,75,o),
(117,91,o),
(117,112,cs),
(117,234,o),
(224,407,o),
(224,441,cs),
(224,465,o),
(201,491,o),
(175,491,cs),
(120,491,o),
(31,224,o),
(31,126,cs),
(31,55,o),
(88,-5,o),
(144,-5,cs),
(190,-5,o),
(237,27,o),
(284,92,c),
(212,-133,o),
(184,-199,o),
(143,-199,cs),
(116,-199,o),
(83,-177,o),
(44,-133,cs),
(31,-119,o),
(23,-111,o),
(15,-111,cs),
(2,-111,o),
(-19,-142,o),
(-19,-159,cs),
(-19,-208,o),
(66,-265,o),
(142,-265,cs)
);
}
);
width = 469;
}
);
unicode = 121;
},
{
color = 5;
glyphname = z;
kernLeft = z;
kernRight = z;
layers = (
{
anchors = (
{
name = bottom;
pos = (254,0);
},
{
name = center;
pos = (254,260);
},
{
name = top;
pos = (255,520);
}
);
hints = (
{
horizontal = 1;
place = (79, 0);
type = Tag;
}
);
layerId = "FF2DC345-5101-49B6-97F3-57A040F7C387";
shapes = (
{
closed = 1;
nodes = (
(242,-5,o),
(411,28,o),
(411,71,cs),
(411,86,o),
(398,94,o),
(372,94,cs),
(331,94,o),
(254,78,o),
(133,78,cs),
(116,78,o),
(107,84,o),
(107,95,cs),
(107,116,o),
(182,165,o),
(255,215,cs),
(328,266,o),
(403,338,o),
(403,389,cs),
(403,464,o),
(318,492,o),
(190,492,cs),
(157,492,o),
(54,480,o),
(54,451,cs),
(54,431,o),
(86,394,o),
(108,394,cs),
(139,394,o),
(183,405,o),
(223,405,cs),
(291,405,o),
(325,399,o),
(325,386,cs),
(325,367,o),
(271,321,o),
(164,246,cs),
(84,191,o),
(3,123,o),
(3,87,cs),
(3,51,o),
(61,-5,o),
(118,-5,cs)
);
}
);
width = 440;
}
);
unicode = 122;
userData = {
com.typemytype.robofont.guides = (
{
angle = 0;
isGlobal = 0;
magnetic = 5;
x = 0;
y = 36;
},
{
angle = 90;
isGlobal = 0;
magnetic = 5;
x = 480;
y = 0;
},
{
angle = 90;
isGlobal = 0;
magnetic = 5;
x = 70;
y = 0;
}
);
};
},
{
color = 5;
glyphname = ordfeminine;
layers = (
{
hints = (
{
horizontal = 1;
place = (644, 0);
type = Tag;
}
);
layerId = "FF2DC345-5101-49B6-97F3-57A040F7C387";
shapes = (
{
closed = 1;
nodes = (
(239.333,389,o),
(281.333,414,o),
(322,464,c),
(326,422.667,o),
(345,389,o),
(364,389,cs),
(374,389,o),
(381,405,o),
(381,417,cs),
(381,559,o),
(406,594,o),
(406,646,cs),
(406,687,o),
(353,751,o),
(294,751,cs),
(181,751,o),
(93,582.333,o),
(93,487.5,cs),
(93,442.833,o),
(144,389,o),
(196,389,cs)
);
},
{
closed = 1;
nodes = (
(174.5,453,o),
(162,466.333,o),
(162,493,cs),
(162,562.333,o),
(233.333,684,o),
(296,684,cs),
(322.667,684,o),
(343,660.333,o),
(347,635,c),
(317.667,529.667,o),
(249.5,453,o),
(199.5,453,cs)
);
}
);
width = 474;
}
);
unicode = 170;
},
{
color = 5;
glyphname = ordmasculine;
layers = (
{
hints = (
{
horizontal = 1;
place = (594, 0);
type = Tag;
}
);
layerId = "FF2DC345-5101-49B6-97F3-57A040F7C387";
shapes = (
{
closed = 1;
nodes = (
(322,391,o),
(403,502,o),
(403,602,cs),
(403,677,o),
(360,751,o),
(292,751,cs),
(189,751,o),
(108,643,o),
(108,534,cs),
(108,461,o),
(152,391,o),
(211,391,cs)
);
},
{
closed = 1;
nodes = (
(187,468,o),
(175,499,o),
(175,533,cs),
(175,594,o),
(213,672,o),
(291,691,c),
(323,675,o),
(336,643,o),
(336,606,cs),
(336,538,o),
(295,461,o),
(214,448,c)
);
}
);
width = 452;
}
);
unicode = 186;
userData = {
com.typemytype.robofont.guides = (
{
angle = 0;
isGlobal = 0;
magnetic = 5;
x = 0;
y = 589;
},
{
angle = 0;
isGlobal = 0;
magnetic = 5;
x = 0;
y = 545;
},
{
angle = 0;
isGlobal = 0;
magnetic = 5;
x = 0;
y = 429;
},
{
angle = 0;
isGlobal = 0;
magnetic = 5;
x = 0;
y = 705;
},
{
angle = 90;
isGlobal = 0;
magnetic = 5;
x = 134;
y = 0;
}
);
};
},
{
color = 5;
glyphname = uni05D2.alt_uni05F3;
layers = (
{
layerId = "FF2DC345-5101-49B6-97F3-57A040F7C387";
shapes = (
{
closed = 1;
nodes = (
(-90,-87,o),
(-50,-44,o),
(36,-44,cs),
(72,-44,o),
(116,-49,o),
(147,-49,cs),
(263,-49,o),
(372,102,o),
(372,223,cs),
(372,237,o),
(361,244,o),
(349,244,cs),
(309,244,o),
(270,234,o),
(270,198,cs),
(270,111,o),
(232,2,o),
(148,2,cs),
(112,2,o),
(69,9,o),
(21,9,cs),
(-117,9,o),
(-141,-39,o),
(-239,-39,cs),
(-270,-39,o),
(-287,-35,o),
(-297,-35,cs),
(-304,-35,o),
(-306,-39,o),
(-306,-43,cs),
(-306,-65,o),
(-259,-87,o),
(-189,-87,cs)
);
},
{
closed = 1;
nodes = (
(147,467,o),
(254,582,o),
(254,607,cs),
(254,627,o),
(223,640,o),
(204,640,cs),
(191,640,o),
(183,634,o),
(179,628,cs),
(121,536,o),
(82,507,o),
(82,486,cs),
(82,475,o),
(92,467,o),
(106,467,cs)
);
}
);
width = 405;
},
{
associatedMasterId = "FF2DC345-5101-49B6-97F3-57A040F7C387";
layerId = "688BE758-80D8-4EA7-9175-E8AC9F99B18B";
name = "Aug 30, 22, 18:35";
shapes = (
{
closed = 1;
nodes = (
(-174,-87,o),
(-158,-86,o),
(-140,-83,cs),
(-87,-77,o),
(-59,-53,o),
(7,-46,cs),
(16,-45,o),
(25,-44,o),
(36,-44,cs),
(72,-44,o),
(116,-49,o),
(147,-49,cs),
(263,-49,o),
(372,102,o),
(372,223,cs),
(372,237,o),
(361,244,o),
(349,244,cs),
(309,244,o),
(270,234,o),
(270,198,cs),
(270,111,o),
(232,2,o),
(148,2,cs),
(112,2,o),
(69,9,o),
(21,9,cs),
(10,9,o),
(-1,9,o),
(-12,8,cs),
(-135,-1,o),
(-143,-39,o),
(-239,-39,cs),
(-255,-39,o),
(-273,-38,o),
(-295,-35,cs),
(-296,-35,o),
(-297,-35,o),
(-297,-35,cs),
(-304,-35,o),
(-306,-39,o),
(-306,-43,cs),
(-306,-44,o),
(-306,-45,o),
(-306,-46,cs),
(-303,-65,o),
(-259,-87,o),
(-189,-87,cs)
);
},
{
closed = 1;
nodes = (
(110,467,o),
(113,468,o),
(117,469,cs),
(152,476,o),
(220,550,o),
(250,594,cs),
(253,598,o),
(254,602,o),
(254,607,cs),
(254,615,o),
(249,625,o),
(234,632,cs),
(222,638,o),
(212,640,o),
(204,640,cs),
(191,640,o),
(183,634,o),
(179,628,cs),
(123,543,o),
(88,508,o),
(82,491,cs),
(82,489,o),
(82,487,o),
(82,486,cs),
(82,475,o),
(92,467,o),
(106,467,cs)
);
}
);
visible = 1;
width = 405;
}
);
},
{
color = 5;
glyphname = uni05D3.alt_uni05F3;
layers = (
{
layerId = "FF2DC345-5101-49B6-97F3-57A040F7C387";
shapes = (
{
closed = 1;
nodes = (
(244,0,o),
(301,98,o),
(301,199,cs),
(301,284,o),
(254,304,o),
(202,304,cs),
(165,304,o),
(112,290,o),
(80,290,cs),
(21,290,o),
(10,314,o),
(-11,314,cs),
(-37,314,o),
(-59,298,o),
(-59,272,cs),
(-59,250,o),
(-41,231,o),
(7,231,cs),
(46,231,o),
(118,252,o),
(153,252,cs),
(187,252,o),
(211,238,o),
(211,190,cs),
(211,136,o),
(190,53,o),
(129,42,cs),
(118,40,o),
(108,28,o),
(108,18,cs),
(108,8,o),
(116,0,o),
(136,0,cs)
);
},
{
closed = 1;
nodes = (
(176,467,o),
(282,583,o),
(282,607,cs),
(282,627,o),
(251,640,o),
(232,640,cs),
(219,640,o),
(211,634,o),
(207,628,cs),
(151,543,o),
(109,504,o),
(109,486,cs),
(109,475,o),
(119,467,o),
(134,467,cs)
);
}
);
width = 333;
},
{
associatedMasterId = "FF2DC345-5101-49B6-97F3-57A040F7C387";
layerId = "AEE58CF8-245A-4F12-8E07-3C53F758CD75";
name = "Aug 30, 22, 15:00";
shapes = (
{
closed = 1;
nodes = (
(235,0,o),
(294,87,o),
(301,180,cs),
(301,187,o),
(301,193,o),
(301,199,cs),
(301,284,o),
(254,304,o),
(202,304,cs),
(159,304,o),
(112,291,o),
(83,290,cs),
(82,290,o),
(81,290,o),
(80,290,cs),
(14,290,o),
(15,314,o),
(-11,314,cs),
(-15,314,o),
(-21,313,o),
(-28,312,cs),
(-46,307,o),
(-59,289,o),
(-59,272,cs),
(-59,251,o),
(-41,231,o),
(7,231,cs),
(14,231,o),
(21,232,o),
(29,233,cs),
(70,237,o),
(117,252,o),
(153,252,cs),
(187,252,o),
(211,238,o),
(211,190,cs),
(211,184,o),
(211,177,o),
(210,170,cs),
(203,98,o),
(174,50,o),
(129,42,cs),
(118,40,o),
(108,28,o),
(108,18,cs),
(108,8,o),
(116,0,o),
(136,0,cs)
);
},
{
closed = 1;
nodes = (
(138,467,o),
(141,468,o),
(145,469,cs),
(179,476,o),
(248,550,o),
(278,594,cs),
(281,598,o),
(282,602,o),
(282,607,cs),
(282,615,o),
(277,625,o),
(262,632,cs),
(250,638,o),
(240,640,o),
(232,640,cs),
(219,640,o),
(211,634,o),
(207,628,cs),
(151,543,o),
(116,508,o),
(110,491,cs),
(110,489,o),
(109,487,o),
(109,486,cs),
(109,475,o),
(119,467,o),
(134,467,cs)
);
}
);
visible = 1;
width = 333;
}
);
},
{
color = 10;
export = 0;
glyphname = uni05D2.alt_quoteright;
layers = (
{
layerId = "FF2DC345-5101-49B6-97F3-57A040F7C387";
shapes = (
{
closed = 1;
nodes = (
(-174,-87,o),
(-158,-86,o),
(-140,-83,cs),
(-87,-77,o),
(-59,-53,o),
(7,-46,cs),
(16,-45,o),
(25,-44,o),
(36,-44,cs),
(72,-44,o),
(116,-49,o),
(147,-49,cs),
(263,-49,o),
(372,102,o),
(372,223,cs),
(372,237,o),
(361,244,o),
(349,244,cs),
(309,244,o),
(270,234,o),
(270,198,cs),
(270,111,o),
(232,2,o),
(148,2,cs),
(112,2,o),
(69,9,o),
(21,9,cs),
(10,9,o),
(-1,9,o),
(-12,8,cs),
(-135,-1,o),
(-143,-39,o),
(-239,-39,cs),
(-255,-39,o),
(-273,-38,o),
(-295,-35,cs),
(-296,-35,o),
(-297,-35,o),
(-297,-35,cs),
(-304,-35,o),
(-306,-39,o),
(-306,-43,cs),
(-306,-44,o),
(-306,-45,o),
(-306,-46,cs),
(-303,-65,o),
(-259,-87,o),
(-189,-87,cs)
);
},
{
closed = 1;
nodes = (
(110,467,o),
(113,468,o),
(117,469,cs),
(152,476,o),
(220,550,o),
(250,594,cs),
(253,598,o),
(254,602,o),
(254,607,cs),
(254,615,o),
(249,625,o),
(234,632,cs),
(222,638,o),
(212,640,o),
(204,640,cs),
(191,640,o),
(183,634,o),
(179,628,cs),
(123,543,o),
(88,508,o),
(82,491,cs),
(82,489,o),
(82,487,o),
(82,486,cs),
(82,475,o),
(92,467,o),
(106,467,cs)
);
}
);
width = 405;
}
);
},
{
color = 10;
export = 0;
glyphname = uni05D3.alt_quoteright;
layers = (
{
layerId = "FF2DC345-5101-49B6-97F3-57A040F7C387";
shapes = (
{
closed = 1;
nodes = (
(235,0,o),
(294,87,o),
(301,180,cs),
(301,187,o),
(301,193,o),
(301,199,cs),
(301,284,o),
(254,304,o),
(202,304,cs),
(159,304,o),
(112,291,o),
(83,290,cs),
(82,290,o),
(81,290,o),
(80,290,cs),
(14,290,o),
(15,314,o),
(-11,314,cs),
(-15,314,o),
(-21,313,o),
(-28,312,cs),
(-46,307,o),
(-59,289,o),
(-59,272,cs),
(-59,251,o),
(-41,231,o),
(7,231,cs),
(14,231,o),
(21,232,o),
(29,233,cs),
(70,237,o),
(117,252,o),
(153,252,cs),
(187,252,o),
(211,238,o),
(211,190,cs),
(211,184,o),
(211,177,o),
(210,170,cs),
(203,98,o),
(174,50,o),
(129,42,cs),
(118,40,o),
(108,28,o),
(108,18,cs),
(108,8,o),
(116,0,o),
(136,0,cs)
);
},
{
closed = 1;
nodes = (
(138,467,o),
(141,468,o),
(145,469,cs),
(179,476,o),
(248,550,o),
(278,594,cs),
(281,598,o),
(282,602,o),
(282,607,cs),
(282,615,o),
(277,625,o),
(262,632,cs),
(250,638,o),
(240,640,o),
(232,640,cs),
(219,640,o),
(211,634,o),
(207,628,cs),
(151,543,o),
(116,508,o),
(110,491,cs),
(110,489,o),
(109,487,o),
(109,486,cs),
(109,475,o),
(119,467,o),
(134,467,cs)
);
}
);
width = 333;
}
);
},
{
color = 10;
export = 0;
glyphname = uni05D2.alt_quotesingle;
layers = (
{
layerId = "FF2DC345-5101-49B6-97F3-57A040F7C387";
shapes = (
{
closed = 1;
nodes = (
(-174,-87,o),
(-158,-86,o),
(-140,-83,cs),
(-87,-77,o),
(-59,-53,o),
(7,-46,cs),
(16,-45,o),
(25,-44,o),
(36,-44,cs),
(72,-44,o),
(116,-49,o),
(147,-49,cs),
(263,-49,o),
(372,102,o),
(372,223,cs),
(372,237,o),
(361,244,o),
(349,244,cs),
(309,244,o),
(270,234,o),
(270,198,cs),
(270,111,o),
(232,2,o),
(148,2,cs),
(112,2,o),
(69,9,o),
(21,9,cs),
(10,9,o),
(-1,9,o),
(-12,8,cs),
(-135,-1,o),
(-143,-39,o),
(-239,-39,cs),
(-255,-39,o),
(-273,-38,o),
(-295,-35,cs),
(-296,-35,o),
(-297,-35,o),
(-297,-35,cs),
(-304,-35,o),
(-306,-39,o),
(-306,-43,cs),
(-306,-44,o),
(-306,-45,o),
(-306,-46,cs),
(-303,-65,o),
(-259,-87,o),
(-189,-87,cs)
);
},
{
closed = 1;
nodes = (
(110,467,o),
(113,468,o),
(117,469,cs),
(152,476,o),
(220,550,o),
(250,594,cs),
(253,598,o),
(254,602,o),
(254,607,cs),
(254,615,o),
(249,625,o),
(234,632,cs),
(222,638,o),
(212,640,o),
(204,640,cs),
(191,640,o),
(183,634,o),
(179,628,cs),
(123,543,o),
(88,508,o),
(82,491,cs),
(82,489,o),
(82,487,o),
(82,486,cs),
(82,475,o),
(92,467,o),
(106,467,cs)
);
}
);
width = 405;
}
);
},
{
color = 10;
export = 0;
glyphname = uni05D3.alt_quotesingle;
layers = (
{
layerId = "FF2DC345-5101-49B6-97F3-57A040F7C387";
shapes = (
{
closed = 1;
nodes = (
(235,0,o),
(294,87,o),
(301,180,cs),
(301,187,o),
(301,193,o),
(301,199,cs),
(301,284,o),
(254,304,o),
(202,304,cs),
(159,304,o),
(112,291,o),
(83,290,cs),
(82,290,o),
(81,290,o),
(80,290,cs),
(14,290,o),
(15,314,o),
(-11,314,cs),
(-15,314,o),
(-21,313,o),
(-28,312,cs),
(-46,307,o),
(-59,289,o),
(-59,272,cs),
(-59,251,o),
(-41,231,o),
(7,231,cs),
(14,231,o),
(21,232,o),
(29,233,cs),
(70,237,o),
(117,252,o),
(153,252,cs),
(187,252,o),
(211,238,o),
(211,190,cs),
(211,184,o),
(211,177,o),
(210,170,cs),
(203,98,o),
(174,50,o),
(129,42,cs),
(118,40,o),
(108,28,o),
(108,18,cs),
(108,8,o),
(116,0,o),
(136,0,cs)
);
},
{
closed = 1;
nodes = (
(138,467,o),
(141,468,o),
(145,469,cs),
(179,476,o),
(248,550,o),
(278,594,cs),
(281,598,o),
(282,602,o),
(282,607,cs),
(282,615,o),
(277,625,o),
(262,632,cs),
(250,638,o),
(240,640,o),
(232,640,cs),
(219,640,o),
(211,634,o),
(207,628,cs),
(151,543,o),
(116,508,o),
(110,491,cs),
(110,489,o),
(109,487,o),
(109,486,cs),
(109,475,o),
(119,467,o),
(134,467,cs)
);
}
);
width = 333;
}
);
},
{
color = 5;
glyphname = "alef-hb";
kernLeft = "alef-hb";
kernRight = "alef-hb";
layers = (
{
anchors = (
{
name = bottom;
pos = (85,0);
},
{
name = bottomleft;
pos = (25,0);
},
{
name = center;
pos = (176,120);
},
{
name = top;
pos = (293,520);
},
{
name = topleft;
pos = (85,520);
}
);
layerId = "FF2DC345-5101-49B6-97F3-57A040F7C387";
shapes = (
{
closed = 1;
nodes = (
(110,-1,o),
(202,461,o),
(248,562,cs),
(255,577,o),
(266,582,o),
(277,582,cs),
(285,582,o),
(291,580,o),
(298,580,cs),
(333,580,o),
(351,620,o),
(351,655,cs),
(351,681,o),
(338,700,o),
(304,700,cs),
(164,700,o),
(46,60,o),
(-61,41,cs),
(-72,39,o),
(-82,27,o),
(-82,17,cs),
(-82,7,o),
(-75,-1,o),
(-55,-1,cs)
);
}
);
width = 156;
},
{
anchors = (
{
name = bottom;
pos = (85,0);
},
{
name = bottomleft;
pos = (25,0);
},
{
name = center;
pos = (176,120);
},
{
name = top;
pos = (293,520);
},
{
name = topleft;
pos = (85,520);
}
);
associatedMasterId = "FF2DC345-5101-49B6-97F3-57A040F7C387";
layerId = "5CF4FD32-8DD9-4A99-A5D3-1AF5D90F9257";
name = "Mar 9, 22, 23:11";
shapes = (
{
closed = 1;
nodes = (
(202,461,o),
(110,-1,o),
(-55,-1,cs),
(-75,-1,o),
(-82,7,o),
(-82,17,cs),
(-82,27,o),
(-72,39,o),
(-61,41,cs),
(46,60,o),
(164,700,o),
(304,700,cs),
(338,700,o),
(351,681,o),
(351,655,cs),
(351,620,o),
(333,580,o),
(298,580,cs),
(295,580,o),
(291,580,o),
(287,581,cs),
(284,582,o),
(280,582,o),
(277,582,cs),
(265,582,o),
(255,577,o),
(248,562,cs)
);
}
);
visible = 1;
width = 156;
}
);
unicode = 1488;
userData = {
com.typemytype.robofont.guides = (
{
angle = 0;
isGlobal = 0;
magnetic = 5;
x = 0;
y = 571;
},
{
angle = 90;
isGlobal = 0;
magnetic = 5;
x = 50;
y = 0;
},
{
angle = 90;
isGlobal = 0;
magnetic = 5;
x = 478;
y = 0;
}
);
};
},
{
color = 5;
glyphname = "bet-hb";
kernLeft = bethebrew;
kernRight = bethebrew;
layers = (
{
anchors = (
{
name = bottom;
pos = (153,0);
},
{
name = bottomleft;
pos = (20,0);
},
{
name = center;
pos = (93,111);
},
{
name = top;
pos = (166,319);
},
{
name = topleft;
pos = (45,223);
}
);
layerId = "FF2DC345-5101-49B6-97F3-57A040F7C387";
shapes = (
{
closed = 1;
nodes = (
(182,0,o),
(271,78,o),
(271,177,cs),
(271,249,o),
(199,279,o),
(136,279,cs),
(72,279,o),
(9,236,o),
(9,214,cs),
(9,205,o),
(17,200,o),
(26,200,cs),
(51,200,o),
(66,232,o),
(118,232,cs),
(154,232,o),
(185,214,o),
(185,172,cs),
(185,102,o),
(126,51,o),
(55,51,cs),
(-12,51,o),
(-42,87,o),
(-66,87,cs),
(-74,87,o),
(-78,83,o),
(-78,76,cs),
(-78,52,o),
(-32,0,o),
(66,0,cs)
);
}
);
userData = {
com.schriftgestaltung.hints = (
{
horizontal = 1;
options = 0;
origin = (
0,
16
);
stem = -2;
type = Tag;
}
);
};
width = 305;
},
{
anchors = (
{
name = bottom;
pos = (153,0);
},
{
name = bottomleft;
pos = (20,0);
},
{
name = center;
pos = (93,111);
},
{
name = top;
pos = (272,220);
},
{
name = topleft;
pos = (20,220);
}
);
associatedMasterId = "FF2DC345-5101-49B6-97F3-57A040F7C387";
layerId = "CA4CA57D-EA13-4938-A2EA-9FC29D217E6A";
name = "Mar 10, 22, 08:52";
shapes = (
{
closed = 1;
nodes = (
(-32,0,o),
(-78,52,o),
(-78,76,cs),
(-78,83,o),
(-74,87,o),
(-66,87,cs),
(-63,87,o),
(-60,87,o),
(-57,86,cs),
(-42,81,o),
(-2,51,o),
(55,51,cs),
(59,51,o),
(63,51,o),
(67,51,cs),
(128,56,o),
(185,104,o),
(185,164,cs),
(185,209,o),
(163,232,o),
(118,232,cs),
(79,232,o),
(62,216,o),
(45,206,cs),
(37,202,o),
(31,200,o),
(26,200,cs),
(18,200,o),
(12,204,o),
(10,209,cs),
(9,211,o),
(9,212,o),
(9,214,cs),
(9,236,o),
(72,279,o),
(136,279,cs),
(199,279,o),
(271,249,o),
(271,177,cs),
(271,78,o),
(182,0,o),
(66,0,cs)
);
}
);
userData = {
com.schriftgestaltung.hints = (
{
horizontal = 1;
options = 0;
origin = (
0,
16
);
stem = -2;
type = Tag;
}
);
};
visible = 1;
width = 305;
}
);
unicode = 1489;
userData = {
com.typemytype.robofont.guides = (
{
angle = 0;
isGlobal = 0;
magnetic = 5;
x = 0;
y = 571;
},
{
angle = 90;
isGlobal = 0;
magnetic = 5;
x = 40;
y = 0;
},
{
angle = 90;
isGlobal = 0;
magnetic = 5;
x = 516;
y = 0;
}
);
};
},
{
color = 5;
glyphname = "gimel-hb";
kernLeft = gimelhebrew;
kernRight = gimelhebrew;
layers = (
{
anchors = (
{
name = bottom;
pos = (315,0);
},
{
name = bottomleft;
pos = (104,0);
},
{
name = center;
pos = (313,111);
},
{
name = top;
pos = (541,296);
},
{
name = topleft;
pos = (147,138);
}
);
layerId = "FF2DC345-5101-49B6-97F3-57A040F7C387";
shapes = (
{
closed = 1;
nodes = (
(441,-41,o),
(552,102,o),
(552,223,cs),
(552,237,o),
(541,244,o),
(530,244,cs),
(490,244,o),
(451,234,o),
(451,198,cs),
(451,111,o),
(415,11,o),
(332,11,cs),
(287,11,o),
(221,53,o),
(168,53,cs),
(118,53,o),
(73,18,o),
(6,18,cs),
(-50,18,o),
(-76,48,o),
(-115,48,cs),
(-124,48,o),
(-126,45,o),
(-126,38,cs),
(-126,14,o),
(-49,-38,o),
(51,-38,cs),
(92,-38,o),
(155,-6,o),
(187,-6,cs),
(227,-6,o),
(285,-41,o),
(325,-41,cs)
);
}
);
userData = {
com.schriftgestaltung.hints = (
{
horizontal = 1;
options = 0;
place = (
15,
0
);
stem = -2;
type = Tag;
}
);
};
width = 585;
},
{
anchors = (
{
name = bottom;
pos = (315,0);
},
{
name = bottomleft;
pos = (104,0);
},
{
name = center;
pos = (313,111);
},
{
name = top;
pos = (541,296);
},
{
name = topleft;
pos = (147,138);
}
);
associatedMasterId = "FF2DC345-5101-49B6-97F3-57A040F7C387";
layerId = "D2446033-459D-40D6-AEA3-5F38DD58BE67";
name = "Mar 10, 22, 18:55";
shapes = (
{
closed = 1;
nodes = (
(-49,-38,o),
(-126,14,o),
(-126,38,cs),
(-126,45,o),
(-124,48,o),
(-115,48,cs),
(-76,48,o),
(-50,18,o),
(6,18,cs),
(73,18,o),
(118,53,o),
(168,53,cs),
(221,53,o),
(287,11,o),
(332,11,cs),
(415,11,o),
(451,111,o),
(451,198,cs),
(451,234,o),
(490,244,o),
(530,244,cs),
(541,244,o),
(552,237,o),
(552,223,cs),
(552,102,o),
(441,-41,o),
(325,-41,cs),
(285,-41,o),
(227,-6,o),
(187,-6,cs),
(155,-6,o),
(92,-38,o),
(51,-38,cs)
);
}
);
userData = {
com.schriftgestaltung.hints = (
{
horizontal = 1;
options = 0;
place = (
15,
0
);
stem = -2;
type = Tag;
}
);
};
visible = 1;
width = 585;
}
);
unicode = 1490;
userData = {
com.typemytype.robofont.guides = (
{
angle = 90;
isGlobal = 0;
magnetic = 5;
x = 55;
y = 0;
}
);
};
},
{
color = 5;
glyphname = "dalet-hb";
kernLeft = dalethebrew;
kernRight = dalethebrew;
layers = (
{
anchors = (
{
name = bottom;
pos = (110,0);
},
{
name = bottomleft;
pos = (44,0);
},
{
name = center;
pos = (0,150);
},
{
name = top;
pos = (185,365);
},
{
name = topleft;
pos = (24,303);
}
);
layerId = "FF2DC345-5101-49B6-97F3-57A040F7C387";
shapes = (
{
closed = 1;
nodes = (
(136,0,o),
(195,116,o),
(195,197,cs),
(195,314,o),
(55,344,o),
(-20,349,cs),
(-100,355,o),
(-164,396,o),
(-185,396,cs),
(-194,396,o),
(-198,392,o),
(-198,385,cs),
(-198,365,o),
(-161,328,o),
(-45,308,cs),
(49,292,o),
(105,281,o),
(105,187,cs),
(105,126,o),
(79,52,o),
(21,42,cs),
(10,40,o),
(0,28,o),
(0,18,cs),
(0,8,o),
(8,0,o),
(28,0,cs)
);
}
);
userData = {
com.schriftgestaltung.hints = (
{
horizontal = 1;
options = 0;
place = (
513,
0
);
stem = -2;
type = Tag;
}
);
};
width = 227;
},
{
anchors = (
{
name = bottom;
pos = (110,0);
},
{
name = bottomleft;
pos = (44,0);
},
{
name = center;
pos = (185,260);
},
{
name = top;
pos = (159,417);
},
{
name = topleft;
pos = (24,330);
}
);
associatedMasterId = "FF2DC345-5101-49B6-97F3-57A040F7C387";
layerId = "3E73F148-554D-4CAB-B0AD-3DCAA1113238";
name = "Mar 10, 22, 19:16";
shapes = (
{
closed = 1;
nodes = (
(55,344,o),
(195,314,o),
(195,197,cs),
(195,116,o),
(136,0,o),
(28,0,cs),
(8,0,o),
(0,8,o),
(0,18,cs),
(0,28,o),
(10,40,o),
(21,42,cs),
(79,52,o),
(97,115,o),
(105,187,cs),
(105,192,o),
(105,198,o),
(105,202,cs),
(105,285,o),
(27,296,o),
(-45,308,cs),
(-161,328,o),
(-198,365,o),
(-198,385,cs),
(-198,392,o),
(-193,396,o),
(-185,396,cs),
(-184,396,o),
(-183,396,o),
(-183,396,cs),
(-162,394,o),
(-100,355,o),
(-20,349,cs)
);
}
);
userData = {
com.schriftgestaltung.hints = (
{
horizontal = 1;
options = 0;
place = (
513,
0
);
stem = -2;
type = Tag;
}
);
};
visible = 1;
width = 227;
}
);
unicode = 1491;
userData = {
com.typemytype.robofont.guides = (
{
angle = 0;
isGlobal = 0;
magnetic = 5;
x = 0;
y = 571;
},
{
angle = 90;
isGlobal = 0;
magnetic = 5;
x = 30;
y = 0;
},
{
angle = 90;
isGlobal = 0;
magnetic = 5;
x = 496;
y = 0;
}
);
};
},
{
color = 5;
glyphname = "he-hb";
kernLeft = hethebrew;
kernRight = vavhebrew;
layers = (
{
anchors = (
{
name = bottom;
pos = (230,0);
},
{
name = bottomleft;
pos = (30,0);
},
{
name = center;
pos = (221,145);
},
{
name = top;
pos = (378,251);
},
{
name = topleft;
pos = (107,79);
}
);
layerId = "FF2DC345-5101-49B6-97F3-57A040F7C387";
shapes = (
{
closed = 1;
nodes = (
(71,-66,o),
(75,-60,o),
(75,-47,cs),
(75,-36,o),
(70,-16,o),
(70,0,cs),
(70,21,o),
(78,38,o),
(116,38,cs),
(161,38,o),
(201,14,o),
(255,14,cs),
(354,14,o),
(435,94,o),
(435,201,cs),
(435,216,o),
(423,223,o),
(412,223,cs),
(372,223,o),
(334,213,o),
(334,177,cs),
(334,106,o),
(309,58,o),
(246,58,cs),
(190,58,o),
(123,89,o),
(70,89,cs),
(2,89,o),
(-8,54,o),
(-8,18,cs),
(-8,-19,o),
(10,-66,o),
(53,-66,cs)
);
}
);
userData = {
com.schriftgestaltung.Glyphs.glyph.rightMetricsKey = "het-hb";
com.schriftgestaltung.hints = (
{
horizontal = 1;
options = 0;
origin = (
0,
11
);
stem = -2;
type = Tag;
}
);
};
width = 467;
},
{
anchors = (
{
name = bottom;
pos = (230,0);
},
{
name = bottomleft;
pos = (30,0);
},
{
name = center;
pos = (228,145);
},
{
name = top;
pos = (378,251);
},
{
name = topleft;
pos = (107,79);
}
);
associatedMasterId = "FF2DC345-5101-49B6-97F3-57A040F7C387";
layerId = "F2D27739-EAA6-4AFF-B28E-06E1E8522342";
name = "Mar 10, 22, 20:30";
shapes = (
{
closed = 1;
nodes = (
(123,89,o),
(190,58,o),
(246,58,cs),
(259,58,o),
(273,60,o),
(285,65,cs),
(306,73,o),
(334,112,o),
(334,177,cs),
(334,213,o),
(372,223,o),
(412,223,cs),
(423,223,o),
(435,216,o),
(435,201,cs),
(435,106,o),
(372,36,o),
(297,19,cs),
(282,15,o),
(268,14,o),
(255,14,cs),
(201,14,o),
(161,38,o),
(116,38,cs),
(78,38,o),
(70,19,o),
(70,-2,cs),
(70,-18,o),
(75,-36,o),
(75,-47,cs),
(75,-59,o),
(75,-66,o),
(53,-66,cs),
(16,-66,o),
(-6,-27,o),
(-8,8,cs),
(-8,11,o),
(-8,15,o),
(-8,18,cs),
(-8,54,o),
(2,89,o),
(70,89,cs)
);
}
);
userData = {
com.schriftgestaltung.Glyphs.glyph.rightMetricsKey = "het-hb";
com.schriftgestaltung.hints = (
{
horizontal = 1;
options = 0;
origin = (
0,
11
);
stem = -2;
type = Tag;
}
);
};
visible = 1;
width = 467;
}
);
unicode = 1492;
userData = {
com.typemytype.robofont.guides = (
{
angle = 90;
isGlobal = 0;
magnetic = 5;
x = 70;
y = 0;
}
);
};
},
{
color = 5;
glyphname = "vav-hb";
kernLeft = vavhebrew;
kernRight = vavhebrew;
layers = (
{
anchors = (
{
name = bottom;
pos = (-17,0);
},
{
name = bottomleft;
pos = (-43,0);
},
{
name = center;
pos = (-37,157);
},
{
name = top;
pos = (124,210);
},
{
name = topleft;
pos = (175,210);
}
);
layerId = "FF2DC345-5101-49B6-97F3-57A040F7C387";
shapes = (
{
closed = 1;
nodes = (
(20,0,o),
(134,213,o),
(134,256,cs),
(134,279,o),
(118,279,o),
(96,279,cs),
(74,279,o),
(50,279,o),
(43,255,cs),
(17,157,o),
(-41,35,o),
(-41,16,cs),
(-41,7,o),
(-39,0,o),
(-23,0,cs)
);
}
);
userData = {
com.schriftgestaltung.hints = (
{
horizontal = 1;
options = 0;
origin = (
0,
4
);
stem = -2;
type = Tag;
}
);
};
width = 167;
},
{
anchors = (
{
name = bottom;
pos = (123,0);
},
{
name = bottomleft;
pos = (20,0);
},
{
name = center;
pos = (4,260);
},
{
name = top;
pos = (124,520);
},
{
name = topleft;
pos = (175,520);
}
);
associatedMasterId = "FF2DC345-5101-49B6-97F3-57A040F7C387";
layerId = "6035867B-48BD-40D2-9757-7A3CBB4BE75A";
name = "Mar 16, 22, 20:54";
shapes = (
{
closed = 1;
nodes = (
(134,229,o),
(91,140,o),
(49,75,cs),
(22,32,o),
(-4,0,o),
(-20,0,cs),
(-41,0,o),
(-41,7,o),
(-41,19,cs),
(-41,33,o),
(17,157,o),
(43,255,cs),
(50,278,o),
(71,279,o),
(93,279,cs),
(95,279,o),
(95,279,o),
(96,279,cs),
(118,279,o),
(134,279,o),
(134,256,cs)
);
}
);
userData = {
com.schriftgestaltung.hints = (
{
horizontal = 1;
options = 0;
origin = (
0,
4
);
stem = -2;
type = Tag;
}
);
};
visible = 1;
width = 167;
}
);
unicode = 1493;
userData = {
com.typemytype.robofont.guides = (
{
angle = 0;
isGlobal = 0;
magnetic = 5;
x = 0;
y = 571;
}
);
};
},
{
color = 5;
glyphname = "zayin-hb";
kernLeft = zayinhebrew;
kernRight = zayinhebrew;
layers = (
{
anchors = (
{
name = bottom;
pos = (38,0);
},
{
name = bottomleft;
pos = (-89,0);
},
{
name = center;
pos = (33,165);
},
{
name = top;
pos = (207,336);
},
{
name = topleft;
pos = (81,336);
}
);
layerId = "FF2DC345-5101-49B6-97F3-57A040F7C387";
shapes = (
{
closed = 1;
nodes = (
(0,-1,o),
(19,55,o),
(95,169,cs),
(105,185,o),
(126,185,o),
(142,185,cs),
(169,185,o),
(199,224,o),
(199,265,cs),
(199,286,o),
(184,305,o),
(162,305,cs),
(51,305,o),
(-51,31,o),
(-51,20,cs),
(-51,6,o),
(-39,-1,o),
(-28,-1,cs)
);
}
);
userData = {
com.schriftgestaltung.hints = (
{
horizontal = 1;
options = 0;
place = (
22,
0
);
stem = -2;
type = Tag;
}
);
};
width = 200;
},
{
anchors = (
{
name = bottom;
pos = (-22,0);
},
{
name = bottomleft;
pos = (-89,0);
},
{
name = center;
pos = (-26,175);
},
{
name = top;
pos = (207,336);
},
{
name = topleft;
pos = (61,336);
}
);
associatedMasterId = "FF2DC345-5101-49B6-97F3-57A040F7C387";
layerId = "E8637BC1-6591-4DB7-9F96-0BA611BCFE2B";
name = "Mar 16, 22, 21:19";
shapes = (
{
closed = 1;
nodes = (
(-39,-1,o),
(-51,6,o),
(-51,20,cs),
(-51,31,o),
(51,305,o),
(162,305,cs),
(184,305,o),
(199,286,o),
(199,265,cs),
(199,224,o),
(169,185,o),
(142,185,cs),
(126,185,o),
(105,185,o),
(95,169,cs),
(19,55,o),
(0,-1,o),
(-28,-1,cs)
);
}
);
userData = {
com.schriftgestaltung.hints = (
{
horizontal = 1;
options = 0;
place = (
22,
0
);
stem = -2;
type = Tag;
}
);
};
width = 200;
}
);
unicode = 1494;
userData = {
com.typemytype.robofont.guides = (
{
angle = 0;
isGlobal = 0;
magnetic = 5;
x = 0;
y = 983;
},
{
angle = 0;
isGlobal = 0;
magnetic = 5;
x = 0;
y = 983;
},
{
angle = 0;
isGlobal = 0;
magnetic = 5;
x = 0;
y = 571;
}
);
};
},
{
color = 5;
glyphname = "het-hb";
kernLeft = hethebrew;
kernRight = vavhebrew;
layers = (
{
anchors = (
{
name = bottom;
pos = (119,0);
},
{
name = bottomleft;
pos = (-80,0);
},
{
name = center;
pos = (311,150);
},
{
name = top;
pos = (311,230);
},
{
name = topleft;
pos = (20,230);
}
);
layerId = "FF2DC345-5101-49B6-97F3-57A040F7C387";
shapes = (
{
closed = 1;
nodes = (
(42,0,o),
(126,129,o),
(148,217,c),
(167,227,o),
(190,237,o),
(212,237,cs),
(243,237,o),
(265,228,o),
(265,193,cs),
(265,151,o),
(247,62,o),
(201,38,cs),
(190,32,o),
(184,22,o),
(184,14,cs),
(184,6,o),
(190,0,o),
(201,0,cs),
(287,0,o),
(358,111,o),
(358,203,cs),
(358,265,o),
(304,280,o),
(249,280,cs),
(205,280,o),
(174,271,o),
(153,260,c),
(151,279,o),
(136,279,o),
(116,279,cs),
(94,279,o),
(79,281,o),
(72,256,cs),
(50,176,o),
(0,51,o),
(-50,42,cs),
(-61,40,o),
(-71,28,o),
(-71,18,cs),
(-71,8,o),
(-63,0,o),
(-43,0,cs)
);
}
);
userData = {
com.schriftgestaltung.hints = (
{
horizontal = 1;
options = 0;
origin = (
0,
24
);
stem = -2;
type = Tag;
}
);
};
width = 392;
},
{
anchors = (
{
name = bottom;
pos = (119,0);
},
{
name = bottomleft;
pos = (-80,0);
},
{
name = center;
pos = (311,150);
},
{
name = top;
pos = (311,230);
},
{
name = topleft;
pos = (20,230);
}
);
associatedMasterId = "FF2DC345-5101-49B6-97F3-57A040F7C387";
layerId = "3B666811-0A51-499E-99B8-03DC2181B4A8";
name = "Mar 16, 22, 21:34";
shapes = (
{
closed = 1;
nodes = (
(-63,0,o),
(-71,8,o),
(-71,18,cs),
(-71,28,o),
(-61,40,o),
(-50,42,cs),
(0,51,o),
(50,176,o),
(72,256,cs),
(79,279,o),
(91,279,o),
(114,279,cs),
(115,279,o),
(115,279,o),
(116,279,cs),
(136,279,o),
(151,279,o),
(153,260,c),
(174,271,o),
(205,280,o),
(249,280,cs),
(256,280,o),
(263,280,o),
(270,279,cs),
(316,276,o),
(358,256,o),
(358,203,cs),
(358,111,o),
(287,0,o),
(201,0,cs),
(190,0,o),
(184,6,o),
(184,14,cs),
(184,22,o),
(190,32,o),
(201,38,cs),
(228,52,o),
(256,96,o),
(265,183,cs),
(265,186,o),
(265,190,o),
(265,193,cs),
(265,232,o),
(238,236,o),
(216,237,cs),
(214,237,o),
(213,237,o),
(212,237,cs),
(190,237,o),
(167,227,o),
(148,217,c),
(126,129,o),
(42,0,o),
(-43,0,cs)
);
}
);
userData = {
com.schriftgestaltung.hints = (
{
horizontal = 1;
options = 0;
origin = (
0,
24
);
stem = -2;
type = Tag;
}
);
};
visible = 1;
width = 392;
}
);
unicode = 1495;
userData = {
com.typemytype.robofont.guides = (
{
angle = 0;
isGlobal = 0;
magnetic = 5;
x = 0;
y = 571;
},
{
angle = 90;
isGlobal = 0;
magnetic = 5;
x = 70;
y = 0;
},
{
angle = 90;
isGlobal = 0;
magnetic = 5;
x = 517;
y = 0;
}
);
};
},
{
color = 5;
glyphname = "tet-hb";
kernLeft = tethebrew;
kernRight = tethebrew;
layers = (
{
anchors = (
{
name = bottom;
pos = (134,0);
},
{
name = bottomleft;
pos = (-60,0);
},
{
name = center;
pos = (182,130);
},
{
name = top;
pos = (324,180);
},
{
name = topleft;
pos = (20,180);
}
);
layerId = "FF2DC345-5101-49B6-97F3-57A040F7C387";
shapes = (
{
closed = 1;
nodes = (
(-2,0,o),
(29,39,o),
(51,73,c),
(67,42,o),
(98,20,o),
(147,20,cs),
(263,20,o),
(371,144,o),
(371,264,cs),
(371,278,o),
(359,285,o),
(348,285,cs),
(308,285,o),
(269,275,o),
(269,239,cs),
(269,152,o),
(233,66,o),
(149,66,cs),
(118,66,o),
(95,101,o),
(95,134,cs),
(95,141,o),
(96,149,o),
(99,156,cs),
(116,197,o),
(131,238,o),
(131,248,cs),
(131,272,o),
(116,272,o),
(93,272,cs),
(72,272,o),
(48,271,o),
(41,247,cs),
(14,149,o),
(-41,33,o),
(-41,19,cs),
(-41,7,o),
(-41,0,o),
(-20,0,cs)
);
}
);
userData = {
com.schriftgestaltung.Glyphs.glyph.rightMetricsKey = "kaf-hb";
com.schriftgestaltung.hints = (
{
horizontal = 1;
options = 0;
origin = (
0,
8
);
stem = -2;
type = Tag;
}
);
};
width = 395;
}
);
unicode = 1496;
userData = {
com.typemytype.robofont.guides = (
{
angle = 0;
isGlobal = 0;
magnetic = 5;
x = 0;
y = 571;
},
{
angle = 0;
isGlobal = 0;
magnetic = 5;
x = 0;
y = 581;
},
{
angle = 90;
isGlobal = 0;
magnetic = 5;
x = 196;
y = 0;
},
{
angle = 90;
isGlobal = 0;
magnetic = 5;
x = 65;
y = 0;
}
);
};
},
{
color = 5;
glyphname = "yod-hb";
kernLeft = yodhebrew;
kernRight = yodhebrew;
layers = (
{
anchors = (
{
name = bottom;
pos = (36,0);
},
{
name = bottomleft;
pos = (-60,0);
},
{
name = center;
pos = (53,138);
},
{
name = top;
pos = (117,180);
},
{
name = topleft;
pos = (20,180);
}
);
layerId = "FF2DC345-5101-49B6-97F3-57A040F7C387";
shapes = (
{
closed = 1;
nodes = (
(59,85,o),
(117,159,o),
(117,204,cs),
(117,227,o),
(102,227,o),
(80,227,cs),
(58,227,o),
(34,226,o),
(27,201,cs),
(6,127,o),
(0,117,o),
(0,102,cs),
(0,90,o),
(2,85,o),
(22,85,cs)
);
}
);
userData = {
com.schriftgestaltung.hints = (
{
horizontal = 1;
options = 0;
origin = (
0,
4
);
stem = -2;
type = Tag;
}
);
};
width = 150;
},
{
anchors = (
{
name = bottom;
pos = (36,0);
},
{
name = bottomleft;
pos = (-60,0);
},
{
name = center;
pos = (-37,138);
},
{
name = top;
pos = (117,180);
},
{
name = topleft;
pos = (20,180);
}
);
associatedMasterId = "FF2DC345-5101-49B6-97F3-57A040F7C387";
layerId = "EE1C8EE7-7C03-45D7-9516-9C316EC94C1E";
name = "Mar 16, 22, 22:31";
shapes = (
{
closed = 1;
nodes = (
(2,85,o),
(0,90,o),
(0,102,cs),
(0,117,o),
(0,105,o),
(27,201,cs),
(33,226,o),
(58,227,o),
(80,227,cs),
(102,227,o),
(117,227,o),
(117,204,cs),
(117,159,o),
(59,85,o),
(22,85,cs)
);
}
);
userData = {
com.schriftgestaltung.hints = (
{
horizontal = 1;
options = 0;
origin = (
0,
4
);
stem = -2;
type = Tag;
}
);
};
visible = 1;
width = 150;
}
);
unicode = 1497;
userData = {
com.typemytype.robofont.guides = (
{
angle = 0;
isGlobal = 0;
magnetic = 5;
x = 0;
y = 240;
}
);
};
},
{
color = 5;
glyphname = "finalkaf-hb";
kernLeft = dalethebrew;
kernRight = dalethebrew;
layers = (
{
anchors = (
{
name = bottom;
pos = (321,-29);
},
{
name = bottomleft;
},
{
name = center;
pos = (43,84);
},
{
name = top;
pos = (303,310);
},
{
name = topleft;
pos = (70,310);
}
);
layerId = "FF2DC345-5101-49B6-97F3-57A040F7C387";
shapes = (
{
closed = 1;
nodes = (
(11,-413,o),
(20,-410,o),
(29,-402,cs),
(185,-261,o),
(137,-136,o),
(253,156,cs),
(264,184,o),
(269,206,o),
(269,223,cs),
(269,271,o),
(232,283,o),
(187,283,cs),
(147,283,o),
(100,273,o),
(69,273,cs),
(45,273,o),
(19,298,o),
(-5,298,cs),
(-27,298,o),
(-53,282,o),
(-53,256,cs),
(-53,236,o),
(-36,217,o),
(12,217,cs),
(60,217,o),
(71,231,o),
(125,231,cs),
(157,231,o),
(185,222,o),
(185,193,cs),
(185,184,o),
(183,173,o),
(177,159,cs),
(59,-112,o),
(84,-286,o),
(-5,-375,cs),
(-12,-383,o),
(-16,-390,o),
(-16,-396,cs),
(-16,-406,o),
(-8,-413,o),
(4,-413,cs)
);
}
);
userData = {
com.schriftgestaltung.Glyphs.glyph.rightMetricsKey = "het-hb";
com.schriftgestaltung.hints = (
{
horizontal = 1;
options = 0;
place = (
549,
0
);
stem = -2;
type = Tag;
}
);
};
width = 304;
},
{
anchors = (
{
name = bottom;
pos = (321,-29);
},
{
name = bottomleft;
},
{
name = center;
pos = (43,84);
},
{
name = top;
pos = (303,310);
},
{
name = topleft;
pos = (70,310);
}
);
associatedMasterId = "FF2DC345-5101-49B6-97F3-57A040F7C387";
layerId = "C7828AF6-116C-4B5B-A360-A86E5537C4C4";
name = "Mar 16, 22, 23:11";
shapes = (
{
closed = 1;
nodes = (
(137,-136,o),
(185,-261,o),
(29,-402,cs),
(20,-410,o),
(11,-413,o),
(4,-413,cs),
(-8,-413,o),
(-16,-406,o),
(-16,-396,cs),
(-16,-390,o),
(-12,-383,o),
(-5,-375,cs),
(84,-286,o),
(59,-112,o),
(177,159,cs),
(183,173,o),
(185,184,o),
(185,193,cs),
(185,222,o),
(157,231,o),
(125,231,cs),
(87,231,o),
(43,219,o),
(35,218,cs),
(26,217,o),
(19,217,o),
(12,217,cs),
(-36,217,o),
(-53,236,o),
(-53,256,cs),
(-53,273,o),
(-40,290,o),
(-22,295,cs),
(-16,297,o),
(-10,298,o),
(-5,298,cs),
(21,298,o),
(20,273,o),
(67,273,cs),
(68,273,o),
(68,273,o),
(69,273,cs),
(100,273,o),
(147,283,o),
(187,283,cs),
(232,283,o),
(269,271,o),
(269,223,cs),
(269,206,o),
(264,184,o),
(253,156,cs)
);
}
);
userData = {
com.schriftgestaltung.Glyphs.glyph.rightMetricsKey = "het-hb";
com.schriftgestaltung.hints = (
{
horizontal = 1;
options = 0;
place = (
549,
0
);
stem = -2;
type = Tag;
}
);
};
width = 304;
}
);
unicode = 1498;
userData = {
com.typemytype.robofont.guides = (
{
angle = 0;
isGlobal = 0;
magnetic = 5;
x = 0;
y = 61;
}
);
};
},
{
color = 5;
glyphname = "kaf-hb";
kernLeft = kafhebrew;
kernRight = kafhebrew;
layers = (
{
anchors = (
{
name = bottom;
pos = (80,0);
},
{
name = bottomleft;
pos = (-78,0);
},
{
name = center;
pos = (143,130);
},
{
name = top;
pos = (259,260);
},
{
name = topleft;
pos = (52,260);
}
);
layerId = "FF2DC345-5101-49B6-97F3-57A040F7C387";
shapes = (
{
closed = 1;
nodes = (
(200,0,o),
(289,78,o),
(289,177,cs),
(289,249,o),
(217,279,o),
(154,279,cs),
(59,279,o),
(18,235,o),
(18,205,cs),
(18,187,o),
(30,174,o),
(50,174,cs),
(116,174,o),
(81,238,o),
(147,238,cs),
(189,238,o),
(203,198,o),
(203,164,cs),
(203,102,o),
(137,51,o),
(73,51,cs),
(11,51,o),
(-37,87,o),
(-51,87,cs),
(-56,87,o),
(-60,83,o),
(-60,76,cs),
(-60,52,o),
(-15,0,o),
(83,0,cs)
);
}
);
userData = {
com.schriftgestaltung.hints = (
{
horizontal = 1;
options = 0;
origin = (
0,
6
);
stem = -2;
type = Tag;
}
);
};
width = 322;
}
);
unicode = 1499;
userData = {
com.typemytype.robofont.guides = (
{
angle = 0;
isGlobal = 0;
magnetic = 5;
x = 0;
y = 590;
},
{
angle = 90;
isGlobal = 0;
magnetic = 5;
x = 40;
y = 0;
}
);
};
},
{
color = 5;
glyphname = "lamed-hb";
kernLeft = "lamed-hb";
kernRight = "lamed-hb";
layers = (
{
anchors = (
{
name = bottom;
pos = (164,0);
},
{
name = bottomleft;
pos = (3,0);
},
{
name = center;
pos = (184,377);
},
{
name = top;
pos = (374,590);
},
{
name = topleft;
pos = (158,590);
}
);
layerId = "FF2DC345-5101-49B6-97F3-57A040F7C387";
shapes = (
{
closed = 1;
nodes = (
(209,0,o),
(292,83,o),
(292,148,cs),
(292,166,o),
(283,170,o),
(260,170,cs),
(244,170,o),
(216,170,o),
(207,148,cs),
(184,97,o),
(161,48,o),
(99,48,cs),
(70,48,o),
(51,82,o),
(51,118,cs),
(51,317,o),
(215,649,o),
(279,649,cs),
(296,649,o),
(297,638,o),
(297,625,cs),
(297,467,o),
(97,153,o),
(97,136,cs),
(97,124,o),
(99,120,o),
(111,120,cs),
(178,120,o),
(384,462,o),
(384,619,cs),
(384,690,o),
(349,700,o),
(310,700,cs),
(143,700,o),
(0,319,o),
(0,138,cs),
(0,104,o),
(10,0,o),
(98,0,cs)
);
}
);
userData = {
com.schriftgestaltung.Glyphs.glyph.rightMetricsKey = "kaf-hb";
};
width = 334;
},
{
anchors = (
{
name = bottom;
pos = (254,0);
},
{
name = bottomleft;
pos = (63,0);
},
{
name = center;
pos = (211,260);
},
{
name = top;
pos = (234,520);
},
{
name = topleft;
pos = (18,520);
}
);
associatedMasterId = "FF2DC345-5101-49B6-97F3-57A040F7C387";
layerId = "6ED3AAE6-1870-4A52-80AB-65CBF77CC9F8";
name = "Mar 19, 22, 22:14";
shapes = (
{
closed = 1;
nodes = (
(297,640,o),
(293,649,o),
(279,649,cs),
(215,649,o),
(51,317,o),
(51,118,cs),
(51,82,o),
(70,48,o),
(99,48,cs),
(161,48,o),
(184,97,o),
(207,148,cs),
(216,170,o),
(244,170,o),
(260,170,cs),
(283,170,o),
(292,166,o),
(292,148,cs),
(292,83,o),
(209,0,o),
(98,0,cs),
(10,0,o),
(0,104,o),
(0,138,cs),
(0,345,o),
(164,695,o),
(296,700,cs),
(301,700,o),
(306,700,o),
(310,700,cs),
(349,700,o),
(384,690,o),
(384,619,cs),
(384,462,o),
(178,120,o),
(111,120,cs),
(99,120,o),
(97,124,o),
(97,136,cs),
(97,153,o),
(297,467,o),
(297,625,cs),
(297,627,o),
(297,629,o),
(297,631,cs)
);
}
);
userData = {
com.schriftgestaltung.Glyphs.glyph.rightMetricsKey = "kaf-hb";
};
visible = 1;
width = 334;
}
);
unicode = 1500;
userData = {
com.typemytype.robofont.guides = (
{
angle = 0;
isGlobal = 0;
magnetic = 5;
x = 0;
y = 710;
},
{
angle = 90;
isGlobal = 0;
magnetic = 5;
x = 464;
y = 0;
}
);
};
},
{
color = 5;
glyphname = "finalmem-hb";
kernLeft = hethebrew;
kernRight = vavhebrew;
layers = (
{
anchors = (
{
name = bottom;
pos = (138,0);
},
{
name = bottomleft;
pos = (20,0);
},
{
name = center;
pos = (137,134);
},
{
name = top;
pos = (308,290);
},
{
name = topleft;
pos = (20,290);
}
);
layerId = "FF2DC345-5101-49B6-97F3-57A040F7C387";
shapes = (
{
closed = 1;
nodes = (
(236,0,o),
(300,94,o),
(300,177,cs),
(300,233,o),
(265,279,o),
(178,279,cs),
(70,279,o),
(0,208,o),
(0,116,cs),
(0,39,o),
(32,0,o),
(109,0,cs)
);
},
{
closed = 1;
nodes = (
(69,45,o),
(64,85,o),
(64,101,cs),
(64,173,o),
(117,236,o),
(166,236,cs),
(196,236,o),
(215,211,o),
(215,177,cs),
(215,104,o),
(163,45,o),
(106,45,cs)
);
}
);
userData = {
com.schriftgestaltung.Glyphs.glyph.rightMetricsKey = "het-hb";
com.schriftgestaltung.hints = (
{
horizontal = 1;
options = 0;
origin = (
0,
11
);
stem = -2;
type = Tag;
}
);
};
width = 334;
},
{
anchors = (
{
name = bottom;
pos = (308,0);
},
{
name = bottomleft;
pos = (20,0);
},
{
name = center;
pos = (308,260);
},
{
name = top;
pos = (308,520);
},
{
name = topleft;
pos = (20,520);
}
);
associatedMasterId = "FF2DC345-5101-49B6-97F3-57A040F7C387";
layerId = "10F04F7F-5019-4D7E-9125-FCCA3CDFAD73";
name = "Mar 20, 22, 17:14";
shapes = (
{
closed = 1;
nodes = (
(31,0,o),
(0,45,o),
(0,104,cs),
(0,108,o),
(0,112,o),
(0,116,cs),
(6,216,o),
(73,279,o),
(178,279,cs),
(265,279,o),
(300,233,o),
(300,177,cs),
(300,94,o),
(236,0,o),
(109,0,cs)
);
},
{
closed = 1;
nodes = (
(163,45,o),
(215,104,o),
(215,177,cs),
(215,211,o),
(196,236,o),
(166,236,cs),
(119,236,o),
(68,179,o),
(65,105,cs),
(64,103,o),
(64,101,o),
(64,99,cs),
(64,65,o),
(81,45,o),
(106,45,cs)
);
}
);
userData = {
com.schriftgestaltung.Glyphs.glyph.rightMetricsKey = "het-hb";
com.schriftgestaltung.hints = (
{
horizontal = 1;
options = 0;
origin = (
0,
11
);
stem = -2;
type = Tag;
}
);
};
visible = 1;
width = 334;
}
);
unicode = 1501;
userData = {
com.typemytype.robofont.guides = (
{
angle = 0;
isGlobal = 0;
magnetic = 5;
x = 0;
y = 853;
},
{
angle = 0;
isGlobal = 0;
magnetic = 5;
x = 0;
y = 58;
}
);
};
},
{
color = 5;
glyphname = "mem-hb";
kernLeft = hethebrew;
kernRight = memhebrew;
layers = (
{
anchors = (
{
name = bottom;
pos = (121,0);
},
{
name = bottomleft;
pos = (9,0);
},
{
name = center;
pos = (182,127);
},
{
name = top;
pos = (306,280);
},
{
name = topleft;
pos = (169,280);
}
);
layerId = "FF2DC345-5101-49B6-97F3-57A040F7C387";
shapes = (
{
closed = 1;
nodes = (
(-6,0,o),
(17,26,o),
(40,61,c),
(56,29,o),
(78,0,o),
(127,0,cs),
(242,0,o),
(288,80,o),
(347,170,cs),
(357,186,o),
(378,186,o),
(395,186,cs),
(422,186,o),
(452,225,o),
(452,266,cs),
(452,287,o),
(444,304,o),
(423,304,cs),
(272,304,o),
(280,46,o),
(129,46,cs),
(105,46,o),
(86,70,o),
(86,104,cs),
(86,146,o),
(134,229,o),
(134,256,cs),
(134,280,o),
(115,279,o),
(93,279,cs),
(71,279,o),
(50,278,o),
(43,255,cs),
(17,157,o),
(-41,33,o),
(-41,19,cs),
(-41,7,o),
(-41,0,o),
(-20,0,cs)
);
}
);
userData = {
com.schriftgestaltung.Glyphs.glyph.rightMetricsKey = "het-hb";
com.schriftgestaltung.hints = (
{
horizontal = 1;
options = 0;
place = (
15,
0
);
stem = -2;
type = Tag;
}
);
};
width = 452;
},
{
anchors = (
{
name = bottom;
pos = (121,0);
},
{
name = bottomleft;
pos = (9,0);
},
{
name = center;
pos = (182,127);
},
{
name = top;
pos = (306,280);
},
{
name = topleft;
pos = (169,280);
}
);
associatedMasterId = "FF2DC345-5101-49B6-97F3-57A040F7C387";
layerId = "0B404EAC-1ABE-4524-A034-0B59E99B183C";
name = "Mar 20, 22, 20:14";
shapes = (
{
closed = 1;
nodes = (
(134,239,o),
(109,188,o),
(91,136,cs),
(88,125,o),
(86,114,o),
(86,104,cs),
(86,70,o),
(105,46,o),
(129,46,cs),
(280,46,o),
(272,304,o),
(423,304,cs),
(444,304,o),
(452,287,o),
(452,266,cs),
(452,225,o),
(422,186,o),
(395,186,cs),
(378,186,o),
(357,186,o),
(347,170,cs),
(288,80,o),
(242,0,o),
(127,0,cs),
(78,0,o),
(56,29,o),
(40,61,c),
(17,26,o),
(-6,0,o),
(-20,0,cs),
(-41,0,o),
(-41,7,o),
(-41,19,cs),
(-41,33,o),
(17,157,o),
(43,255,cs),
(50,278,o),
(71,279,o),
(93,279,cs),
(115,279,o),
(134,280,o),
(134,256,cs)
);
}
);
userData = {
com.schriftgestaltung.Glyphs.glyph.rightMetricsKey = "het-hb";
com.schriftgestaltung.hints = (
{
horizontal = 1;
options = 0;
place = (
15,
0
);
stem = -2;
type = Tag;
}
);
};
visible = 1;
width = 452;
}
);
unicode = 1502;
userData = {
com.typemytype.robofont.guides = (
{
angle = 90;
isGlobal = 0;
magnetic = 5;
x = 50;
y = 0;
},
{
angle = 90;
isGlobal = 0;
magnetic = 5;
x = 576;
y = 0;
}
);
};
},
{
color = 5;
glyphname = "finalnun-hb";
kernLeft = vavhebrew;
kernRight = vavhebrew;
layers = (
{
anchors = (
{
name = bottom;
pos = (183,0);
},
{
name = bottomleft;
pos = (-30,0);
},
{
name = center;
pos = (88,131);
},
{
name = top;
pos = (223,300);
},
{
name = topleft;
pos = (140,300);
}
);
layerId = "FF2DC345-5101-49B6-97F3-57A040F7C387";
shapes = (
{
closed = 1;
nodes = (
(-127,-413,o),
(-114,-410,o),
(-107,-392,cs),
(-12,-145,o),
(221,223,o),
(221,245,cs),
(221,257,o),
(221,264,o),
(200,264,cs),
(144,264,o),
(-197,-304,o),
(-197,-390,cs),
(-197,-414,o),
(-159,-413,o),
(-143,-413,cs)
);
}
);
userData = {
com.schriftgestaltung.hints = (
{
horizontal = 1;
options = 0;
origin = (
0,
3
);
stem = -2;
type = Tag;
}
);
};
width = 244;
},
{
anchors = (
{
name = bottom;
pos = (123,0);
},
{
name = bottomleft;
pos = (20,0);
},
{
name = center;
pos = (123,260);
},
{
name = top;
pos = (123,520);
},
{
name = topleft;
pos = (20,520);
}
);
associatedMasterId = "FF2DC345-5101-49B6-97F3-57A040F7C387";
layerId = "CF883582-FF79-4BB4-84A4-B52038240EAF";
name = "Mar 20, 22, 20:38";
shapes = (
{
closed = 1;
nodes = (
(221,264,o),
(221,257,o),
(221,245,cs),
(221,223,o),
(-12,-145,o),
(-107,-392,cs),
(-114,-410,o),
(-127,-413,o),
(-143,-413,cs),
(-148,-413,o),
(-154,-413,o),
(-159,-412,cs),
(-160,-412,o),
(-160,-412,o),
(-161,-412,cs),
(-182,-410,o),
(-197,-409,o),
(-197,-390,cs),
(-197,-304,o),
(144,264,o),
(200,264,cs)
);
}
);
userData = {
com.schriftgestaltung.hints = (
{
horizontal = 1;
options = 0;
origin = (
0,
3
);
stem = -2;
type = Tag;
}
);
};
visible = 1;
width = 244;
}
);
unicode = 1503;
},
{
color = 5;
glyphname = "nun-hb";
kernLeft = hethebrew;
kernRight = nunhebrew;
layers = (
{
anchors = (
{
name = bottom;
pos = (44,0);
},
{
name = bottomleft;
pos = (-100,0);
},
{
name = center;
pos = (-20,185);
},
{
name = top;
pos = (203,160);
},
{
name = topleft;
pos = (0,150);
}
);
layerId = "FF2DC345-5101-49B6-97F3-57A040F7C387";
shapes = (
{
closed = 1;
nodes = (
(56,0,o),
(154,175,o),
(154,256,cs),
(154,279,o),
(138,279,o),
(116,279,cs),
(94,279,o),
(70,279,o),
(63,255,cs),
(41,175,o),
(0,51,o),
(-50,42,cs),
(-61,40,o),
(-71,28,o),
(-71,18,cs),
(-71,8,o),
(-63,0,o),
(-43,0,cs)
);
}
);
userData = {
com.schriftgestaltung.hints = (
{
horizontal = 1;
options = 0;
place = (
559,
0
);
stem = -2;
type = Tag;
}
);
};
width = 187;
},
{
anchors = (
{
name = bottom;
pos = (44,0);
},
{
name = bottomleft;
pos = (-100,0);
},
{
name = center;
pos = (0,185);
},
{
name = top;
pos = (203,160);
},
{
name = topleft;
pos = (20,160);
}
);
associatedMasterId = "FF2DC345-5101-49B6-97F3-57A040F7C387";
layerId = "A503DF61-69F2-4334-8541-2661D958BEF7";
name = "Mar 20, 22, 21:37";
shapes = (
{
closed = 1;
nodes = (
(-63,0,o),
(-71,8,o),
(-71,18,cs),
(-71,28,o),
(-61,40,o),
(-50,42,cs),
(0,51,o),
(41,175,o),
(63,255,cs),
(70,278,o),
(91,279,o),
(114,279,cs),
(115,279,o),
(115,279,o),
(116,279,cs),
(138,279,o),
(154,279,o),
(154,256,cs),
(154,175,o),
(56,0,o),
(-43,0,cs)
);
}
);
userData = {
com.schriftgestaltung.hints = (
{
horizontal = 1;
options = 0;
place = (
559,
0
);
stem = -2;
type = Tag;
}
);
};
visible = 1;
width = 187;
}
);
unicode = 1504;
userData = {
com.typemytype.robofont.guides = (
{
angle = 90;
isGlobal = 0;
magnetic = 5;
x = 361;
y = 0;
},
{
angle = 90;
isGlobal = 0;
magnetic = 5;
x = 45;
y = 0;
}
);
};
},
{
color = 5;
glyphname = "samekh-hb";
kernLeft = tethebrew;
kernRight = tethebrew;
layers = (
{
anchors = (
{
name = bottom;
pos = (126,0);
},
{
name = bottomleft;
pos = (20,0);
},
{
name = center;
pos = (168,100);
},
{
name = top;
pos = (315,320);
},
{
name = topleft;
pos = (20,320);
}
);
layerId = "FF2DC345-5101-49B6-97F3-57A040F7C387";
shapes = (
{
closed = 1;
nodes = (
(-6,0,o),
(17,26,o),
(40,61,c),
(56,29,o),
(85,0,o),
(135,0,cs),
(241,0,o),
(340,79,o),
(340,176,cs),
(340,229,o),
(308,279,o),
(218,279,cs),
(187,279,o),
(159,270,o),
(134,255,c),
(133,272,o),
(126,280,o),
(96,280,cs),
(67,280,o),
(49,276,o),
(43,255,cs),
(15,158,o),
(-41,33,o),
(-41,19,cs),
(-41,7,o),
(-37,0,o),
(-20,0,cs)
);
},
{
closed = 1;
nodes = (
(106,46,o),
(87,77,o),
(87,118,cs),
(87,143,o),
(111,230,o),
(187,230,cs),
(228,230,o),
(254,213,o),
(254,172,cs),
(254,118,o),
(207,46,o),
(137,46,cs)
);
}
);
userData = {
com.schriftgestaltung.Glyphs.glyph.rightMetricsKey = "kaf-hb";
com.schriftgestaltung.hints = (
{
horizontal = 1;
options = 0;
origin = (
0,
8
);
stem = -2;
type = Tag;
}
);
};
width = 378;
},
{
anchors = (
{
name = bottom;
pos = (126,0);
},
{
name = bottomleft;
pos = (20,0);
},
{
name = center;
pos = (168,120);
},
{
name = top;
pos = (315,320);
},
{
name = topleft;
pos = (20,320);
}
);
associatedMasterId = "FF2DC345-5101-49B6-97F3-57A040F7C387";
layerId = "8DC807CE-FB60-45A7-901E-66CDA546909C";
name = "Mar 23, 22, 10:56";
shapes = (
{
closed = 1;
nodes = (
(308,279,o),
(340,229,o),
(340,176,cs),
(340,172,o),
(340,168,o),
(339,164,cs),
(329,58,o),
(223,0,o),
(135,0,cs),
(85,0,o),
(56,29,o),
(40,61,c),
(17,26,o),
(-6,0,o),
(-20,0,cs),
(-41,0,o),
(-41,7,o),
(-41,19,cs),
(-41,33,o),
(17,157,o),
(43,255,cs),
(50,278,o),
(71,279,o),
(93,279,cs),
(95,279,o),
(95,279,o),
(96,279,cs),
(118,279,o),
(134,279,o),
(134,256,cs),
(134,256,o),
(134,255,o),
(134,255,c),
(159,270,o),
(187,279,o),
(218,279,c)
);
},
{
closed = 1;
nodes = (
(89,128,o),
(87,120,o),
(87,111,cs),
(87,79,o),
(106,46,o),
(137,46,cs),
(201,46,o),
(249,108,o),
(254,164,cs),
(254,166,o),
(254,169,o),
(254,172,cs),
(254,214,o),
(226,228,o),
(201,229,cs),
(196,230,o),
(192,230,o),
(187,230,cs),
(122,230,o),
(109,192,o),
(91,136,cs)
);
}
);
userData = {
com.schriftgestaltung.Glyphs.glyph.rightMetricsKey = "kaf-hb";
com.schriftgestaltung.hints = (
{
horizontal = 1;
options = 0;
origin = (
0,
8
);
stem = -2;
type = Tag;
}
);
};
visible = 1;
width = 378;
}
);
unicode = 1505;
userData = {
com.typemytype.robofont.guides = (
{
angle = 90;
isGlobal = 0;
magnetic = 5;
x = 65;
y = 0;
},
{
angle = 90;
isGlobal = 0;
magnetic = 5;
x = 509;
y = 0;
}
);
};
},
{
color = 5;
glyphname = "ayin-hb";
layers = (
{
anchors = (
{
name = bottom;
pos = (139,0);
},
{
name = bottomleft;
pos = (20,0);
},
{
name = center;
pos = (188,178);
},
{
name = top;
pos = (351,220);
},
{
name = topleft;
pos = (20,220);
}
);
layerId = "FF2DC345-5101-49B6-97F3-57A040F7C387";
shapes = (
{
closed = 1;
nodes = (
(177,0,o),
(372,42,o),
(373,260,cs),
(373,275,o),
(362,282,o),
(351,282,cs),
(311,282,o),
(273,272,o),
(272,236,cs),
(268,91,o),
(201,58,o),
(56,52,c),
(112,110,o),
(154,203,o),
(154,256,cs),
(154,279,o),
(138,279,o),
(116,279,cs),
(94,279,o),
(70,279,o),
(63,255,cs),
(41,175,o),
(0,51,o),
(-50,42,cs),
(-61,40,o),
(-71,28,o),
(-71,18,cs),
(-71,8,o),
(-63,0,o),
(-43,0,cs)
);
}
);
userData = {
com.schriftgestaltung.hints = (
{
horizontal = 1;
options = 0;
place = (
556,
0
);
stem = -2;
type = Tag;
}
);
};
width = 406;
}
);
unicode = 1506;
userData = {
com.typemytype.robofont.guides = (
{
angle = 0;
isGlobal = 0;
magnetic = 5;
x = 0;
y = 571;
},
{
angle = 90;
isGlobal = 0;
magnetic = 5;
x = 40;
y = 0;
}
);
};
},
{
color = 5;
glyphname = "finalpe-hb";
kernLeft = hethebrew;
layers = (
{
anchors = (
{
name = bottom;
pos = (85,0);
},
{
name = bottomleft;
pos = (-20,0);
},
{
name = center;
pos = (68,360);
},
{
name = top;
pos = (189,520);
},
{
name = topleft;
pos = (20,520);
}
);
layerId = "FF2DC345-5101-49B6-97F3-57A040F7C387";
shapes = (
{
closed = 1;
nodes = (
(153,-1,o),
(234,637,o),
(315,664,cs),
(322,666,o),
(326,676,o),
(326,685,cs),
(326,693,o),
(322,700,o),
(314,700,cs),
(270,700,o),
(214,630,o),
(155,480,c),
(109,482,o),
(57,497,o),
(15,497,cs),
(-26,497,o),
(-71,487,o),
(-71,432,cs),
(-71,395,o),
(-55,341,o),
(-7,341,cs),
(9,341,o),
(17,344,o),
(17,356,cs),
(17,373,o),
(8,392,o),
(8,412,cs),
(8,442,o),
(35,450,o),
(63,450,cs),
(88,450,o),
(112,444,o),
(139,440,c),
(71,261,o),
(12,53,o),
(-52,41,cs),
(-63,39,o),
(-73,27,o),
(-73,17,cs),
(-73,7,o),
(-66,-1,o),
(-46,-1,cs)
);
}
);
userData = {
com.schriftgestaltung.Glyphs.glyph.rightMetricsKey = "het-hb";
};
width = 189;
},
{
anchors = (
{
name = bottom;
pos = (85,0);
},
{
name = bottomleft;
pos = (-20,0);
},
{
name = center;
pos = (225,249);
},
{
name = top;
pos = (189,520);
},
{
name = topleft;
pos = (20,520);
}
);
associatedMasterId = "FF2DC345-5101-49B6-97F3-57A040F7C387";
layerId = "C4AB2826-601C-4FB4-9199-136E3CD02F5E";
name = "Mar 23, 22, 13:20";
shapes = (
{
closed = 1;
nodes = (
(313,700,o),
(314,700,o),
(314,700,cs),
(323,700,o),
(326,693,o),
(326,685,cs),
(326,676,o),
(322,667,o),
(315,664,cs),
(232,635,o),
(152,-1,o),
(-46,-1,cs),
(-66,-1,o),
(-73,7,o),
(-73,17,cs),
(-73,27,o),
(-63,39,o),
(-52,41,cs),
(12,53,o),
(71,261,o),
(139,440,c),
(112,444,o),
(88,450,o),
(63,450,cs),
(59,450,o),
(55,450,o),
(51,449,cs),
(17,446,o),
(8,430,o),
(8,412,cs),
(8,394,o),
(16,374,o),
(17,362,cs),
(18,349,o),
(19,343,o),
(-2,341,cs),
(-4,341,o),
(-5,341,o),
(-7,341,cs),
(-42,341,o),
(-65,376,o),
(-69,409,cs),
(-70,416,o),
(-71,424,o),
(-71,432,cs),
(-71,463,o),
(-59,491,o),
(1,496,cs),
(6,497,o),
(10,497,o),
(15,497,cs),
(57,497,o),
(109,482,o),
(155,480,c),
(201,595,o),
(251,689,o),
(312,700,cs)
);
}
);
userData = {
com.schriftgestaltung.Glyphs.glyph.rightMetricsKey = "het-hb";
};
visible = 1;
width = 189;
}
);
unicode = 1507;
userData = {
com.typemytype.robofont.guides = (
{
angle = 0;
isGlobal = 0;
magnetic = 5;
x = 0;
y = 571;
},
{
angle = 90;
isGlobal = 0;
magnetic = 5;
x = 1818;
y = 0;
}
);
};
},
{
color = 5;
glyphname = "pe-hb";
kernLeft = tethebrew;
kernRight = pehebrew;
layers = (
{
anchors = (
{
name = bottom;
pos = (147,0);
},
{
name = bottomleft;
pos = (21,0);
},
{
name = center;
pos = (174,99);
},
{
name = top;
pos = (277,250);
},
{
name = topleft;
pos = (21,250);
}
);
layerId = "FF2DC345-5101-49B6-97F3-57A040F7C387";
shapes = (
{
closed = 1;
nodes = (
(-297,-106,o),
(-192,-45,o),
(83,-45,cs),
(289,-45,o),
(354,73,o),
(354,154,cs),
(354,238,o),
(315,279,o),
(219,279,cs),
(184,279,o),
(150,265,o),
(124,248,c),
(124,272,o),
(117,280,o),
(88,280,cs),
(52,280,o),
(40,271,o),
(35,254,cs),
(6,156,o),
(-13,112,o),
(-13,98,cs),
(-13,86,o),
(-9,80,o),
(9,80,cs),
(41,80,o),
(87,141,o),
(110,197,c),
(131,214,o),
(163,232,o),
(194,232,cs),
(235,232,o),
(268,216,o),
(268,157,cs),
(268,64,o),
(175,6,o),
(70,6,cs),
(-93,6,o),
(-325,-32,o),
(-325,-94,cs),
(-325,-100,o),
(-322,-106,o),
(-317,-106,cs)
);
}
);
userData = {
com.schriftgestaltung.Glyphs.glyph.rightMetricsKey = "kaf-hb";
com.schriftgestaltung.hints = (
{
horizontal = 1;
options = 0;
origin = (
0,
24
);
stem = -2;
type = Tag;
}
);
};
width = 387;
},
{
anchors = (
{
name = bottom;
pos = (147,0);
},
{
name = bottomleft;
pos = (21,0);
},
{
name = center;
pos = (174,99);
},
{
name = top;
pos = (277,250);
},
{
name = topleft;
pos = (21,250);
}
);
associatedMasterId = "FF2DC345-5101-49B6-97F3-57A040F7C387";
layerId = "F64EF353-B085-4D84-93B6-77CB4E0CA882";
name = "Aug 29, 22, 22:51";
shapes = (
{
closed = 1;
nodes = (
(-302,-106,o),
(-188,-45,o),
(83,-45,cs),
(289,-45,o),
(354,73,o),
(354,154,cs),
(354,238,o),
(315,279,o),
(219,279,cs),
(184,279,o),
(150,265,o),
(124,248,c),
(125,251,o),
(125,253,o),
(125,256,cs),
(125,279,o),
(110,279,o),
(88,279,cs),
(65,279,o),
(41,278,o),
(35,254,cs),
(7,157,o),
(-13,112,o),
(-13,98,cs),
(-13,86,o),
(-13,80,o),
(9,80,cs),
(41,80,o),
(87,141,o),
(110,197,c),
(131,214,o),
(163,232,o),
(194,232,cs),
(235,232,o),
(268,216,o),
(268,157,cs),
(268,64,o),
(175,6,o),
(70,6,cs),
(-93,6,o),
(-325,-32,o),
(-325,-94,cs),
(-325,-100,o),
(-322,-106,o),
(-317,-106,cs)
);
}
);
userData = {
com.schriftgestaltung.Glyphs.glyph.rightMetricsKey = "kaf-hb";
com.schriftgestaltung.hints = (
{
horizontal = 1;
options = 0;
origin = (
0,
24
);
stem = -2;
type = Tag;
}
);
};
visible = 1;
width = 387;
}
);
unicode = 1508;
userData = {
com.typemytype.robofont.guides = (
{
angle = 90;
isGlobal = 0;
magnetic = 5;
x = 70;
y = 0;
}
);
};
},
{
color = 5;
glyphname = "finaltsadi-hb";
layers = (
{
anchors = (
{
name = bottom;
pos = (250,0);
},
{
name = bottomleft;
pos = (20,0);
},
{
name = center;
pos = (250,260);
},
{
name = top;
pos = (250,520);
},
{
name = topleft;
pos = (20,520);
}
);
layerId = "FF2DC345-5101-49B6-97F3-57A040F7C387";
shapes = (
{
closed = 1;
nodes = (
(-88,-415,o),
(10,-266,o),
(86,-54,cs),
(123,49,o),
(140,116,o),
(149,160,c),
(268,165,o),
(344,245,o),
(344,277,cs),
(344,284,o),
(340,289,o),
(330,289,cs),
(296,289,o),
(248,239,o),
(175,239,cs),
(168,239,o),
(161,239,o),
(156,240,c),
(151,277,o),
(119,279,o),
(99,279,cs),
(47,279,o),
(26,243,o),
(26,211,cs),
(26,175,o),
(50,172,o),
(50,164,cs),
(50,115,o),
(-2,-106,o),
(-75,-261,cs),
(-99,-313,o),
(-125,-351,o),
(-149,-375,cs),
(-155,-381,o),
(-159,-390,o),
(-159,-398,cs),
(-159,-405,o),
(-155,-415,o),
(-143,-415,cs)
);
}
);
userData = {
com.schriftgestaltung.hints = (
{
horizontal = 1;
options = 0;
origin = (
0,
34
);
stem = -2;
type = Tag;
}
);
};
width = 344;
},
{
anchors = (
{
name = bottom;
pos = (250,0);
},
{
name = bottomleft;
pos = (20,0);
},
{
name = center;
pos = (250,260);
},
{
name = top;
pos = (250,520);
},
{
name = topleft;
pos = (20,520);
}
);
associatedMasterId = "FF2DC345-5101-49B6-97F3-57A040F7C387";
layerId = "9232D2A6-D914-441B-B8A2-A00EE0E28460";
name = "Mar 23, 22, 14:51";
shapes = (
{
closed = 1;
nodes = (
(-149,-415,o),
(-153,-413,o),
(-155,-409,cs),
(-158,-406,o),
(-159,-402,o),
(-159,-398,cs),
(-159,-390,o),
(-155,-381,o),
(-149,-375,cs),
(-125,-351,o),
(-99,-313,o),
(-75,-261,cs),
(-2,-106,o),
(47,116,o),
(50,165,cs),
(48,174,o),
(26,174,o),
(26,209,cs),
(26,211,o),
(26,214,o),
(26,217,cs),
(28,243,o),
(47,279,o),
(99,279,cs),
(119,279,o),
(151,277,o),
(156,240,c),
(162,240,o),
(168,239,o),
(175,239,cs),
(202,239,o),
(239,246,o),
(286,273,cs),
(306,284,o),
(321,289,o),
(330,289,cs),
(340,289,o),
(344,284,o),
(344,277,cs),
(344,245,o),
(268,165,o),
(149,160,c),
(140,116,o),
(123,49,o),
(86,-54,cs),
(20,-238,o),
(-65,-382,o),
(-125,-410,cs),
(-132,-414,o),
(-138,-415,o),
(-143,-415,cs)
);
}
);
userData = {
com.schriftgestaltung.hints = (
{
horizontal = 1;
options = 0;
origin = (
0,
34
);
stem = -2;
type = Tag;
}
);
};
visible = 1;
width = 344;
}
);
unicode = 1509;
userData = {
com.typemytype.robofont.guides = (
{
angle = 0;
isGlobal = 0;
magnetic = 5;
x = 0;
y = 571;
},
{
angle = 0;
isGlobal = 0;
magnetic = 5;
x = 0;
y = "-124";
},
{
angle = 90;
isGlobal = 0;
magnetic = 5;
x = 28;
y = 0;
},
{
angle = 90;
isGlobal = 0;
magnetic = 5;
x = 431;
y = 0;
}
);
};
},
{
color = 5;
glyphname = "tsadi-hb";
kernLeft = tsadihebrew;
kernRight = tsadihebrew;
layers = (
{
anchors = (
{
name = bottom;
pos = (128,0);
},
{
name = bottomleft;
pos = (20,0);
},
{
name = center;
pos = (51,424);
},
{
name = top;
pos = (225,520);
},
{
name = topleft;
pos = (-60,520);
}
);
layerId = "FF2DC345-5101-49B6-97F3-57A040F7C387";
shapes = (
{
closed = 1;
nodes = (
(64,0,o),
(198,107,o),
(252,281,c),
(355,319,o),
(470,400,o),
(588,542,cs),
(593,548,o),
(595,556,o),
(595,562,cs),
(595,572,o),
(590,580,o),
(579,580,cs),
(569,580,o),
(553,572,o),
(532,551,cs),
(442,455,o),
(352,393,o),
(270,357,c),
(274,383,o),
(276,410,o),
(276,439,cs),
(276,538,o),
(215,656,o),
(85,656,cs),
(-39,656,o),
(-140,587,o),
(-140,455,cs),
(-140,352,o),
(-42,253,o),
(109,253,cs),
(125,253,o),
(141,254,o),
(158,256,c),
(107,102,o),
(5,54,o),
(-19,36,cs),
(-24,32,o),
(-37,26,o),
(-37,14,cs),
(-37,5,o),
(-31,0,o),
(-22,0,cs)
);
},
{
closed = 1;
nodes = (
(-16,317,o),
(-91,378,o),
(-91,460,cs),
(-91,528,o),
(-37,610,o),
(59,610,cs),
(134,610,o),
(186,545,o),
(186,450,cs),
(186,404,o),
(182,363,o),
(176,326,c),
(148,320,o),
(121,317,o),
(97,317,cs)
);
}
);
userData = {
com.schriftgestaltung.hints = (
{
horizontal = 1;
options = 0;
origin = (
0,
11
);
stem = -2;
type = Tag;
}
);
};
width = 257;
},
{
anchors = (
{
name = bottom;
pos = (128,0);
},
{
name = bottomleft;
pos = (20,0);
},
{
name = center;
pos = (70,412);
},
{
name = top;
pos = (225,520);
},
{
name = topleft;
pos = (-60,520);
}
);
associatedMasterId = "FF2DC345-5101-49B6-97F3-57A040F7C387";
layerId = "A3D0B46B-0879-4F6D-AFFC-D40569559D6C";
name = "Mar 23, 22, 17:13";
shapes = (
{
closed = 1;
nodes = (
(75,656,o),
(80,656,o),
(85,656,cs),
(215,656,o),
(276,538,o),
(276,439,cs),
(276,410,o),
(274,383,o),
(270,357,c),
(352,393,o),
(442,455,o),
(532,551,cs),
(553,572,o),
(569,580,o),
(579,580,cs),
(590,580,o),
(595,572,o),
(595,562,cs),
(595,556,o),
(593,548,o),
(588,542,cs),
(470,400,o),
(355,319,o),
(252,281,c),
(198,107,o),
(64,0,o),
(-22,0,cs),
(-31,0,o),
(-37,5,o),
(-37,14,cs),
(-37,26,o),
(-23,31,o),
(-19,36,cs),
(3,56,o),
(107,102,o),
(158,256,c),
(141,254,o),
(125,253,o),
(109,253,cs),
(-42,253,o),
(-140,352,o),
(-140,455,cs),
(-140,457,o),
(-140,460,o),
(-140,463,cs),
(-134,577,o),
(-59,647,o),
(70,656,cs)
);
},
{
closed = 1;
nodes = (
(182,363,o),
(186,404,o),
(186,450,cs),
(186,545,o),
(134,610,o),
(59,610,cs),
(-29,610,o),
(-85,542,o),
(-90,471,cs),
(-90,467,o),
(-91,464,o),
(-91,460,cs),
(-91,378,o),
(-16,317,o),
(97,317,cs),
(121,317,o),
(148,320,o),
(176,326,c)
);
}
);
userData = {
com.schriftgestaltung.hints = (
{
horizontal = 1;
options = 0;
origin = (
0,
11
);
stem = -2;
type = Tag;
}
);
};
visible = 1;
width = 257;
}
);
unicode = 1510;
userData = {
com.typemytype.robofont.guides = (
{
angle = 90;
isGlobal = 0;
magnetic = 5;
x = 27;
y = 0;
}
);
};
},
{
color = 5;
glyphname = "qof-hb";
kernLeft = lamedhebrew;
kernRight = vavhebrew;
layers = (
{
anchors = (
{
name = bottom;
pos = (86,0);
},
{
name = bottomleft;
pos = (20,0);
},
{
name = center;
pos = (-39,100);
},
{
name = top;
pos = (169,240);
},
{
name = topleft;
pos = (40,190);
}
);
layerId = "FF2DC345-5101-49B6-97F3-57A040F7C387";
shapes = (
{
closed = 1;
nodes = (
(-216,-413,o),
(-96,-22,o),
(1,0,cs),
(107,24,o),
(156,112,o),
(156,224,cs),
(156,238,o),
(144,245,o),
(132,245,cs),
(92,245,o),
(55,235,o),
(55,199,cs),
(55,93,o),
(20,57,o),
(-33,36,cs),
(-110,5,o),
(-186,-152,o),
(-268,-277,cs),
(-278,-293,o),
(-280,-293,o),
(-297,-293,cs),
(-324,-293,o),
(-354,-332,o),
(-354,-373,cs),
(-354,-394,o),
(-338,-413,o),
(-317,-413,cs)
);
}
);
userData = {
com.schriftgestaltung.hints = (
{
horizontal = 1;
options = 0;
place = (
513,
0
);
stem = -2;
type = Tag;
}
);
};
width = 189;
}
);
unicode = 1511;
userData = {
com.typemytype.robofont.guides = (
{
angle = 0;
isGlobal = 0;
magnetic = 5;
x = 0;
y = "-191";
},
{
angle = 90;
isGlobal = 0;
magnetic = 5;
x = 70;
y = 0;
},
{
angle = 90;
isGlobal = 0;
magnetic = 5;
x = 516;
y = 0;
},
{
angle = 90;
isGlobal = 0;
magnetic = 5;
x = 70;
y = 0;
}
);
};
},
{
color = 5;
glyphname = "resh-hb";
kernLeft = "resh-hb";
kernRight = "resh-hb";
layers = (
{
anchors = (
{
name = bottom;
pos = (90,0);
},
{
name = bottomleft;
pos = (-59,0);
},
{
name = center;
pos = (63,454);
},
{
name = top;
pos = (209,650);
},
{
name = topleft;
pos = (-21,650);
}
);
layerId = "FF2DC345-5101-49B6-97F3-57A040F7C387";
shapes = (
{
closed = 1;
nodes = (
(108,0,o),
(283,225,o),
(283,490,cs),
(283,592,o),
(227,672,o),
(96,672,cs),
(-33,672,o),
(-142,581,o),
(-142,455,cs),
(-142,369,o),
(-65,309,o),
(29,309,cs),
(114,309,o),
(154,343,o),
(154,351,cs),
(154,359,o),
(147,362,o),
(134,362,cs),
(110,362,o),
(88,355,o),
(61,355,cs),
(-19,355,o),
(-70,400,o),
(-70,465,cs),
(-70,554,o),
(-10,632,o),
(79,632,cs),
(144,632,o),
(186,588,o),
(186,498,cs),
(186,183,o),
(30,61,o),
(0,36,cs),
(-6,31,o),
(-17,23,o),
(-17,14,cs),
(-17,5,o),
(-11,0,o),
(-2,0,cs)
);
}
);
userData = {
com.schriftgestaltung.Glyphs.glyph.rightMetricsKey = "het-hb";
com.schriftgestaltung.hints = (
{
horizontal = 1;
options = 0;
origin = (
0,
12
);
stem = -2;
type = Tag;
}
);
};
width = 274;
},
{
anchors = (
{
name = bottom;
pos = (90,0);
},
{
name = bottomleft;
pos = (-59,0);
},
{
name = center;
pos = (63,434);
},
{
name = top;
pos = (209,650);
},
{
name = topleft;
pos = (-21,650);
}
);
associatedMasterId = "FF2DC345-5101-49B6-97F3-57A040F7C387";
layerId = "38C1D795-E407-4634-A532-81E1CA2881FC";
name = "Mar 23, 22, 20:20";
shapes = (
{
closed = 1;
nodes = (
(98,672,o),
(101,672,o),
(103,672,cs),
(223,672,o),
(283,594,o),
(283,490,cs),
(283,225,o),
(108,0,o),
(-2,0,cs),
(-11,0,o),
(-17,5,o),
(-17,14,cs),
(-17,26,o),
(-3,31,o),
(1,36,cs),
(30,63,o),
(186,183,o),
(186,498,cs),
(186,588,o),
(144,632,o),
(79,632,cs),
(-10,632,o),
(-70,554,o),
(-70,465,cs),
(-70,400,o),
(-19,355,o),
(61,355,cs),
(70,355,o),
(81,356,o),
(91,357,cs),
(106,359,o),
(118,360,o),
(127,360,cs),
(147,360,o),
(154,356,o),
(154,351,cs),
(154,346,o),
(146,339,o),
(134,333,cs),
(98,316,o),
(63,309,o),
(29,309,cs),
(-65,309,o),
(-142,369,o),
(-142,455,cs),
(-142,581,o),
(-33,669,o),
(96,672,cs)
);
}
);
userData = {
com.schriftgestaltung.Glyphs.glyph.rightMetricsKey = "het-hb";
com.schriftgestaltung.hints = (
{
horizontal = 1;
options = 0;
origin = (
0,
12
);
stem = -2;
type = Tag;
}
);
};
visible = 1;
width = 274;
}
);
unicode = 1512;
userData = {
com.typemytype.robofont.guides = (
{
angle = 0;
isGlobal = 0;
magnetic = 5;
x = 0;
y = 571;
},
{
angle = 90;
isGlobal = 0;
magnetic = 5;
x = 40;
y = 0;
},
{
angle = 90;
isGlobal = 0;
magnetic = 5;
x = 436;
y = 0;
}
);
};
},
{
color = 5;
glyphname = "shin-hb";
kernLeft = "shin-hb";
kernRight = "shin-hb";
layers = (
{
anchors = (
{
name = bottom;
pos = (149,0);
},
{
name = bottomleft;
pos = (16,0);
},
{
name = center;
pos = (213,100);
},
{
name = top;
pos = (247,262);
},
{
name = topleft;
pos = (107,356);
},
{
name = topright;
pos = (386,277);
}
);
layerId = "FF2DC345-5101-49B6-97F3-57A040F7C387";
shapes = (
{
closed = 1;
nodes = (
(-12,0,o),
(18,17,o),
(46,43,c),
(67,21,o),
(102,0,o),
(174,0,cs),
(316,0,o),
(426,85,o),
(426,205,cs),
(426,219,o),
(415,226,o),
(404,226,cs),
(364,226,o),
(325,216,o),
(325,180,cs),
(324,80,o),
(231,48,o),
(158,48,cs),
(115,48,o),
(89,60,o),
(75,75,c),
(105,112,o),
(130,158,o),
(143,198,c),
(237,203,o),
(297,270,o),
(297,300,cs),
(297,308,o),
(293,314,o),
(283,314,cs),
(255,314,o),
(215,276,o),
(173,277,cs),
(170,277,o),
(167,277,o),
(164,278,c),
(159,314,o),
(127,316,o),
(107,316,cs),
(55,316,o),
(34,277,o),
(34,245,cs),
(34,218,o),
(45,211,o),
(53,206,c),
(32,144,o),
(2,77,o),
(-30,52,cs),
(-36,47,o),
(-43,44,o),
(-50,42,cs),
(-61,40,o),
(-71,28,o),
(-71,18,cs),
(-71,5,o),
(-58,0,o),
(-43,0,cs)
);
}
);
userData = {
com.schriftgestaltung.Glyphs.glyph.leftMetricsKey = "het-hb";
com.schriftgestaltung.Glyphs.glyph.rightMetricsKey = "het-hb";
com.schriftgestaltung.hints = (
{
horizontal = 1;
options = 0;
origin = (
0,
4
);
stem = -2;
type = Tag;
}
);
};
width = 460;
},
{
anchors = (
{
name = bottom;
pos = (359,0);
},
{
name = bottomleft;
pos = (16,0);
},
{
name = center;
pos = (472,260);
},
{
name = top;
pos = (367,520);
},
{
name = topleft;
pos = (8,520);
},
{
name = topright;
pos = (693,520);
}
);
associatedMasterId = "FF2DC345-5101-49B6-97F3-57A040F7C387";
layerId = "E7622956-0AD4-499B-A960-AABF6CB408D9";
name = "Mar 23, 22, 21:05";
shapes = (
{
closed = 1;
nodes = (
(237,54,o),
(324,82,o),
(325,180,cs),
(325,216,o),
(364,226,o),
(404,226,cs),
(415,226,o),
(426,219,o),
(426,205,cs),
(426,85,o),
(316,0,o),
(174,0,cs),
(92,0,o),
(59,25,o),
(46,43,c),
(18,17,o),
(-12,0,o),
(-43,0,cs),
(-61,0,o),
(-69,6,o),
(-70,14,cs),
(-71,15,o),
(-71,16,o),
(-71,18,cs),
(-71,28,o),
(-61,40,o),
(-50,42,cs),
(-43,44,o),
(-36,47,o),
(-30,52,cs),
(2,77,o),
(32,144,o),
(53,206,c),
(47,211,o),
(34,216,o),
(34,245,cs),
(34,247,o),
(34,250,o),
(35,254,cs),
(37,280,o),
(56,316,o),
(107,316,cs),
(127,316,o),
(159,314,o),
(164,278,c),
(166,277,o),
(168,277,o),
(171,277,cs),
(188,277,o),
(212,282,o),
(243,299,cs),
(260,309,o),
(274,314,o),
(283,314,cs),
(293,314,o),
(297,308,o),
(297,300,cs),
(297,270,o),
(237,203,o),
(143,198,c),
(130,158,o),
(105,112,o),
(75,75,c),
(90,63,o),
(112,48,o),
(158,48,cs),
(164,48,o),
(171,48,o),
(179,49,cs)
);
}
);
userData = {
com.schriftgestaltung.Glyphs.glyph.leftMetricsKey = "het-hb";
com.schriftgestaltung.Glyphs.glyph.rightMetricsKey = "het-hb";
com.schriftgestaltung.hints = (
{
horizontal = 1;
options = 0;
origin = (
0,
4
);
stem = -2;
type = Tag;
}
);
};
visible = 1;
width = 460;
}
);
unicode = 1513;
userData = {
com.typemytype.robofont.guides = (
{
angle = 0;
isGlobal = 0;
magnetic = 5;
x = 0;
y = 952;
},
{
angle = 0;
isGlobal = 0;
magnetic = 5;
x = 0;
y = 571;
}
);
};
},
{
color = 5;
glyphname = "tav-hb";
kernLeft = hethebrew;
kernRight = tavhebrew;
layers = (
{
anchors = (
{
name = bottom;
pos = (190,0);
},
{
name = bottomleft;
pos = (10,0);
},
{
name = center;
pos = (170,126);
},
{
name = top;
pos = (300,248);
},
{
name = topleft;
pos = (52,152);
}
);
layerId = "FF2DC345-5101-49B6-97F3-57A040F7C387";
shapes = (
{
closed = 1;
nodes = (
(-186,-414,o),
(25,-143,o),
(82,40,c),
(94,27,o),
(119,20,o),
(147,20,cs),
(263,20,o),
(371,144,o),
(371,264,cs),
(371,278,o),
(359,285,o),
(348,285,cs),
(308,285,o),
(269,275,o),
(269,239,cs),
(269,152,o),
(233,66,o),
(149,66,cs),
(122,66,o),
(106,75,o),
(99,101,cs),
(94,119,o),
(74,127,o),
(54,127,cs),
(32,127,o),
(11,118,o),
(7,101,cs),
(-48,-116,o),
(-258,-358,o),
(-493,-358,cs),
(-586,-358,o),
(-633,-298,o),
(-633,-227,cs),
(-633,-176,o),
(-608,-120,o),
(-556,-78,cs),
(-535,-60,o),
(-526,-46,o),
(-526,-36,cs),
(-526,-28,o),
(-533,-23,o),
(-543,-23,cs),
(-557,-23,o),
(-577,-31,o),
(-599,-48,cs),
(-672,-107,o),
(-705,-176,o),
(-705,-238,cs),
(-705,-334,o),
(-628,-414,o),
(-503,-414,cs)
);
}
);
userData = {
com.schriftgestaltung.Glyphs.glyph.rightMetricsKey = "het-hb";
com.schriftgestaltung.hints = (
{
horizontal = 1;
options = 0;
place = (
513,
0
);
stem = -2;
type = Tag;
}
);
};
width = 404;
}
);
unicode = 1514;
userData = {
com.typemytype.robofont.guides = (
{
angle = 0;
isGlobal = 0;
magnetic = 5;
x = 0;
y = 571;
},
{
angle = 90;
isGlobal = 0;
magnetic = 5;
x = 576;
y = 0;
},
{
angle = 90;
isGlobal = 0;
magnetic = 5;
x = 50;
y = 0;
}
);
};
},
{
color = 5;
glyphname = "gimel-hb.alt";
layers = (
{
layerId = "FF2DC345-5101-49B6-97F3-57A040F7C387";
shapes = (
{
closed = 1;
nodes = (
(-88,-87,o),
(-59,-44,o),
(36,-44,cs),
(72,-44,o),
(106,-49,o),
(147,-49,cs),
(274,-49,o),
(372,102,o),
(372,223,cs),
(372,237,o),
(361,244,o),
(349,244,cs),
(309,244,o),
(270,234,o),
(270,198,cs),
(270,111,o),
(232,2,o),
(148,2,cs),
(112,2,o),
(69,9,o),
(21,9,cs),
(-117,9,o),
(-141,-39,o),
(-239,-39,cs),
(-271,-39,o),
(-285,-35,o),
(-297,-35,cs),
(-304,-35,o),
(-306,-39,o),
(-306,-43,cs),
(-306,-64,o),
(-259,-87,o),
(-189,-87,cs)
);
}
);
width = 405;
},
{
associatedMasterId = "FF2DC345-5101-49B6-97F3-57A040F7C387";
layerId = "D4F99A95-E43B-4514-A959-50C56F3E0CF3";
name = "Aug 30, 22, 18:24";
shapes = (
{
closed = 1;
nodes = (
(-174,-87,o),
(-158,-86,o),
(-140,-83,cs),
(-87,-77,o),
(-59,-53,o),
(7,-46,cs),
(16,-45,o),
(25,-44,o),
(36,-44,cs),
(72,-44,o),
(116,-49,o),
(147,-49,cs),
(263,-49,o),
(372,102,o),
(372,223,cs),
(372,237,o),
(361,244,o),
(349,244,cs),
(309,244,o),
(270,234,o),
(270,198,cs),
(270,111,o),
(232,2,o),
(148,2,cs),
(112,2,o),
(69,9,o),
(21,9,cs),
(10,9,o),
(-1,9,o),
(-12,8,cs),
(-135,-1,o),
(-143,-39,o),
(-239,-39,cs),
(-255,-39,o),
(-273,-38,o),
(-295,-35,cs),
(-296,-35,o),
(-297,-35,o),
(-297,-35,cs),
(-304,-35,o),
(-306,-39,o),
(-306,-43,cs),
(-306,-44,o),
(-306,-45,o),
(-306,-46,cs),
(-303,-65,o),
(-259,-87,o),
(-189,-87,cs)
);
}
);
visible = 1;
width = 405;
}
);
},
{
color = 5;
glyphname = "dalet-hb.alt";
layers = (
{
layerId = "FF2DC345-5101-49B6-97F3-57A040F7C387";
shapes = (
{
closed = 1;
nodes = (
(243,0,o),
(301,98,o),
(301,199,cs),
(301,284,o),
(254,304,o),
(202,304,cs),
(165,304,o),
(112,290,o),
(80,290,cs),
(20,290,o),
(11,314,o),
(-11,314,cs),
(-37,314,o),
(-59,298,o),
(-59,272,cs),
(-59,251,o),
(-41,231,o),
(7,231,cs),
(41,231,o),
(118,252,o),
(153,252,cs),
(187,252,o),
(211,238,o),
(211,190,cs),
(211,136,o),
(190,53,o),
(129,42,cs),
(118,40,o),
(108,28,o),
(108,18,cs),
(108,8,o),
(116,0,o),
(136,0,cs)
);
}
);
width = 333;
},
{
associatedMasterId = "FF2DC345-5101-49B6-97F3-57A040F7C387";
layerId = "9729CA6E-2A61-4DC1-AD4F-DEB7B227D9DC";
name = "Aug 30, 22, 10:11";
shapes = (
{
closed = 1;
nodes = (
(235,0,o),
(294,87,o),
(301,180,cs),
(301,187,o),
(301,193,o),
(301,199,cs),
(301,284,o),
(254,304,o),
(202,304,cs),
(159,304,o),
(112,291,o),
(83,290,cs),
(82,290,o),
(81,290,o),
(80,290,cs),
(14,290,o),
(15,314,o),
(-11,314,cs),
(-15,314,o),
(-21,313,o),
(-28,312,cs),
(-46,307,o),
(-59,289,o),
(-59,272,cs),
(-59,251,o),
(-41,231,o),
(7,231,cs),
(14,231,o),
(21,232,o),
(29,233,cs),
(70,237,o),
(117,252,o),
(153,252,cs),
(187,252,o),
(211,238,o),
(211,190,cs),
(211,184,o),
(211,177,o),
(210,170,cs),
(203,98,o),
(174,50,o),
(129,42,cs),
(118,40,o),
(108,28,o),
(108,18,cs),
(108,8,o),
(116,0,o),
(136,0,cs)
);
}
);
visible = 1;
width = 333;
}
);
},
{
color = 10;
export = 0;
glyphname = uni05D0.alt;
layers = (
{
layerId = "FF2DC345-5101-49B6-97F3-57A040F7C387";
shapes = (
{
closed = 1;
nodes = (
(143,-1,o),
(223,635,o),
(306,664,cs),
(313,667,o),
(317,676,o),
(317,685,cs),
(317,693,o),
(313,700,o),
(305,700,cs),
(305,700,o),
(304,700,o),
(303,700,cs),
(144,672,o),
(51,61,o),
(-61,41,cs),
(-73,39,o),
(-82,27,o),
(-82,17,cs),
(-82,7,o),
(-75,-1,o),
(-55,-1,cs)
);
}
);
width = 156;
}
);
},
{
color = 10;
export = 0;
glyphname = uni05D1.alt;
layers = (
{
layerId = "FF2DC345-5101-49B6-97F3-57A040F7C387";
shapes = (
{
closed = 1;
nodes = (
(166,0,o),
(261,57,o),
(269,156,cs),
(270,166,o),
(271,176,o),
(271,184,cs),
(271,265,o),
(234,283,o),
(189,283,cs),
(155,283,o),
(116,272,o),
(85,272,cs),
(84,272,o),
(83,272,o),
(83,272,cs),
(35,272,o),
(37,296,o),
(11,296,cs),
(7,296,o),
(1,296,o),
(-6,294,cs),
(-24,289,o),
(-37,272,o),
(-37,254,cs),
(-37,235,o),
(-20,216,o),
(28,216,cs),
(35,216,o),
(42,216,o),
(50,217,cs),
(87,221,o),
(119,229,o),
(143,229,cs),
(170,229,o),
(186,219,o),
(186,182,cs),
(186,175,o),
(185,167,o),
(184,157,cs),
(174,89,o),
(128,56,o),
(67,51,cs),
(63,51,o),
(59,51,o),
(55,51,cs),
(-2,51,o),
(-42,81,o),
(-57,86,cs),
(-60,87,o),
(-63,87,o),
(-66,87,cs),
(-74,87,o),
(-78,83,o),
(-78,76,cs),
(-78,52,o),
(-32,0,o),
(66,0,cs)
);
}
);
width = 305;
}
);
},
{
color = 10;
export = 0;
glyphname = uni05D4.alt;
layers = (
{
layerId = "FF2DC345-5101-49B6-97F3-57A040F7C387";
shapes = (
{
closed = 1;
nodes = (
(13,-47,o),
(22,-45,o),
(29,-42,cs),
(39,-39,o),
(42,-31,o),
(42,-24,cs),
(42,-19,o),
(41,-14,o),
(39,-10,cs),
(35,-1,o),
(33,8,o),
(33,15,cs),
(33,78,o),
(167,91,o),
(167,246,cs),
(167,254,o),
(166,262,o),
(166,271,cs),
(164,285,o),
(153,291,o),
(143,291,cs),
(142,291,o),
(141,291,o),
(140,290,cs),
(102,287,o),
(70,277,o),
(70,245,cs),
(70,243,o),
(70,242,o),
(70,240,cs),
(71,234,o),
(71,228,o),
(71,222,cs),
(71,95,o),
(-51,80,o),
(-51,15,cs),
(-51,3,o),
(-46,-10,o),
(-37,-27,cs),
(-28,-42,o),
(-12,-47,o),
(3,-47,cs)
);
}
);
width = 200;
}
);
},
{
color = 10;
export = 0;
glyphname = uni05D5.alt;
layers = (
{
layerId = "FF2DC345-5101-49B6-97F3-57A040F7C387";
shapes = (
{
closed = 1;
nodes = (
(-40,-39,o),
(-40,-39,o),
(-39,-39,cs),
(22,-39,o),
(249,514,o),
(259,597,cs),
(260,598,o),
(260,600,o),
(260,602,cs),
(260,620,o),
(245,621,o),
(225,623,cs),
(224,623,o),
(224,623,o),
(223,623,cs),
(217,624,o),
(211,624,o),
(206,624,cs),
(192,624,o),
(180,620,o),
(175,603,cs),
(99,356,o),
(-54,4,o),
(-58,-17,cs),
(-58,-20,o),
(-59,-23,o),
(-59,-26,cs),
(-59,-33,o),
(-55,-37,o),
(-40,-39,cs)
);
}
);
width = 154;
}
);
},
{
color = 10;
export = 0;
glyphname = uni05D9.alt;
layers = (
{
layerId = "FF2DC345-5101-49B6-97F3-57A040F7C387";
shapes = (
{
closed = 1;
nodes = (
(29,17,o),
(99,108,o),
(99,152,cs),
(99,176,o),
(85,176,o),
(62,176,cs),
(61,176,o),
(60,176,o),
(59,176,cs),
(37,176,o),
(16,174,o),
(9,150,cs),
(-19,54,o),
(-30,49,o),
(-30,35,cs),
(-30,22,o),
(-30,17,o),
(-8,17,cs)
);
}
);
width = 132;
}
);
},
{
color = 10;
export = 0;
glyphname = uni05E1.alt;
layers = (
{
layerId = "FF2DC345-5101-49B6-97F3-57A040F7C387";
shapes = (
{
closed = 1;
nodes = (
(156,-19,o),
(218,5,o),
(268,61,c),
(285,29,o),
(311,0,o),
(361,0,cs),
(449,0,o),
(555,58,o),
(565,164,cs),
(566,168,o),
(566,172,o),
(566,176,cs),
(566,229,o),
(534,279,o),
(444,279,c),
(413,279,o),
(385,270,o),
(359,255,c),
(359,255,o),
(359,256,o),
(359,256,cs),
(359,279,o),
(344,279,o),
(322,279,cs),
(321,279,o),
(321,279,o),
(319,279,cs),
(297,279,o),
(276,278,o),
(269,255,cs),
(255,205,o),
(224,66,o),
(127,41,cs),
(113,38,o),
(101,36,o),
(90,36,cs),
(35,36,o),
(4,73,o),
(4,128,cs),
(4,166,o),
(19,211,o),
(50,258,cs),
(63,278,o),
(68,292,o),
(68,302,cs),
(68,311,o),
(63,316,o),
(55,316,cs),
(42,316,o),
(21,303,o),
(1,276,cs),
(-40,220,o),
(-58,168,o),
(-58,125,cs),
(-58,37,o),
(15,-19,o),
(100,-19,cs)
);
},
{
closed = 1;
nodes = (
(332,46,o),
(313,79,o),
(313,111,cs),
(313,120,o),
(315,128,o),
(317,136,cs),
(335,192,o),
(348,230,o),
(413,230,cs),
(418,230,o),
(422,230,o),
(427,229,cs),
(452,228,o),
(480,214,o),
(480,172,cs),
(480,169,o),
(480,166,o),
(480,164,cs),
(475,108,o),
(427,46,o),
(363,46,cs)
);
}
);
width = 607;
}
);
},
{
color = 10;
export = 0;
glyphname = uni05E6.alt;
layers = (
{
layerId = "FF2DC345-5101-49B6-97F3-57A040F7C387";
shapes = (
{
closed = 1;
nodes = (
(35,0,o),
(152,55,o),
(161,210,c),
(228,260,o),
(249,327,o),
(249,370,cs),
(249,393,o),
(243,409,o),
(234,411,cs),
(232,412,o),
(229,412,o),
(226,412,cs),
(216,412,o),
(204,407,o),
(197,387,cs),
(170,318,o),
(152,308,o),
(140,300,c),
(128,307,o),
(114,311,o),
(101,311,cs),
(51,311,o),
(35,272,o),
(35,248,cs),
(34,247,o),
(34,247,o),
(34,246,cs),
(34,219,o),
(50,205,o),
(58,199,cs),
(58,199,o),
(59,198,o),
(60,198,cs),
(60,195,o),
(60,192,o),
(60,190,cs),
(60,97,o),
(16,60,o),
(-47,51,cs),
(-90,45,o),
(-106,29,o),
(-106,16,cs),
(-106,7,o),
(-98,0,o),
(-86,0,c)
);
}
);
width = 216;
}
);
},
{
color = 10;
export = 0;
glyphname = uni05E8.alt;
layers = (
{
layerId = "FF2DC345-5101-49B6-97F3-57A040F7C387";
shapes = (
{
closed = 1;
nodes = (
(32,-158,o),
(33,-158,o),
(35,-158,cs),
(228,-115,o),
(317,32,o),
(326,138,cs),
(327,149,o),
(327,159,o),
(327,168,cs),
(327,282,o),
(267,327,o),
(180,327,cs),
(178,327,o),
(176,327,o),
(174,327,cs),
(68,324,o),
(0,265,o),
(0,160,cs),
(0,82,o),
(61,31,o),
(130,31,cs),
(156,31,o),
(183,38,o),
(208,53,cs),
(217,58,o),
(221,64,o),
(221,68,cs),
(221,76,o),
(210,81,o),
(192,81,cs),
(185,81,o),
(176,80,o),
(166,78,cs),
(160,77,o),
(155,76,o),
(149,76,cs),
(107,76,o),
(72,113,o),
(72,169,cs),
(72,171,o),
(72,174,o),
(72,176,cs),
(75,239,o),
(101,283,o),
(157,287,cs),
(161,287,o),
(164,288,o),
(167,288,cs),
(230,288,o),
(250,238,o),
(250,180,cs),
(250,161,o),
(247,140,o),
(244,120,cs),
(231,52,o),
(200,-53,o),
(35,-122,cs),
(29,-125,o),
(16,-130,o),
(15,-141,cs),
(15,-141,o),
(15,-142,o),
(15,-142,cs),
(15,-150,o),
(21,-158,o),
(31,-158,cs)
);
}
);
width = 375;
}
);
},
{
color = 10;
export = 0;
glyphname = uni05D0.yud;
layers = (
{
layerId = "FF2DC345-5101-49B6-97F3-57A040F7C387";
shapes = (
{
closed = 1;
nodes = (
(168,-2,o),
(260,460,o),
(306,561,cs),
(314,578,o),
(323,583,o),
(335,583,cs),
(338,583,o),
(342,583,o),
(345,582,cs),
(349,581,o),
(353,581,o),
(356,581,cs),
(392,581,o),
(408,619,o),
(410,652,cs),
(410,653,o),
(410,655,o),
(410,656,cs),
(410,682,o),
(397,701,o),
(363,701,cs),
(222,701,o),
(98,46,o),
(-1,46,cs),
(-34,46,o),
(-37,100,o),
(-37,123,cs),
(-37,130,o),
(-37,134,o),
(-37,134,cs),
(-86,95,l),
(-86,95,o),
(-69,-2,o),
(3,-2,cs)
);
}
);
width = 233;
}
);
},
{
color = 10;
export = 0;
glyphname = uni05D8.yud;
layers = (
{
layerId = "FF2DC345-5101-49B6-97F3-57A040F7C387";
shapes = (
{
closed = 1;
nodes = (
(56,0,o),
(98,31,o),
(124,73,c),
(140,42,o),
(170,20,o),
(219,20,cs),
(335,20,o),
(443,144,o),
(443,264,cs),
(443,278,o),
(432,285,o),
(421,285,cs),
(381,285,o),
(342,275,o),
(342,239,cs),
(342,152,o),
(305,66,o),
(221,66,cs),
(191,66,o),
(167,101,o),
(167,134,cs),
(167,141,o),
(169,149,o),
(171,156,cs),
(188,197,o),
(204,238,o),
(204,248,cs),
(204,272,o),
(188,272,o),
(166,272,cs),
(165,272,o),
(165,272,o),
(164,272,cs),
(141,272,o),
(120,270,o),
(114,247,cs),
(108,227,o),
(59,46,o),
(-1,46,cs),
(-34,46,o),
(-37,104,o),
(-37,126,cs),
(-37,131,o),
(-37,134,o),
(-37,134,cs),
(-86,95,l),
(-86,95,o),
(-69,0,o),
(-1,0,cs)
);
}
);
width = 467;
}
);
},
{
color = 10;
export = 0;
glyphname = uni05E1.yud;
layers = (
{
layerId = "FF2DC345-5101-49B6-97F3-57A040F7C387";
shapes = (
{
closed = 1;
nodes = (
(46,0,o),
(91,24,o),
(115,61,c),
(131,29,o),
(158,0,o),
(207,0,cs),
(295,0,o),
(402,58,o),
(412,164,cs),
(412,168,o),
(412,172,o),
(412,176,cs),
(412,229,o),
(380,279,o),
(290,279,c),
(260,279,o),
(231,270,o),
(206,255,c),
(206,255,o),
(206,256,o),
(206,256,cs),
(206,279,o),
(190,279,o),
(168,279,cs),
(167,279,o),
(167,279,o),
(166,279,cs),
(144,279,o),
(122,278,o),
(116,255,cs),
(110,235,o),
(59,46,o),
(-1,46,cs),
(-34,46,o),
(-37,104,o),
(-37,126,cs),
(-37,131,o),
(-37,134,o),
(-37,134,cs),
(-86,95,l),
(-86,95,o),
(-69,0,o),
(-1,0,cs)
);
},
{
closed = 1;
nodes = (
(178,46,o),
(160,79,o),
(160,111,cs),
(160,120,o),
(161,128,o),
(164,136,cs),
(181,192,o),
(194,230,o),
(260,230,cs),
(264,230,o),
(269,230,o),
(274,229,cs),
(298,228,o),
(326,214,o),
(326,172,cs),
(326,169,o),
(326,166,o),
(326,164,cs),
(322,108,o),
(274,46,o),
(209,46,cs)
);
}
);
width = 451;
}
);
},
{
color = 10;
export = 0;
glyphname = uni05D0.alt.yud;
layers = (
{
layerId = "FF2DC345-5101-49B6-97F3-57A040F7C387";
shapes = (
{
closed = 1;
nodes = (
(205,-2,o),
(284,635,o),
(367,664,cs),
(374,667,o),
(379,676,o),
(379,685,cs),
(379,693,o),
(375,700,o),
(367,700,cs),
(366,700,o),
(365,700,o),
(364,700,cs),
(205,672,o),
(105,46,o),
(-1,46,cs),
(-34,46,o),
(-37,100,o),
(-37,123,cs),
(-37,130,o),
(-37,134,o),
(-37,134,cs),
(-86,95,l),
(-86,95,o),
(-69,-2,o),
(3,-2,cs)
);
}
);
width = 236;
}
);
},
{
color = 4;
glyphname = uni05D1_uni05F3;
layers = (
{
layerId = "FF2DC345-5101-49B6-97F3-57A040F7C387";
shapes = (
{
ref = "bet-hb";
},
{
pos = (68,0);
ref = "geresh-hb";
}
);
width = 305;
},
{
associatedMasterId = "FF2DC345-5101-49B6-97F3-57A040F7C387";
layerId = "AA2B70B8-E36A-4B02-8689-9EEC17AF6784";
name = "May 19, 22, 21:37";
shapes = (
{
closed = 1;
nodes = (
(166,0,o),
(260,58,o),
(270,164,cs),
(271,168,o),
(271,172,o),
(271,176,cs),
(271,177,o),
(271,177,o),
(271,177,cs),
(271,249,o),
(199,279,o),
(136,279,cs),
(136,279,ls),
(71,279,o),
(9,236,o),
(9,214,cs),
(9,212,o),
(9,211,o),
(10,209,cs),
(12,204,o),
(18,200,o),
(26,200,cs),
(31,200,o),
(37,202,o),
(45,206,cs),
(62,216,o),
(79,232,o),
(118,232,cs),
(154,232,o),
(185,214,o),
(185,172,cs),
(185,169,o),
(185,166,o),
(185,164,cs),
(180,104,o),
(128,56,o),
(67,51,cs),
(63,51,o),
(59,51,o),
(55,51,cs),
(-2,51,o),
(-42,81,o),
(-57,86,cs),
(-60,87,o),
(-63,87,o),
(-66,87,cs),
(-74,87,o),
(-78,83,o),
(-78,76,cs),
(-78,52,o),
(-32,0,o),
(66,0,cs)
);
},
{
closed = 1;
nodes = (
(126,467,o),
(130,468,o),
(134,469,cs),
(168,476,o),
(236,550,o),
(267,594,cs),
(270,598,o),
(271,602,o),
(271,607,cs),
(271,615,o),
(266,625,o),
(250,632,cs),
(239,638,o),
(229,640,o),
(221,640,cs),
(208,640,o),
(200,634,o),
(196,628,cs),
(140,543,o),
(104,508,o),
(99,491,cs),
(98,489,o),
(98,487,o),
(98,486,cs),
(98,475,o),
(108,467,o),
(123,467,cs)
);
}
);
visible = 1;
width = 305;
}
);
},
{
color = 4;
glyphname = uni05D2_uni05F3_uni05D5;
layers = (
{
layerId = "FF2DC345-5101-49B6-97F3-57A040F7C387";
shapes = (
{
ref = "gimel-hb";
},
{
pos = (263,0);
ref = "geresh-hb";
},
{
alignment = -1;
pos = (44,82);
ref = "vav-hb";
}
);
width = 585;
},
{
associatedMasterId = "FF2DC345-5101-49B6-97F3-57A040F7C387";
layerId = "C488E22C-6460-42F9-92F7-3D17D75F51B2";
name = "May 19, 22, 23:19";
shapes = (
{
closed = 1;
nodes = (
(441,-41,o),
(552,102,o),
(552,223,cs),
(552,237,o),
(541,244,o),
(530,244,cs),
(490,244,o),
(451,234,o),
(451,198,cs),
(451,111,o),
(415,11,o),
(332,11,cs),
(287,11,o),
(221,53,o),
(168,53,cs),
(118,53,o),
(73,18,o),
(6,18,cs),
(-50,18,o),
(-76,48,o),
(-115,48,cs),
(-124,48,o),
(-126,45,o),
(-126,38,cs),
(-126,14,o),
(-49,-38,o),
(51,-38,cs),
(92,-38,o),
(155,-6,o),
(187,-6,cs),
(227,-6,o),
(285,-41,o),
(325,-41,cs)
);
},
{
closed = 1;
nodes = (
(40,82,o),
(66,115,o),
(92,157,cs),
(135,223,o),
(177,312,o),
(177,338,cs),
(177,360,o),
(165,361,o),
(146,361,cs),
(144,361,o),
(142,361,o),
(140,361,cs),
(139,361,o),
(138,361,o),
(137,361,cs),
(115,361,o),
(93,359,o),
(87,336,cs),
(60,238,o),
(3,115,o),
(3,100,cs),
(3,88,o),
(3,82,o),
(24,82,cs)
);
},
{
closed = 1;
nodes = (
(321,467,o),
(325,468,o),
(328,469,cs),
(363,476,o),
(431,550,o),
(462,594,cs),
(464,598,o),
(466,602,o),
(466,607,cs),
(466,615,o),
(460,625,o),
(445,632,cs),
(433,638,o),
(424,640,o),
(416,640,cs),
(402,640,o),
(395,634,o),
(391,628,cs),
(335,543,o),
(299,508,o),
(294,491,cs),
(293,489,o),
(293,487,o),
(293,486,cs),
(293,475,o),
(303,467,o),
(318,467,cs)
);
}
);
visible = 1;
width = 585;
}
);
},
{
color = 4;
glyphname = uni05D2_uni05F3_uni05D9;
layers = (
{
layerId = "FF2DC345-5101-49B6-97F3-57A040F7C387";
shapes = (
{
ref = "gimel-hb";
},
{
pos = (205,0);
ref = "geresh-hb";
},
{
alignment = -1;
ref = "yod-hb";
}
);
width = 585;
},
{
associatedMasterId = "FF2DC345-5101-49B6-97F3-57A040F7C387";
layerId = "8EA7EDC4-FD74-44E6-A0A9-AFE0B2747525";
name = "May 19, 22, 22:09";
shapes = (
{
closed = 1;
nodes = (
(441,-41,o),
(552,102,o),
(552,223,cs),
(552,237,o),
(541,244,o),
(530,244,cs),
(490,244,o),
(451,234,o),
(451,198,cs),
(451,111,o),
(415,11,o),
(332,11,cs),
(287,11,o),
(221,53,o),
(168,53,cs),
(118,53,o),
(73,18,o),
(6,18,cs),
(-50,18,o),
(-76,48,o),
(-115,48,cs),
(-124,48,o),
(-126,45,o),
(-126,38,cs),
(-126,14,o),
(-49,-38,o),
(51,-38,cs),
(92,-38,o),
(155,-6,o),
(187,-6,cs),
(227,-6,o),
(285,-41,o),
(325,-41,cs)
);
},
{
closed = 1;
nodes = (
(59,85,o),
(117,159,o),
(117,204,cs),
(117,227,o),
(102,227,o),
(80,227,cs),
(79,227,o),
(78,227,o),
(77,227,cs),
(55,227,o),
(33,225,o),
(27,201,cs),
(0,105,o),
(0,117,o),
(0,102,cs),
(0,90,o),
(2,85,o),
(22,85,cs)
);
},
{
closed = 1;
nodes = (
(263,467,o),
(267,468,o),
(270,469,cs),
(305,476,o),
(373,550,o),
(404,594,cs),
(406,598,o),
(408,602,o),
(408,607,cs),
(408,615,o),
(403,625,o),
(387,632,cs),
(376,638,o),
(366,640,o),
(358,640,cs),
(345,640,o),
(337,634,o),
(333,628,cs),
(277,543,o),
(241,508,o),
(236,491,cs),
(235,489,o),
(235,487,o),
(235,486,cs),
(235,475,o),
(245,467,o),
(260,467,cs)
);
}
);
visible = 1;
width = 585;
}
);
},
{
color = 5;
glyphname = uni05D3_uni05D9;
layers = (
{
layerId = "FF2DC345-5101-49B6-97F3-57A040F7C387";
shapes = (
{
closed = 1;
nodes = (
(281,0,o),
(361,94,o),
(361,197,cs),
(361,308,o),
(240,341,o),
(147,350,cs),
(46,360,o),
(4,396,o),
(-19,396,cs),
(-27,396,o),
(-32,392,o),
(-32,385,cs),
(-32,365,o),
(4,328,o),
(121,308,cs),
(193,296,o),
(271,285,o),
(271,202,cs),
(271,144,o),
(225,46,o),
(152,46,cs),
(121,46,o),
(101,75,o),
(101,114,cs),
(101,123,o),
(107,136,o),
(107,147,cs),
(107,163,o),
(101,170,o),
(70,170,cs),
(36,170,o),
(23,164,o),
(17,145,cs),
(-10,53,o),
(-22,43,o),
(-22,29,cs),
(-22,17,o),
(-17,11,o),
(0,11,cs),
(16,11,o),
(39,29,o),
(60,53,c),
(77,25,o),
(105,0,o),
(150,0,cs)
);
}
);
width = 394;
},
{
associatedMasterId = "FF2DC345-5101-49B6-97F3-57A040F7C387";
layerId = "EA230ECB-672C-4BD7-BB6F-60ED0F01D0F8";
name = "Aug 29, 22, 19:15";
shapes = (
{
closed = 1;
nodes = (
(284,0,o),
(361,100,o),
(361,195,cs),
(361,196,o),
(361,196,o),
(361,197,cs),
(360,314,o),
(221,344,o),
(146,349,cs),
(66,355,o),
(3,394,o),
(-17,396,cs),
(-17,396,o),
(-18,396,o),
(-19,396,cs),
(-27,396,o),
(-32,392,o),
(-32,385,cs),
(-32,365,o),
(4,328,o),
(121,308,cs),
(193,296,o),
(271,285,o),
(271,202,cs),
(271,198,o),
(271,192,o),
(270,187,cs),
(264,126,o),
(219,47,o),
(152,46,cs),
(152,46,o),
(152,46,o),
(152,46,cs),
(119,46,o),
(101,83,o),
(101,114,cs),
(101,115,o),
(101,116,o),
(102,117,cs),
(102,119,o),
(102,121,o),
(102,122,cs),
(105,131,o),
(107,140,o),
(107,147,cs),
(107,170,o),
(92,170,o),
(70,170,cs),
(69,170,o),
(68,170,o),
(67,170,cs),
(45,170,o),
(23,168,o),
(17,145,cs),
(-11,48,o),
(-22,43,o),
(-22,29,cs),
(-22,17,o),
(-22,11,o),
(0,11,c),
(16,11,o),
(39,29,o),
(60,53,c),
(77,25,o),
(105,0,o),
(150,0,cs)
);
}
);
visible = 1;
width = 394;
}
);
},
{
color = 5;
glyphname = uni05D3_uni05D9_uni05D9;
layers = (
{
layerId = "FF2DC345-5101-49B6-97F3-57A040F7C387";
shapes = (
{
closed = 1;
nodes = (
(386,0,o),
(445,116,o),
(445,197,cs),
(445,321,o),
(299,343,o),
(203,354,cs),
(123,363,o),
(35,410,o),
(17,410,cs),
(9,410,o),
(6,406,o),
(6,401,cs),
(6,381,o),
(52,334,o),
(178,313,cs),
(251,301,o),
(356,296,o),
(356,202,cs),
(356,160,o),
(340,53,o),
(272,42,cs),
(260,40,o),
(251,28,o),
(251,18,cs),
(251,8,o),
(258,0,o),
(278,0,cs)
);
},
{
closed = 1;
nodes = (
(59,76,o),
(117,150,o),
(117,195,cs),
(117,214,o),
(109,218,o),
(80,218,cs),
(48,218,o),
(32,213,o),
(27,193,cs),
(6,117,o),
(0,108,o),
(0,93,cs),
(0,81,o),
(3,76,o),
(22,76,cs)
);
},
{
closed = 1;
nodes = (
(209,76,o),
(267,150,o),
(267,195,cs),
(267,213,o),
(260,218,o),
(230,218,cs),
(197,218,o),
(182,211,o),
(177,193,cs),
(157,117,o),
(149,106,o),
(149,93,cs),
(149,81,o),
(153,76,o),
(173,76,cs)
);
}
);
width = 479;
},
{
associatedMasterId = "FF2DC345-5101-49B6-97F3-57A040F7C387";
layerId = "0C60703A-1078-4AF2-8991-80D587AA694D";
name = "Aug 29, 22, 17:38";
shapes = (
{
closed = 1;
nodes = (
(386,0,o),
(445,116,o),
(445,197,cs),
(445,321,o),
(299,343,o),
(203,354,cs),
(123,363,o),
(38,408,o),
(18,410,cs),
(17,410,o),
(16,410,o),
(16,410,cs),
(10,410,o),
(6,406,o),
(6,401,cs),
(6,381,o),
(52,334,o),
(178,313,cs),
(251,301,o),
(356,296,o),
(356,202,cs),
(356,197,o),
(356,192,o),
(355,187,cs),
(347,115,o),
(329,52,o),
(272,42,cs),
(260,40,o),
(251,28,o),
(251,18,cs),
(251,8,o),
(258,0,o),
(278,0,cs)
);
},
{
closed = 1;
nodes = (
(59,76,o),
(117,150,o),
(117,195,cs),
(117,218,o),
(102,218,o),
(80,218,cs),
(79,218,o),
(78,218,o),
(77,218,cs),
(55,218,o),
(33,216,o),
(27,193,cs),
(0,96,o),
(0,108,o),
(0,93,cs),
(0,81,o),
(0,76,o),
(22,76,cs)
);
},
{
closed = 1;
nodes = (
(209,76,o),
(267,150,o),
(267,195,cs),
(267,218,o),
(253,218,o),
(230,218,cs),
(229,218,o),
(228,218,o),
(227,218,cs),
(205,218,o),
(184,216,o),
(177,193,cs),
(150,96,o),
(150,108,o),
(150,93,cs),
(150,81,o),
(150,76,o),
(173,76,cs)
);
}
);
visible = 1;
width = 479;
}
);
},
{
color = 5;
glyphname = uni05D3_uni05D9_uni05D9_uni05D5;
layers = (
{
layerId = "FF2DC345-5101-49B6-97F3-57A040F7C387";
shapes = (
{
closed = 1;
nodes = (
(20,0,o),
(32,3,o),
(36,20,cs),
(64,119,o),
(106,235,o),
(147,339,c),
(216,325,o),
(284,318,o),
(315,313,cs),
(446,292,o),
(493,272,o),
(493,202,cs),
(493,152,o),
(478,55,o),
(408,42,cs),
(397,40,o),
(388,28,o),
(388,18,cs),
(388,8,o),
(395,0,o),
(415,0,cs),
(523,0,o),
(582,116,o),
(582,197,cs),
(582,321,o),
(436,343,o),
(339,354,cs),
(295,359,o),
(228,369,o),
(165,384,c),
(219,520,o),
(270,630,o),
(270,649,cs),
(270,655,o),
(267,662,o),
(252,662,cs),
(231,662,o),
(197,610,o),
(158,535,c),
(141,538,o),
(119,539,o),
(97,539,cs),
(25,539,o),
(-54,516,o),
(-54,450,cs),
(-54,408,o),
(3,375,o),
(74,357,c),
(12,214,o),
(-45,60,o),
(-45,22,cs),
(-45,3,o),
(-34,0,o),
(5,0,cs)
);
},
{
closed = 1;
nodes = (
(198,76,o),
(254,150,o),
(254,195,cs),
(254,215,o),
(245,218,o),
(214,218,cs),
(185,218,o),
(169,213,o),
(164,193,cs),
(143,115,o),
(136,101,o),
(136,91,cs),
(136,81,o),
(141,76,o),
(156,76,cs)
);
},
{
closed = 1;
nodes = (
(345,76,o),
(404,150,o),
(404,195,cs),
(404,214,o),
(395,218,o),
(367,218,cs),
(338,218,o),
(320,214,o),
(314,193,cs),
(294,119,o),
(287,103,o),
(287,93,cs),
(287,81,o),
(290,76,o),
(308,76,cs)
);
},
{
closed = 1;
nodes = (
(43,420,o),
(11,440,o),
(11,462,cs),
(11,496,o),
(55,508,o),
(92,508,cs),
(109,508,o),
(127,506,o),
(142,504,c),
(126,473,o),
(111,439,o),
(95,404,c)
);
}
);
width = 615;
},
{
associatedMasterId = "FF2DC345-5101-49B6-97F3-57A040F7C387";
layerId = "0BCA528E-6006-433C-A0EB-28579AFB6642";
name = "Aug 28, 22, 20:06";
shapes = (
{
closed = 1;
nodes = (
(20,-1,o),
(32,3,o),
(36,20,cs),
(64,119,o),
(106,235,o),
(147,339,c),
(216,325,o),
(284,318,o),
(315,313,cs),
(387,301,o),
(493,296,o),
(493,202,cs),
(493,197,o),
(492,192,o),
(492,187,cs),
(484,115,o),
(466,52,o),
(408,42,cs),
(397,40,o),
(388,28,o),
(388,18,cs),
(388,8,o),
(395,0,o),
(415,0,cs),
(523,0,o),
(582,116,o),
(582,197,cs),
(582,321,o),
(436,343,o),
(339,354,cs),
(295,359,o),
(228,369,o),
(165,384,c),
(219,520,o),
(267,629,o),
(269,640,cs),
(270,643,o),
(270,646,o),
(270,649,cs),
(270,655,o),
(267,660,o),
(252,662,cs),
(251,662,o),
(251,662,o),
(250,662,cs),
(231,662,o),
(197,610,o),
(158,535,c),
(141,538,o),
(119,539,o),
(97,539,cs),
(34,539,o),
(-39,524,o),
(-52,461,cs),
(-53,457,o),
(-54,453,o),
(-54,450,cs),
(-54,406,o),
(4,377,o),
(74,357,c),
(12,214,o),
(-41,66,o),
(-45,27,cs),
(-45,25,o),
(-45,23,o),
(-45,22,cs),
(-45,3,o),
(-34,2,o),
(-13,0,cs),
(-12,0,o),
(-12,0,o),
(-11,0,cs),
(-5,-1,o),
(0,-1,o),
(5,-1,cs)
);
},
{
closed = 1;
nodes = (
(196,76,o),
(254,150,o),
(254,195,cs),
(254,218,o),
(239,218,o),
(217,218,cs),
(216,218,o),
(215,218,o),
(214,218,cs),
(191,218,o),
(170,216,o),
(164,193,cs),
(137,96,o),
(137,108,o),
(137,93,cs),
(137,81,o),
(137,76,o),
(159,76,cs)
);
},
{
closed = 1;
nodes = (
(346,76,o),
(404,150,o),
(404,195,cs),
(404,218,o),
(390,218,o),
(367,218,cs),
(366,218,o),
(365,218,o),
(364,218,cs),
(342,218,o),
(321,216,o),
(314,193,cs),
(287,96,o),
(287,108,o),
(287,93,cs),
(287,81,o),
(287,76,o),
(309,76,cs)
);
},
{
closed = 1;
nodes = (
(46,420,o),
(11,440,o),
(11,462,cs),
(11,464,o),
(12,467,o),
(12,469,cs),
(21,500,o),
(56,508,o),
(92,508,cs),
(109,508,o),
(127,506,o),
(142,504,c),
(126,473,o),
(111,439,o),
(95,404,c)
);
}
);
visible = 1;
width = 615;
}
);
},
{
color = 5;
glyphname = uni05D3_uni05F3;
layers = (
{
layerId = "FF2DC345-5101-49B6-97F3-57A040F7C387";
shapes = (
{
closed = 1;
nodes = (
(136,0,o),
(195,113,o),
(195,197,cs),
(195,314,o),
(55,343,o),
(-20,349,cs),
(-110,356,o),
(-160,396,o),
(-185,396,cs),
(-193,396,o),
(-198,392,o),
(-198,385,cs),
(-198,365,o),
(-161,327,o),
(-45,308,cs),
(27,296,o),
(105,285,o),
(105,202,cs),
(105,143,o),
(89,58,o),
(21,42,cs),
(8,39,o),
(0,28,o),
(0,18,cs),
(0,8,o),
(8,0,o),
(28,0,cs)
);
},
{
closed = 1;
nodes = (
(164,467,o),
(271,579,o),
(271,607,cs),
(271,628,o),
(238,640,o),
(221,640,cs),
(208,640,o),
(201,635,o),
(196,628,cs),
(139,543,o),
(98,501,o),
(98,486,cs),
(98,475,o),
(108,467,o),
(123,467,cs)
);
}
);
width = 227;
},
{
associatedMasterId = "FF2DC345-5101-49B6-97F3-57A040F7C387";
layerId = "A55D0E39-D535-494B-BBB4-A368C2D25302";
name = "Aug 29, 22, 18:58";
shapes = (
{
closed = 1;
nodes = (
(136,0,o),
(195,116,o),
(195,197,cs),
(195,314,o),
(55,344,o),
(-20,349,cs),
(-100,355,o),
(-162,394,o),
(-183,396,cs),
(-183,396,o),
(-184,396,o),
(-185,396,cs),
(-193,396,o),
(-198,392,o),
(-198,385,cs),
(-198,365,o),
(-161,328,o),
(-45,308,cs),
(27,296,o),
(105,285,o),
(105,202,cs),
(105,198,o),
(105,192,o),
(105,187,cs),
(97,115,o),
(79,52,o),
(21,42,cs),
(10,40,o),
(0,28,o),
(0,18,cs),
(0,8,o),
(8,0,o),
(28,0,cs)
);
},
{
closed = 1;
nodes = (
(126,467,o),
(130,468,o),
(134,469,cs),
(168,476,o),
(236,550,o),
(267,594,cs),
(270,598,o),
(271,602,o),
(271,607,cs),
(271,615,o),
(266,625,o),
(250,632,cs),
(239,638,o),
(229,640,o),
(221,640,cs),
(208,640,o),
(200,634,o),
(196,628,cs),
(140,543,o),
(104,508,o),
(99,491,cs),
(98,489,o),
(98,487,o),
(98,486,cs),
(98,475,o),
(108,467,o),
(123,467,cs)
);
}
);
visible = 1;
width = 227;
}
);
},
{
color = 5;
glyphname = uni05D3_uni05F3_uni05D9;
layers = (
{
layerId = "FF2DC345-5101-49B6-97F3-57A040F7C387";
shapes = (
{
closed = 1;
nodes = (
(276,0,o),
(361,91,o),
(361,197,cs),
(360,314,o),
(221,344,o),
(146,349,cs),
(66,355,o),
(2,396,o),
(-19,396,cs),
(-27,396,o),
(-32,392,o),
(-32,385,cs),
(-32,365,o),
(4,328,o),
(121,308,cs),
(193,296,o),
(271,285,o),
(271,202,cs),
(271,143,o),
(226,46,o),
(152,46,cs),
(127,46,o),
(101,71,o),
(101,114,cs),
(101,126,o),
(107,134,o),
(107,147,cs),
(107,164,o),
(102,170,o),
(70,170,cs),
(30,170,o),
(22,161,o),
(17,145,cs),
(-9,57,o),
(-22,43,o),
(-22,29,cs),
(-22,15,o),
(-18,11,o),
(0,11,cs),
(16,11,o),
(39,29,o),
(60,53,c),
(77,25,o),
(105,0,o),
(150,0,cs)
);
},
{
closed = 1;
nodes = (
(330,467,o),
(437,584,o),
(437,607,cs),
(437,626,o),
(405,640,o),
(387,640,cs),
(373,640,o),
(366,634,o),
(362,628,cs),
(302,536,o),
(264,502,o),
(264,486,cs),
(264,475,o),
(274,467,o),
(289,467,cs)
);
}
);
width = 392;
},
{
associatedMasterId = "FF2DC345-5101-49B6-97F3-57A040F7C387";
layerId = "8E435679-C3D3-41E6-AD6E-65D10DC30597";
name = "Aug 28, 22, 21:24";
shapes = (
{
closed = 1;
nodes = (
(284,0,o),
(361,100,o),
(361,195,cs),
(361,196,o),
(361,196,o),
(361,197,cs),
(360,314,o),
(221,344,o),
(146,349,cs),
(66,355,o),
(3,394,o),
(-17,396,cs),
(-17,396,o),
(-18,396,o),
(-19,396,cs),
(-27,396,o),
(-32,392,o),
(-32,385,cs),
(-32,365,o),
(4,328,o),
(121,308,cs),
(193,296,o),
(271,285,o),
(271,202,cs),
(271,198,o),
(271,192,o),
(270,187,cs),
(264,126,o),
(219,47,o),
(152,46,cs),
(152,46,o),
(152,46,o),
(152,46,cs),
(119,46,o),
(101,83,o),
(101,114,cs),
(101,115,o),
(101,116,o),
(102,117,cs),
(102,119,o),
(102,121,o),
(102,122,cs),
(105,131,o),
(107,140,o),
(107,147,cs),
(107,170,o),
(92,170,o),
(70,170,cs),
(69,170,o),
(68,170,o),
(67,170,cs),
(45,170,o),
(23,168,o),
(17,145,cs),
(-11,48,o),
(-22,43,o),
(-22,29,cs),
(-22,17,o),
(-22,11,o),
(0,11,c),
(16,11,o),
(39,29,o),
(60,53,c),
(77,25,o),
(105,0,o),
(150,0,cs)
);
},
{
closed = 1;
nodes = (
(292,467,o),
(296,468,o),
(299,469,cs),
(334,476,o),
(402,550,o),
(433,594,cs),
(435,598,o),
(437,602,o),
(437,607,cs),
(437,615,o),
(431,625,o),
(416,632,cs),
(404,638,o),
(395,640,o),
(387,640,cs),
(373,640,o),
(366,634,o),
(362,628,cs),
(306,543,o),
(270,508,o),
(265,491,cs),
(264,489,o),
(264,487,o),
(264,486,cs),
(264,475,o),
(274,467,o),
(289,467,cs)
);
}
);
visible = 1;
width = 392;
}
);
},
